<?xml version="1.0"?>

<svg width="108.14" xmlns="http://www.w3.org/2000/svg" viewBox="0 0 108.140386 55.2" height="55.2">
 <path d="m85.04 24.2c-2.9-9.599-11.9-16.2-21.9-16.2-10.1 0-18.902 6.602-21.902 16.102-1.597-0.602-3.398-0.903-5.097-0.903-7.102 0-13.301 4.903-14.903 11.801-6.398 0.3-11.8 4.7-13.199 11-0.101 0.3 0 0.602 0.2 0.8 0.198 0.2 0.5 0.4 0.698 0.4h90c0.5 0 0.903-0.302 0.903-0.802 0.2-1.199 0.3-2.199 0.3-3.296 0.098-9.102-6.3-17-15.1-18.903zm13.1 21h-88c1.598-4.9 6.2-8.302 11.598-8.302h0.102c0.5 0 0.898-0.296 1-0.796 1.2-6.403 6.7-11 13.2-11 1.698 0 3.398 0.296 5 1 1 0.5 3.1 1.699 4.398 3.898 0.203 0.3 0.5 0.398 0.703 0.3 0.097 0 0.199 0 0.199-0.1 0.3-0.2 0.398-0.598 0.2-1-1.102-1.9-2.7-3.098-3.9-3.9 2.598-9 10.9-15.402 20.4-15.402 9.1 0 17.198 5.801 20 14.5-2.5 0-4.302 0.903-4.4 0.903-0.402 0.199-0.5 0.597-0.402 0.898 0.102 0.403 0.602 0.5 0.903 0.403 0 0 2.5-1 5.398-0.5 8 1.699 13.7 8.796 13.7 17 0.1 0.699 0 1.398-0.098 2.097z"></path>
</svg>
