<?xml version="1.0"?>

<svg width="84.229" xmlns="http://www.w3.org/2000/svg" viewBox="0 0 84.229 98.083" height="98.083">
 <g fill="#010101">
  <path d="m12.96 16.93a0.987 0.987 0 0 0 -0.558 1.175c-0.023 0.086-0.05 0.168-0.05 0.258v33.121c0 0.024 0.007 0.043 0.011 0.067-0.004 0.023-0.011 0.039-0.011 0.062v33.121a1 1 0 0 0 1 1h57.527a1 1 0 0 0 1 -1v-33.12c0-0.024-0.012-0.04-0.016-0.063 0.004-0.024 0.016-0.043 0.016-0.067v-33.12c0-0.094-0.031-0.177-0.055-0.262a0.984 0.984 0 0 0 -0.508 -1.153l-9.195-4.5a1.056 1.056 0 0 0 -0.437 -0.101h-37.75a0.978 0.978 0 0 0 -0.395 0.082zm56.92 66.804h-55.528v-14.558h55.527zm0-16.558h-55.528v-14.563h55.527zm0-16.692h-55.528v-14.558h55.527zm0-24.964v8.406h-55.528v-14.563h55.527zm-45.743-11.168h37.316l6.16 3.011h-50.566z"></path>
  <path d="m20.781 26.402c0 0.758-0.617 1.375-1.375 1.375a1.377 1.377 0 0 1 -1.375 -1.375c0-0.757 0.617-1.375 1.375-1.375s1.375 0.618 1.375 1.375zm4.879 0c0 0.758-0.617 1.375-1.375 1.375a1.377 1.377 0 0 1 -1.375 -1.375c0-0.757 0.617-1.375 1.375-1.375s1.375 0.618 1.375 1.375zm-4.879 17c0 0.758-0.617 1.375-1.375 1.375a1.377 1.377 0 0 1 -1.375 -1.375c0-0.757 0.617-1.375 1.375-1.375s1.375 0.618 1.375 1.375zm4.879 0c0 0.758-0.617 1.375-1.375 1.375a1.377 1.377 0 0 1 -1.375 -1.375c0-0.757 0.617-1.375 1.375-1.375s1.375 0.618 1.375 1.375zm-4.879 16c0 0.758-0.617 1.375-1.375 1.375a1.377 1.377 0 0 1 -1.375 -1.375c0-0.757 0.617-1.375 1.375-1.375s1.375 0.618 1.375 1.375zm4.879 0c0 0.758-0.617 1.375-1.375 1.375a1.377 1.377 0 0 1 -1.375 -1.375c0-0.757 0.617-1.375 1.375-1.375s1.375 0.618 1.375 1.375zm-4.879 17a1.375 1.375 0 1 1 -2.749 0.001 1.375 1.375 0 0 1 2.75 0zm4.879 0a1.375 1.375 0 1 1 -2.749 0.001 1.375 1.375 0 0 1 2.75 0zm37.957-45.359h2.996c0.278 0 0.5-0.227 0.5-0.5v-8c0-0.277-0.222-0.5-0.5-0.5h-2.996a0.502 0.502 0 0 0 -0.504 0.5v8c0 0.273 0.227 0.5 0.504 0.5zm0.496-8h2v7h-2zm-6.5 8h3c0.278 0 0.5-0.227 0.5-0.5v-8c0-0.277-0.222-0.5-0.5-0.5h-3c-0.273 0-0.5 0.223-0.5 0.5v8c0 0.273 0.227 0.5 0.5 0.5zm0.5-8h2v7h-2zm5.504 25h2.996c0.278 0 0.5-0.227 0.5-0.5v-8c0-0.277-0.222-0.5-0.5-0.5h-2.996a0.502 0.502 0 0 0 -0.504 0.5v8c0 0.273 0.227 0.5 0.504 0.5zm0.496-8h2v7h-2zm-6.5 8h3c0.278 0 0.5-0.227 0.5-0.5v-8c0-0.277-0.222-0.5-0.5-0.5h-3c-0.273 0-0.5 0.223-0.5 0.5v8c0 0.273 0.227 0.5 0.5 0.5zm0.5-8h2v7h-2zm5.504 24h2.996c0.278 0 0.5-0.414 0.5-0.691v-8c0-0.274-0.222-0.309-0.5-0.309h-2.996c-0.277 0-0.504 0.035-0.504 0.309v8c0 0.277 0.227 0.691 0.504 0.691zm0.496-8h2v7h-2zm-6.5 8h3c0.278 0 0.5-0.414 0.5-0.691v-8c0-0.274-0.222-0.309-0.5-0.309h-3c-0.273 0-0.5 0.035-0.5 0.309v8c0 0.277 0.227 0.691 0.5 0.691zm0.5-8h2v7h-2zm5.504 25h2.996c0.278 0 0.5-0.414 0.5-0.691v-8c0-0.274-0.222-0.309-0.5-0.309h-2.996c-0.277 0-0.504 0.035-0.504 0.309v8c0 0.277 0.227 0.691 0.504 0.691zm0.496-8h2v7h-2zm-6.5 8h3c0.278 0 0.5-0.414 0.5-0.691v-8c0-0.274-0.222-0.309-0.5-0.309h-3c-0.273 0-0.5 0.035-0.5 0.309v8c0 0.277 0.227 0.691 0.5 0.691zm0.5-8h2v7h-2zm-49.148-58.238a5.51 5.51 0 0 0 -0.867 2.133 0.751 0.751 0 0 0 0.742 0.878 0.748 0.748 0 0 0 0.734 -0.625 3.965 3.965 0 0 1 0.63 -1.539 0.749 0.749 0 0 0 -0.196 -1.043 0.756 0.756 0 0 0 -1.043 0.196zm54.363 73.777h-1.996a0.75 0.75 0 0 0 0 1.5h1.996a0.75 0.75 0 0 0 0 -1.5zm-4.992 0h-1.996a0.75 0.75 0 0 0 0 1.5h1.996a0.75 0.75 0 0 0 0 -1.5zm-9.988 0h-1.996a0.75 0.75 0 0 0 0 1.5h1.996a0.75 0.75 0 0 0 0 -1.5zm4.996 0h-2a0.75 0.75 0 0 0 0 1.5h2a0.75 0.75 0 0 0 0 -1.5zm19.48-0.527a3.853 3.853 0 0 1 -1.578 0.511 0.75 0.75 0 0 0 0.07 1.496c0.024 0 0.047 0 0.07-0.003a5.286 5.286 0 0 0 2.192 -0.707 0.75 0.75 0 0 0 -0.754 -1.297zm-4.504 0.527h-1.996a0.75 0.75 0 0 0 0 1.5h1.996a0.75 0.75 0 0 0 0 -1.5zm-24.965 0h-2a0.75 0.75 0 0 0 0 1.5h2a0.75 0.75 0 0 0 0 -1.5zm-14.98 0h-1.996a0.75 0.75 0 0 0 0 1.5h1.996a0.75 0.75 0 0 0 0 -1.5zm-4.992 0h-1.996a0.75 0.75 0 0 0 0 1.5h1.996a0.75 0.75 0 0 0 0 -1.5zm-4.993 0h-2a0.75 0.75 0 0 0 0 1.5h2a0.75 0.75 0 0 0 0 -1.5zm14.977 0h-1.996a0.75 0.75 0 0 0 0 1.5h1.996a0.75 0.75 0 0 0 0 -1.5zm4.996 0h-2a0.75 0.75 0 0 0 0 1.5h2a0.75 0.75 0 0 0 0 -1.5zm37.117-4.801a0.75 0.75 0 0 0 -0.75 0.75v0.203c0 0.504-0.097 0.996-0.289 1.465-0.16 0.383 0.024 0.82 0.407 0.977a0.745 0.745 0 0 0 0.98 -0.406 5.337 5.337 0 0 0 0.399 -2.036v-0.203a0.744 0.744 0 0 0 -0.747 -0.75zm0-4.991a0.75 0.75 0 0 0 -0.75 0.75v1.995a0.75 0.75 0 0 0 1.5 0v-1.995a0.75 0.75 0 0 0 -0.75 -0.75zm0-49.935a0.75 0.75 0 0 0 -0.75 0.75v1.997a0.75 0.75 0 0 0 1.5 0v-1.997a0.75 0.75 0 0 0 -0.75 -0.75zm0 4.997a0.75 0.75 0 0 0 -0.75 0.75v1.996a0.75 0.75 0 0 0 1.5 0v-1.996a0.75 0.75 0 0 0 -0.75 -0.75zm0 4.992a0.75 0.75 0 0 0 -0.75 0.75v1.996a0.75 0.75 0 0 0 1.5 0v-1.996a0.75 0.75 0 0 0 -0.75 -0.75zm-62.128 49.738c-0.567 0-1.11-0.117-1.622-0.355a0.75 0.75 0 1 0 -0.632 1.359 5.34 5.34 0 0 0 2.254 0.496h0.043c0.414 0 0.726-0.336 0.726-0.75s-0.355-0.75-0.77-0.75zm62.128-44.746a0.75 0.75 0 0 0 -0.75 0.75v2c0 0.41 0.336 0.75 0.75 0.75 0.415 0 0.75-0.34 0.75-0.75v-2a0.75 0.75 0 0 0 -0.75 -0.75zm0-19.973a0.75 0.75 0 0 0 -0.75 0.75v1.996a0.75 0.75 0 0 0 1.5 0v-1.996a0.75 0.75 0 0 0 -0.75 -0.75zm0-4.992a0.75 0.75 0 0 0 -0.75 0.75v1.996a0.75 0.75 0 0 0 1.5 0v-1.996a0.75 0.75 0 0 0 -0.75 -0.75zm0 44.938a0.75 0.75 0 0 0 -0.75 0.75v2a0.75 0.75 0 0 0 1.5 0v-2a0.75 0.75 0 0 0 -0.75 -0.75zm0 4.991a0.75 0.75 0 0 0 -0.75 0.75v2a0.75 0.75 0 0 0 1.5 0v-2a0.75 0.75 0 0 0 -0.75 -0.75zm0-19.972a0.75 0.75 0 0 0 -0.75 0.75v1.996a0.75 0.75 0 0 0 1.5 0v-1.996a0.75 0.75 0 0 0 -0.75 -0.75zm0 24.969a0.75 0.75 0 0 0 -0.75 0.75v1.996a0.75 0.75 0 0 0 1.5 0v-1.996a0.75 0.75 0 0 0 -0.75 -0.75zm0-14.981a0.75 0.75 0 0 0 -0.75 0.75v1.996a0.75 0.75 0 0 0 1.5 0v-1.996a0.75 0.75 0 0 0 -0.75 -0.75zm0-4.996a0.75 0.75 0 0 0 -0.75 0.75v2a0.75 0.75 0 0 0 1.5 0v-2a0.75 0.75 0 0 0 -0.75 -0.75zm-39.511-44.32h1.996a0.75 0.75 0 0 0 0 -1.5h-1.996a0.75 0.75 0 0 0 0 1.5zm-9.989 0h2a0.75 0.75 0 0 0 0 -1.5h-2a0.75 0.75 0 0 0 0 1.5zm14.98 0h2c0.411 0 0.75-0.336 0.75-0.75s-0.338-0.75-0.75-0.75h-2a0.75 0.75 0 0 0 0 1.5zm33.618 7.336c0.09 0.332 0.395 0.555 0.723 0.555a0.748 0.748 0 0 0 0.723 -0.95 5.37 5.37 0 0 0 -1.063 -2.039 0.747 0.747 0 0 0 -1.059 -0.093 0.753 0.753 0 0 0 -0.093 1.054c0.359 0.426 0.62 0.934 0.77 1.473zm-43.605-7.336h2a0.75 0.75 0 0 0 0 -1.5h-2a0.75 0.75 0 0 0 0 1.5zm-9.848 0.797a0.72 0.72 0 0 0 0.293 -0.063l1.004-0.425c0.238-0.102 0.48-0.176 0.723-0.227a0.756 0.756 0 0 0 0.582 -0.89 0.749 0.749 0 0 0 -0.891 -0.579c-0.332 0.07-0.668 0.172-0.996 0.313l-1.012 0.43a0.746 0.746 0 0 0 -0.394 0.98c0.12 0.289 0.398 0.46 0.691 0.46zm-4.594 1.953a0.72 0.72 0 0 0 0.293 -0.063l1.836-0.78a0.75 0.75 0 0 0 0.399 -0.985 0.751 0.751 0 0 0 -0.985 -0.395l-1.84 0.782a0.75 0.75 0 1 0 0.297 1.441zm-4.597 1.953c0.097 0 0.199-0.02 0.293-0.058l1.84-0.782a0.751 0.751 0 0 0 0.394 -0.984 0.743 0.743 0 0 0 -0.98 -0.395l-1.84 0.782a0.75 0.75 0 1 0 0.293 1.438zm34.019-4.703h2a0.75 0.75 0 0 0 0 -1.5h-2a0.75 0.75 0 0 0 0 1.5zm19.352 1.336l1.797 0.879a0.758 0.758 0 0 0 1.003 -0.344 0.754 0.754 0 0 0 -0.343 -1.004l-1.797-0.879a0.756 0.756 0 0 0 -1.004 0.348 0.749 0.749 0 0 0 0.344 1zm4.488 2.195l1.793 0.88a0.758 0.758 0 0 0 1.004 -0.345 0.75 0.75 0 0 0 -0.344 -1.004l-1.793-0.878a0.752 0.752 0 0 0 -1.004 0.343 0.749 0.749 0 0 0 0.344 1.004zm-60.289 71.903a0.74 0.74 0 0 0 -0.785 -0.711 0.745 0.745 0 0 0 -0.711 0.785c0.039 0.781 0.246 1.531 0.61 2.222a0.757 0.757 0 0 0 1.015 0.313 0.754 0.754 0 0 0 0.312 -1.016 3.747 3.747 0 0 1 -0.441 -1.593zm41.441-75.434h2a0.75 0.75 0 0 0 0 -1.5h-2a0.75 0.75 0 0 0 0 1.5zm4.996 0h1.996a0.75 0.75 0 0 0 0 -1.5h-1.996a0.75 0.75 0 0 0 0 1.5zm4.993 0h0.75c0.347 0 0.691 0.047 1.03 0.14a0.75 0.75 0 0 0 0.398 -1.445 5.392 5.392 0 0 0 -1.427 -0.195h-0.75a0.75 0.75 0 0 0 0 1.5zm-52.184 63.238a0.75 0.75 0 0 0 0.75 -0.75v-2a0.75 0.75 0 0 0 -1.5 0v2c0 0.414 0.336 0.75 0.75 0.75zm0-4.996a0.75 0.75 0 0 0 0.75 -0.75v-1.996a0.75 0.75 0 0 0 -1.5 0v1.996c0 0.414 0.336 0.75 0.75 0.75zm0-4.992a0.75 0.75 0 0 0 0.75 -0.75v-1.996a0.75 0.75 0 0 0 -1.5 0v1.996c0 0.414 0.336 0.75 0.75 0.75zm0 14.98a0.75 0.75 0 0 0 0.75 -0.75v-1.996a0.75 0.75 0 0 0 -1.5 0v1.996c0 0.415 0.336 0.75 0.75 0.75zm0 4.993a0.75 0.75 0 0 0 0.75 -0.75v-1.996a0.75 0.75 0 0 0 -1.5 0v1.996c0 0.414 0.336 0.75 0.75 0.75zm0-24.965a0.75 0.75 0 0 0 0.75 -0.75v-1.996a0.75 0.75 0 0 0 -1.5 0v1.996c0 0.414 0.336 0.75 0.75 0.75zm0-9.988a0.75 0.75 0 0 0 0.75 -0.75v-1.997a0.75 0.75 0 0 0 -1.5 0v1.997c0 0.414 0.336 0.75 0.75 0.75zm0-9.985a0.75 0.75 0 0 0 0.75 -0.75v-2a0.75 0.75 0 0 0 -1.5 0v2c0 0.414 0.336 0.75 0.75 0.75zm0-4.992a0.75 0.75 0 0 0 0.75 -0.75v-2a0.75 0.75 0 0 0 -1.5 0v2c0 0.414 0.336 0.75 0.75 0.75zm0-4.996a0.75 0.75 0 0 0 0.75 -0.75v-1.997a0.75 0.75 0 0 0 -1.5 0v1.996c0 0.414 0.336 0.75 0.75 0.75zm0 14.98a0.75 0.75 0 0 0 0.75 -0.75v-1.996a0.75 0.75 0 0 0 -1.5 0v1.996c0 0.414 0.336 0.75 0.75 0.75zm0-19.972a0.75 0.75 0 0 0 0.75 -0.75v-1.996a0.75 0.75 0 0 0 -1.5 0v1.996c0 0.414 0.336 0.75 0.75 0.75zm0 29.961a0.75 0.75 0 0 0 0.75 -0.75v-2a0.75 0.75 0 0 0 -1.5 0v2c0 0.414 0.336 0.75 0.75 0.75z"></path>
 </g>
</svg>
