<?xml version="1.0"?>

<svg width="75.528" xmlns="http://www.w3.org/2000/svg" viewBox="0 0 75.528024 89.386" height="89.386">
 <path d="m67.477 13.754a0.993 0.993 0 0 0 -0.508 -1.152l-9.196-4.5a1.011 1.011 0 0 0 -0.437 -0.102h-37.754a1.04 1.04 0 0 0 -0.39 0.078l-10.583 4.5a0.993 0.993 0 0 0 -0.558 1.18c-0.024 0.086-0.051 0.168-0.051 0.258v33.12c0 0.024 0.012 0.044 0.012 0.067 0 0.02-0.012 0.04-0.012 0.063v33.12a1 1 0 0 0 1 1h57.527a1 1 0 0 0 1 -1v-33.12c0-0.024-0.011-0.043-0.011-0.063 0-0.023 0.011-0.043 0.011-0.066v-33.121c0-0.094-0.027-0.176-0.05-0.262m-47.692-3.754h37.317l6.16 3.016h-50.567zm45.742 69.387h-55.527v-14.563h55.527zm0-16.559h-55.527v-14.562h55.527zm0-16.691h-55.527v-14.563h55.527zm0-24.965v2.98m0 5.422h-55.527v-14.558h55.527z"></path>
 <path d="m15.055 23.43a1.375 1.375 0 0 0 0 -2.75 1.375 1.375 0 1 0 0 2.75m4.879 0a1.375 1.375 0 1 0 0.001 -2.751 1.375 1.375 0 0 0 -0.001 2.75m-4.879 17.001a1.375 1.375 0 0 0 0 -2.75 1.375 1.375 0 1 0 0 2.75m4.879 0a1.375 1.375 0 1 0 0.001 -2.751 1.375 1.375 0 0 0 -0.001 2.75m-4.879 16.001a1.375 1.375 0 0 0 0 -2.75 1.375 1.375 0 1 0 0 2.75m4.879 0a1.375 1.375 0 1 0 0.001 -2.751 1.375 1.375 0 0 0 -0.001 2.75m-4.879 17.001a1.375 1.375 0 0 0 0 -2.75 1.375 1.375 0 1 0 0 2.75m4.879 0a1.375 1.375 0 1 0 0.001 -2.751 1.375 1.375 0 0 0 -0.001 2.75m43.097-47.226c0 0.277-0.226 0.5-0.504 0.5h-2.996a0.501 0.501 0 0 1 -0.5 -0.5v-8c0-0.277 0.227-0.5 0.5-0.5h2.996c0.278 0 0.504 0.223 0.504 0.5zm-3-0.5h2v-7h-2zm-3 0.5c0 0.277-0.226 0.5-0.5 0.5h-3a0.498 0.498 0 0 1 -0.5 -0.5v-8c0-0.277 0.223-0.5 0.5-0.5h3c0.274 0 0.5 0.223 0.5 0.5zm-3-0.5h2v-7h-2zm9 17.5c0 0.277-0.226 0.5-0.504 0.5h-2.996a0.501 0.501 0 0 1 -0.5 -0.5v-8c0-0.277 0.227-0.5 0.5-0.5h2.996c0.278 0 0.504 0.223 0.504 0.5zm-3-0.5h2v-7h-2zm-3 0.5c0 0.277-0.226 0.5-0.5 0.5h-3a0.498 0.498 0 0 1 -0.5 -0.5v-8c0-0.277 0.223-0.5 0.5-0.5h3c0.274 0 0.5 0.223 0.5 0.5zm-3-0.5h2v-7h-2zm9 16.5c0 0.277-0.226 0.5-0.504 0.5h-2.996a0.501 0.501 0 0 1 -0.5 -0.5v-8c0-0.277 0.227-0.5 0.5-0.5h2.996c0.278 0 0.504 0.223 0.504 0.5zm-3-0.5h2v-7h-2zm-3 0.5c0 0.277-0.226 0.5-0.5 0.5h-3a0.498 0.498 0 0 1 -0.5 -0.5v-8c0-0.277 0.223-0.5 0.5-0.5h3c0.274 0 0.5 0.223 0.5 0.5zm-3-0.5h2v-7h-2zm9 17.5c0 0.277-0.226 0.5-0.504 0.5h-2.996a0.501 0.501 0 0 1 -0.5 -0.5v-8c0-0.277 0.227-0.5 0.5-0.5h2.996c0.278 0 0.504 0.223 0.504 0.5zm-3-0.5h2v-7h-2zm-3 0.5c0 0.277-0.226 0.5-0.5 0.5h-3a0.498 0.498 0 0 1 -0.5 -0.5v-8c0-0.277 0.223-0.5 0.5-0.5h3c0.274 0 0.5 0.223 0.5 0.5zm-3-0.5h2v-7h-2z"></path>
</svg>
