<?xml version="1.0"?>

<svg width="112.44" xmlns="http://www.w3.org/2000/svg" viewBox="0 0 112.441328 79.12533" height="79.125">
 <path d="m8 8v63.125h96.441v-63.125zm4.008 2h88.058c-10.32 7.793-24.16 17.852-33.8 24.055-0.598 0.383-1.18 0.754-1.75 1.11-2.266 1.42-3.934 2.382-5.176 3.034-1.809 0.817-2.758 1.055-3.25 1.055-0.395 0-1.282-0.191-3.223-1.082-1.176-0.625-2.734-1.531-4.84-2.844l-0.215-0.129c-0.52-0.328-1.039-0.656-1.554-0.988-9.653-6.176-23.723-16.336-34.254-24.211zm90.273 0h0.16v57.219c-10.057-9.754-24.92-23.672-35.179-32.219 10.102-6.52 24.65-17.14 35.02-25zm-92.28 0.168c10.574 7.934 25.23 18.547 35.281 25-10.324 8.625-25.254 22.723-35.281 32.55zm56.39 25.836c10.286 8.566 25.262 22.601 35.31 32.351a3.277 3.277 0 0 1 -1.583 0.395h-88.11c-0.343 0-0.679-0.05-0.995-0.148 10.02-9.82 24.89-23.872 35.16-32.446 2.781 1.59 4.766 2.61 6.219 3.27 2.297 1.21 3.207 1.406 3.703 1.406 0.531 0 1.5-0.203 3.906-1.469 1.676-0.758 3.797-1.87 6.39-3.36z"></path>
</svg>
