<?xml version="1.0"?>

<svg width="88.652" xmlns="http://www.w3.org/2000/svg" viewBox="0 0 88.652026 83.804052" height="83.804">
 <path d="m18.125 62.305c0 0.3 0.2 0.597 0.402 0.699l25.399 12.7c0.101 0 0.199 0.1 0.3 0.1 0.098 0 0.2 0 0.301-0.1l25.399-12.7c0.3-0.102 0.398-0.399 0.398-0.7v-24.5l9.903-4.902c0.3-0.199 0.5-0.5 0.398-0.797-0.098-0.3-0.3-0.601-0.7-0.703l-8.898-1.398 7.797-7.8c0.203-0.2 0.301-0.4 0.203-0.7 0-0.3-0.203-0.5-0.402-0.602l-25.098-12.797c-0.3-0.203-0.703-0.101-0.902 0.2l-8.598 8.597-10.203-1c-0.199 0-0.297 0-0.398 0.102l-25 12.601c-0.301 0.2-0.5 0.5-0.399 0.899 0.098 0.398 0.399 0.601 0.7 0.7l9.699 1v0.3l-4.602 9.898c-0.199 0.403 0 0.801 0.403 1l3.898 2zm25.402 11.398l-23.8-11.898v-16.602l19.898 9.902c0.2 0.098 0.402 0.098 0.602 0 0.199-0.101 0.398-0.203 0.5-0.402l2.8-6.7zm25.5-11.898l-23.8 11.898v-29.398l0.199-0.403 9.601 1.5c0.2 0 0.297 0 0.5-0.097l13.598-6.801v23.3zm8.399-29.301l-22.5 11.3-7.102-1.1 22.5-11.302zm-24.102-22.7l23.903 12-7.602 7.598-23.898-12zm-9 8.9l23.602 11.8-4 2v-1.602c0-0.199-0.2-0.398-0.399-0.398-0.203 0-0.402 0.2-0.402 0.398v2l-1.898 1v-4.297a0.43 0.43 0 0 0 -0.403 -0.402c-0.199 0-0.398 0.2-0.398 0.402v4.7l-1.899 1v-6.903c0-0.199-0.203-0.398-0.402-0.398-0.2 0-0.398 0.2-0.398 0.398v7.403l-1.903 1v-9.602c0-0.2-0.199-0.398-0.398-0.398-0.2 0-0.399 0.199-0.399 0.398v10l-1.902 1v-12.3c0-0.2-0.2-0.4-0.398-0.4-0.2 0-0.403 0.2-0.403 0.4v12.702l-1.898 1v-15c0-0.203-0.2-0.402-0.399-0.402a0.43 0.43 0 0 0 -0.402 0.402v15.399l-1.898 1v-17.602c0-0.199-0.2-0.398-0.403-0.398-0.199 0-0.398 0.2-0.398 0.398v18l-1.7 0.903v-20.2c0-0.3-0.3-0.601-0.601-0.601-0.3 0-0.598 0.3-0.598 0.601v20.098l-23.203-11.8zm-32.898 10l22.3-11.2 7.7 0.8-22.301 11.2zm4.199 12.698l4.102-9.699 24 12-4.102 9.7z"></path>
</svg>
