<?xml version="1.0"?>

<svg width="75.625" xmlns="http://www.w3.org/2000/svg" viewBox="0 0 75.625483 39.9" height="39.9">
 <path d="m67.602 13.8c0.097-0.5-0.102-0.902-0.5-1.198l-9.204-4.5c-0.097-0.102-0.296-0.102-0.398-0.102h-37.8c-0.098 0-0.302 0-0.4 0.102l-10.6 4.5c-0.5 0.199-0.7 0.699-0.598 1.199 0 0.097-0.102 0.199-0.102 0.3v16.797c0 0.602 0.398 1 1 1h57.5c0.602 0 1-0.398 1-1v-16.796c0.2-0.204 0.102-0.204 0.102-0.301zm-47.704-3.8h37.302l6.2 3h-50.6zm45.802 19.8h-55.598v-14.5h55.5v14.5z"></path>
 <path d="m16.602 22.5a1.4 1.4 0 0 1 -2.801 0 1.4 1.4 0 0 1 2.8 0zm4.898 0a1.4 1.4 0 0 1 -2.8 0 1.4 1.4 0 0 1 2.8 0zm41.398 3.898c0 0.301-0.199 0.5-0.5 0.5h-3c-0.296 0-0.5-0.199-0.5-0.5v-8c0-0.296 0.204-0.5 0.5-0.5h3c0.301 0 0.5 0.204 0.5 0.5zm-3-0.5h2v-7h-2zm-3 0.5c0 0.301-0.199 0.5-0.5 0.5h-3c-0.296 0-0.5-0.199-0.5-0.5v-8c0-0.296 0.204-0.5 0.5-0.5h3c0.301 0 0.5 0.204 0.5 0.5zm-3-0.5h2v-7h-2z"></path>
</svg>
