<?xml version="1.0"?>

<svg width="88.002" xmlns="http://www.w3.org/2000/svg" viewBox="0 0 88.0025 108.875" height="108.88">
 <path d="m19.625 8c-2.629 0-4.879 2.125-4.879 4.871v17.5h-2.996c-2.125 0-3.75 1.629-3.75 3.75v19.375c0 2.133 1.625 3.75 3.75 3.75h2.996v38.75c0 2.629 2.129 4.879 4.879 4.879h43.125c2.621 0 4.875-2.121 4.875-4.879v-32.001h7.379c2.746 0 5-2.25 5-5v-26.496c-0.129-2.758-2.379-5-5.129-5h-7.371v-14.634c0-2.62-2.129-4.87-4.879-4.87zm0 2.5h43.125c1.25 0 2.375 1 2.375 2.371v10.625h-47.879v-10.625c0-1.25 1-2.371 2.379-2.371zm13.047 5.254a1.31 1.31 0 0 0 -0.922 0.371c-0.25 0.25-0.375 0.5-0.375 0.875s0.125 0.625 0.375 0.871c0.25 0.258 0.5 0.379 0.875 0.379s0.625-0.121 0.871-0.379c0.258-0.246 0.379-0.496 0.379-0.871s-0.121-0.625-0.379-0.875c-0.184-0.25-0.496-0.371-0.824-0.371zm4.207 0.242a0.99 0.99 0 0 0 -1.004 1.004c0 0.504 0.379 1 1.004 1h8.492c0.504 0 1.004-0.375 1.004-1-0.121-0.496-0.5-1.004-1.004-1.004zm-19.633 8.75h47.758v2.758h-16.629c-2.75 0-5 2.242-5 5v26.496c0 2.75 2.25 5 5 5h16.629v20.121h-47.758v-26.875h13.879c2.125 0 3.75-1.617 3.75-3.75v-19.375c0-2.121-1.625-3.75-3.75-3.75h-13.879zm31.129 5.258h26.5c1.379 0 2.5 1.121 2.5 2.5v26.496c0 1.371-1.121 2.5-2.5 2.5h-26.5a2.507 2.507 0 0 1 -2.5 -2.5v-26.496c0-1.379 1.121-2.5 2.5-2.5zm-36.754 2.866h19.375c0.754 0 1.25 0.504 1.25 1.25v19.375c0 0.754-0.496 1.25-1.25 1.25h-19.375c-0.746 0-1.25-0.496-1.25-1.25v-19.374c0-0.746 0.504-1.25 1.25-1.25zm13.004 28.125c-2.125 0-3.75 1.629-3.75 3.75v12.758c0 2.121 1.625 3.75 3.75 3.75h12.75c2.125 0 3.75-1.629 3.75-3.75v-12.757c-0.129-2.121-1.746-3.75-3.879-3.75zm0 2.5h12.75c0.754 0 1.25 0.504 1.25 1.25v12.629h-0.129c0 0.754-0.496 1.25-1.25 1.25h-12.621c-0.754 0-1.25-0.496-1.25-1.25v-12.628c0-0.746 0.496-1.25 1.25-1.25zm-7.379 21.875h47.758v10.625c0 1.25-1 2.379-2.379 2.379h-43c-1.25 0-2.379-1-2.379-2.379zm21.508 1.875c-1.754 0.001-3.254 1.509-3.254 3.255v2.371c-0.129 1.875 1.379 3.254 3.254 3.254h4.871c1.875 0 3.254-1.5 3.254-3.254v-2.371c0-1.746-1.508-3.254-3.254-3.254zm-0.129 1.875h4.871c0.754 0 1.379 0.625 1.379 1.379v2.371c0 0.754-0.625 1.379-1.379 1.379h-4.871a1.389 1.389 0 0 1 -1.379 -1.379v-2.37c0-0.754 0.625-1.379 1.379-1.379z"></path>
</svg>
