<?xml version="1.0"?>

<svg width="75.529" xmlns="http://www.w3.org/2000/svg" viewBox="0 0 75.529092 89.384" height="89.384">
 <g fill="#010101">
  <path d="m67.477 13.754a0.984 0.984 0 0 0 -0.508 -1.152l-9.196-4.5a0.998 0.998 0 0 0 -0.437 -0.102h-37.75c-0.137 0-0.27 0.027-0.395 0.078l-10.582 4.5a0.993 0.993 0 0 0 -0.558 1.18c-0.024 0.082-0.051 0.164-0.051 0.258v33.117c0 0.023 0.012 0.043 0.016 0.066-0.004 0.024-0.016 0.043-0.016 0.067v33.12c0 0.552 0.445 0.997 1 0.997h57.527c0.555 0 1-0.445 1-0.996v-33.121c0-0.024-0.011-0.043-0.011-0.067 0-0.023 0.011-0.043 0.011-0.066v-33.117c0.004-0.094-0.027-0.176-0.05-0.262zm-47.692-3.754h37.32l6.16 3.016h-50.565zm45.746 69.387h-55.531v-14.563h55.531zm0-16.559h-55.531v-14.562h55.531zm0-16.695h-55.531v-14.559h55.531zm0-24.961v2.98m0 5.422h-55.531v-14.558h55.531z"></path>
  <path d="m16.434 22.05a1.375 1.375 0 1 1 -2.75 0.002 1.375 1.375 0 0 1 2.75 -0.001zm4.879 0a1.375 1.375 0 1 1 -2.75 0.002 1.375 1.375 0 0 1 2.75 -0.001zm-4.879 17a1.375 1.375 0 1 1 -2.75 0.002 1.375 1.375 0 0 1 2.75 -0.001zm4.879 0a1.375 1.375 0 1 1 -2.75 0.002 1.375 1.375 0 0 1 2.75 -0.001zm-4.883 16a1.372 1.372 0 1 1 -1.371 -1.371 1.37 1.37 0 0 1 1.37 1.372zm4.879 0c0 0.763-0.614 1.376-1.372 1.376a1.372 1.372 0 1 1 0 -2.746 1.37 1.37 0 0 1 1.372 1.37zm-4.875 17.005a1.375 1.375 0 1 1 -2.751 0.001 1.375 1.375 0 0 1 2.75 -0.001zm4.879 0a1.375 1.375 0 1 1 -2.751 0.001 1.375 1.375 0 0 1 2.75 -0.001zm41.453-45.864c0 0.278-0.227 0.5-0.5 0.5h-3a0.501 0.501 0 0 1 -0.5 -0.5v-8c0-0.277 0.226-0.5 0.5-0.5h3c0.273 0 0.5 0.223 0.5 0.5zm-3-0.5h2v-7h-2zm-3 0.5c0 0.278-0.223 0.5-0.5 0.5h-3a0.498 0.498 0 0 1 -0.5 -0.5v-8c0-0.277 0.222-0.5 0.5-0.5h3c0.277 0 0.5 0.223 0.5 0.5zm-3-0.5h2v-7h-2zm9 17.5c0 0.278-0.227 0.5-0.5 0.5h-3a0.501 0.501 0 0 1 -0.5 -0.5v-8c0-0.277 0.226-0.5 0.5-0.5h3c0.273 0 0.5 0.223 0.5 0.5zm-3-0.5h2v-7h-2zm-3 0.5c0 0.278-0.223 0.5-0.5 0.5h-3a0.498 0.498 0 0 1 -0.5 -0.5v-8c0-0.277 0.222-0.5 0.5-0.5h3c0.277 0 0.5 0.223 0.5 0.5zm-3-0.5h2v-7h-2zm9 16.313c0 0.277-0.227 0.687-0.5 0.687h-3c-0.274 0-0.5-0.41-0.5-0.687v-8c0-0.277 0.226-0.313 0.5-0.313h3c0.273 0 0.5 0.036 0.5 0.313zm-3-0.313h2v-7h-2zm-3 0.313c0 0.277-0.223 0.687-0.5 0.687h-3c-0.278 0-0.5-0.41-0.5-0.687v-8c0-0.277 0.222-0.313 0.5-0.313h3c0.277 0 0.5 0.036 0.5 0.313zm-3-0.313h2v-7h-2zm9 17.313c0 0.277-0.227 0.687-0.5 0.687h-3c-0.274 0-0.5-0.41-0.5-0.687v-8c0-0.277 0.226-0.313 0.5-0.313h3c0.273 0 0.5 0.036 0.5 0.313zm-3-0.313h2v-7h-2zm-3 0.313c0 0.277-0.223 0.687-0.5 0.687h-3c-0.278 0-0.5-0.41-0.5-0.687v-8c0-0.277 0.222-0.313 0.5-0.313h3c0.277 0 0.5 0.036 0.5 0.313zm-3-0.313h2v-7h-2z"></path>
 </g>
</svg>
