<?xml version="1.0"?>

<svg width="68.535" xmlns="http://www.w3.org/2000/svg" viewBox="0 0 68.535 100.56" height="100.56">
 <path d="m45.684 64.156l-8.922 5.992a0.31 0.31 0 0 0 -0.086 0.43c0.062 0.086 0.16 0.137 0.261 0.137 0.06 0 0.118-0.02 0.172-0.055l8.922-5.988c0.14-0.098 0.18-0.29 0.082-0.434a0.312 0.312 0 0 0 -0.43 -0.082zm-4.508 5.344l-7.067 4.773a0.312 0.312 0 0 0 -0.082 0.43c0.059 0.09 0.157 0.137 0.258 0.137a0.296 0.296 0 0 0 0.172 -0.05l7.07-4.774a0.317 0.317 0 0 0 0.082 -0.434 0.313 0.313 0 0 0 -0.433 -0.082zm-6.91-36.117c7 0 12.695-5.692 12.695-12.692-0.001-6.996-5.695-12.691-12.695-12.691s-12.692 5.695-12.692 12.691c0 7 5.692 12.692 12.692 12.692zm0-23.555c5.992 0 10.867 4.875 10.867 10.863 0 5.989-4.875 10.864-10.867 10.864-5.989 0-10.864-4.875-10.864-10.864 0-5.996 4.875-10.863 10.864-10.863zm-16.922 74.29h33.883a0.307 0.307 0 0 0 0.308 -0.31 0.31 0.31 0 0 0 -0.308 -0.312h-33.883a0.31 0.31 0 1 0 0 0.621zm-3.239 3.874c0 0.172 0.141 0.309 0.313 0.309h38.957a0.307 0.307 0 0 0 0.309 -0.309 0.31 0.31 0 0 0 -0.309 -0.312h-38.957a0.313 0.313 0 0 0 -0.313 0.312zm35.418-29.18h-14.303c0.004-0.042 0.011-0.082 0.011-0.128a0.976 0.976 0 0 0 -0.976 -0.973 0.968 0.968 0 0 0 -0.895 0.594 0.953 0.953 0 0 0 -0.078 0.379c0 0.046 0.008 0.086 0.012 0.129h-14.31c-0.851 0-1.547 0.742-1.547 1.652v17.707c0 0.918 0.696 1.656 1.547 1.656h30.54c0.855 0 1.546-0.738 1.546-1.656v-17.707c0-0.91-0.691-1.653-1.547-1.653zm0.618 19.36c0 0.398-0.278 0.726-0.618 0.726h-30.539c-0.34 0-0.613-0.328-0.613-0.726v-17.707a0.81 0.81 0 0 1 0.047 -0.278c0.012-0.035 0.035-0.058 0.05-0.09 0.028-0.046 0.048-0.1 0.083-0.144 0.015-0.016 0.035-0.023 0.05-0.039 0.044-0.043 0.09-0.09 0.145-0.113a0.516 0.516 0 0 1 0.242 -0.059h30.54c0.34 0 0.617 0.328 0.617 0.727v17.703zm3.918 5.297a2.54 2.54 0 0 0 -0.88 -1.692 2.528 2.528 0 0 0 0.887 -1.922v-1.155c3.657-2.844 6.47-5.96 6.47-11.62l-0.013-1.829h-0.136l-0.746-9.52c-0.688-6.949-1.965-19.89-19.29-19.89h-12.162c-17.66 0-18.723 12.96-19.293 19.926l-0.896 11.241v0.07c0 5.652 2.91 8.844 6.445 11.606v1.171c0 0.77 0.348 1.454 0.883 1.922a2.529 2.529 0 0 0 -0.871 1.68l-5.312 6.133a0.645 0.645 0 0 0 -0.153 0.414c0 1.695 0.649 2.555 1.926 2.555h46.27c1.28 0 1.925-0.86 1.925-2.555a0.614 0.614 0 0 0 -0.136 -0.395zm-39.614-25.117v17.964c-2.824-2.418-4.617-4.996-4.617-9.238l0.89-11.168c0.684-8.383 2.395-18.242 17.47-18.242h12.164c15.074 0 16.691 10.355 17.468 18.242l0.875 11.168h0.012c0 4.25-1.809 6.828-4.64 9.25v-17.976a2.556 2.556 0 0 0 -2.555 -2.555h-1.598l-0.258-3.582c0-0.445-0.367-0.8-0.808-0.8a0.795 0.795 0 0 0 -0.793 0.8l0.21 3.582h-28.092l0.215-3.664a0.8 0.8 0 1 0 -1.602 0l-0.262 3.664h-1.527a2.552 2.552 0 0 0 -2.55 2.555zm38.008 0.296v21.102c0 0.7-0.57 1.27-1.27 1.27h-33.866c-0.699 0-1.27-0.57-1.27-1.27v-21.102c0-0.699 0.571-1.265 1.27-1.265h33.868c0.699 0 1.27 0.566 1.27 1.265zm4.3 32.329h-45.4c-0.274 0-0.606 0-0.645-1.043l5.191-6a0.64 0.64 0 0 0 0.149 -0.403c0-0.703 0.57-1.273 1.27-1.273h33.867c0.699 0 1.27 0.57 1.27 1.273 0 0.137 0.05 0.274 0.136 0.383l4.812 6.008c-0.039 1.055-0.375 1.055-0.648 1.055zm-40.518-4.767h35.942c0.168 0 0.308-0.14 0.308-0.313a0.312 0.312 0 0 0 -0.308 -0.308h-35.943a0.31 0.31 0 1 0 0 0.621z" fill="#010101"></path>
</svg>
