<?xml version="1.0"?>

<svg width="79.5" xmlns="http://www.w3.org/2000/svg" viewBox="0 0 79.5 96.9" height="96.9">
 <path d="m31 46.102c2.898 0.199 6 0.398 9.2 0.398 8.698 0 16.902-1 21.902-2.7 0.398-0.1 0.597-0.6 0.5-0.902-0.102-0.398-0.602-0.597-0.903-0.5-4.898 1.602-12.799 2.602-21.398 2.602-3.102 0-6.102-0.102-9-0.398-0.403 0-0.801 0.296-0.801 0.699-0.2 0.398 0.102 0.699 0.5 0.8zm-13.7-2.903c1.9 0.801 4.5 1.403 7.5 1.903h0.098c0.204 0 0.5-0.204 0.5-0.403 0-0.3-0.097-0.5-0.398-0.597-3-0.5-5.5-1.102-7.3-1.801-0.302-0.102-0.5 0-0.598 0.3-0.102 0.2 0 0.5 0.199 0.598zm0-21.398c1.9 0.8 4.5 1.398 7.5 1.898h0.098c0.204 0 0.5-0.199 0.5-0.398 0-0.301-0.097-0.5-0.398-0.602-3-0.5-5.5-1.097-7.3-1.8-0.302-0.098-0.5 0-0.598 0.3-0.204 0.2 0 0.5 0.199 0.602zm13.7 2.898c2.898 0.2 6 0.403 9.2 0.403 8.698 0 16.902-1 21.902-2.704 0.398-0.097 0.597-0.597 0.5-0.898-0.102-0.398-0.602-0.602-0.903-0.5-5 1.602-13 2.5-21.597 2.5-3.102 0-6.102-0.102-9-0.398-0.403 0-0.801 0.296-0.801 0.699 0 0.5 0.3 0.8 0.699 0.898zm-6 40.7c-3-0.5-5.5-1.098-7.3-1.797-0.302-0.102-0.5 0-0.598 0.296-0.102 0.301 0 0.5 0.296 0.602 1.903 0.8 4.5 1.398 7.5 1.898h0.102c0.2 0 0.5-0.199 0.5-0.398 0-0.3-0.2-0.5-0.5-0.602z"></path>
 <path d="m67 77.398v-15.198c0-1.199-0.8-2.199-2.3-3 1.402-0.898 2.3-1.898 2.3-3v-15.399c0-1.2-0.898-2.2-2.398-3.102 1.5-0.898 2.296-1.898 2.296-3.097v-15.204c0-5.199-16.296-7.097-27.296-7.097s-27.302 1.898-27.302 7.097v15.204c0 1.199 0.898 2.199 2.398 3.097-1.5 0.903-2.3 1.903-2.3 3.102v15.199c0 1.2 0.8 2.2 2.3 3-1.398 0.898-2.3 1.898-2.3 3v15.2c0 5.198 16.3 7.1 27.3 7.1 10.904 0.2 27.302-1.697 27.302-6.901zm-52.7-42.698v-15.3c0-1.797 8.7-5.098 25.302-5.098 16.597 0 25.296 3.3 25.296 5.097v15.204c0 0.597-0.898 1.296-2.597 2-0.903 0.398-2 0.699-3.301 1.097-4.3 1.102-10.7 2-19.398 2-8.602 0-15.102-0.898-19.403-2-1.3-0.3-2.398-0.699-3.3-1.097-1.7-0.602-2.598-1.403-2.598-1.903zm0 21.403v-15.303c0-0.602 0.9-1.301 2.598-2 5.704 2.097 15.301 2.898 22.704 2.898 7.296 0 17-0.8 22.699-2.898 1.8 0.699 2.699 1.5 2.699 2v15.2c0 0.602-0.898 1.3-2.5 2-0.898 0.398-2 0.7-3.3 1.102-4.2 1.097-10.802 2.097-19.5 2.097-8.7 0-15.302-0.898-19.5-2.097-1.302-0.301-2.4-0.704-3.302-1.102-1.699-0.602-2.597-1.398-2.597-1.898zm50.7 21.295c0 1.802-8.7 5.102-25.3 5.102-16.598 0-25.4-3.3-25.4-5.102v-15.198c0-0.597 0.9-1.3 2.5-2 5.598 2.102 15.4 3 22.802 3 7.398 0 17.097-0.898 22.796-3 1.704 0.7 2.5 1.403 2.5 2v15.2z"></path>
 <path d="m61.602 63.7c-4.903 1.6-12.903 2.6-21.403 2.6-3.097 0-6.097-0.1-9-0.402-0.398 0-0.8 0.301-0.8 0.704 0 0.398 0.3 0.796 0.703 0.796 2.898 0.204 6 0.403 9.199 0.403 8.699 0 16.898-1 21.898-2.7 0.403-0.101 0.602-0.601 0.5-0.902-0.3-0.398-0.699-0.597-1.097-0.5zm-51.602-5.7c-0.102-0.398-0.602-0.602-1-0.398-0.398 0.097-0.602 0.597-0.398 1l0.296 0.597-0.296 0.602c-0.102 0.398 0 0.8 0.398 1h0.3c0.302 0 0.598-0.2 0.7-0.5 0.102-0.301 0.2-0.5 0.398-0.801a0.84 0.84 0 0 0 0 -0.7c-0.199-0.3-0.296-0.6-0.398-0.8zm-0.398-3v-2.2c0-0.402-0.301-0.8-0.801-0.8s-0.801 0.3-0.801 0.8v2.2c0 0.398 0.3 0.8 0.8 0.8 0.5-0.1 0.802-0.402 0.802-0.8zm0-13.102c0-0.398-0.301-0.796-0.801-0.796s-0.7 0.398-0.7 0.796v2.204c0 0.398 0.297 0.796 0.797 0.796s0.801-0.296 0.801-0.796v-2.204zm0 5.5c0-0.398-0.301-0.796-0.801-0.796s-0.801 0.296-0.801 0.796v2.102c0 0.398 0.3 0.8 0.8 0.8s0.802-0.3 0.802-0.8zm0.398-10.796c-0.2-0.403-0.602-0.602-1-0.403-0.398 0.2-0.602 0.602-0.398 1l0.296 0.602-0.296 0.597c-0.102 0.403 0 0.801 0.398 1h0.3c0.302 0 0.598-0.199 0.7-0.5 0.102-0.296 0.2-0.5 0.398-0.796 0.102-0.204 0.102-0.5 0-0.801-0.199-0.2-0.296-0.403-0.398-0.7zm60.7-5.602c-0.4 0-0.802 0.3-0.802 0.8v2c0 0.4 0.301 0.802 0.801 0.802s0.801-0.301 0.801-0.801v-2c0-0.403-0.398-0.801-0.8-0.801zm0.8-9.5c0-0.398-0.3-0.8-0.8-0.8s-0.802 0.3-0.802 0.8v2c0 0.398 0.301 0.8 0.801 0.8s0.801-0.3 0.801-0.8zm-1.602-2.898c0.102 0.398 0.403 0.597 0.704 0.597h0.097c0.403-0.097 0.7-0.398 0.602-0.898-0.102-0.801-0.403-1.5-0.7-2.2-0.203-0.402-0.703-0.5-1-0.3-0.402 0.199-0.5 0.699-0.3 1 0.3 0.699 0.5 1.199 0.597 1.8zm1.602 8.097c0-0.398-0.3-0.8-0.8-0.8s-0.802 0.3-0.802 0.8v2c0 0.403 0.301 0.801 0.801 0.801s0.801-0.3 0.801-0.8zm-45.5-16.398c0.8-0.102 1.398-0.2 2.102-0.2 0.398 0 0.699-0.402 0.699-0.8 0-0.403-0.403-0.7-0.801-0.7-0.7 0.098-1.398 0.2-2.102 0.2-0.398 0.097-0.699 0.398-0.597 0.8 0 0.399 0.3 0.7 0.699 0.7zm-17.2 9h0.098c0.403 0 0.704-0.301 0.704-0.602 0.097-0.597 0.296-1.097 0.597-1.699 0.2-0.398 0.102-0.8-0.3-1-0.399-0.2-0.797-0.102-1 0.3-0.399 0.7-0.598 1.4-0.7 2.2-0.097 0.3 0.2 0.7 0.602 0.8zm22.2-9.501c0.102 0 0.102 0 0 0 0.7-0.102 1.398-0.102 2.102-0.102 0.398 0 0.699-0.398 0.699-0.8 0-0.399-0.403-0.7-0.801-0.7-0.7 0-1.398 0.102-2.102 0.102-0.398 0-0.699 0.398-0.699 0.8 0.102 0.399 0.5 0.7 0.801 0.7zm-10.102 1.398h0.204c0.699-0.097 1.296-0.3 2-0.398 0.398-0.102 0.699-0.5 0.597-0.903-0.097-0.398-0.5-0.699-0.898-0.597-0.7 0.097-1.403 0.3-2 0.398-0.403 0.102-0.7 0.5-0.602 0.903 0.102 0.398 0.403 0.597 0.7 0.597zm-12.097 13.202c0.398 0 0.8-0.297 0.8-0.797v-2c0-0.403-0.3-0.801-0.8-0.801s-0.801 0.298-0.801 0.798v2c0.102 0.399 0.398 0.797 0.8 0.797zm57.097-10.6c0.602 0.3 1.102 0.699 1.602 1.097 0.102 0.102 0.3 0.204 0.5 0.204s0.398-0.102 0.602-0.301c0.296-0.301 0.199-0.801-0.102-1.102l-1.8-1.198c-0.4-0.2-0.802-0.102-1 0.3-0.302 0.302-0.098 0.802 0.198 1zm-54.398 1.3c0.2 0 0.3-0.101 0.5-0.203 0.5-0.398 1-0.699 1.602-1.097 0.398-0.2 0.5-0.7 0.296-1-0.199-0.403-0.699-0.5-1-0.301-0.699 0.398-1.296 0.8-1.796 1.2-0.301 0.3-0.403 0.698-0.102 1.1 0.102 0.2 0.3 0.302 0.5 0.302zm-2.7 19.5c0.4 0 0.802-0.3 0.802-0.8v-2c0-0.403-0.301-0.801-0.801-0.801s-0.801 0.301-0.801 0.801v2c0.102 0.5 0.398 0.802 0.8 0.802zm0-5.101c0.4 0 0.802-0.3 0.802-0.8v-2c0-0.4-0.301-0.802-0.801-0.802s-0.801 0.303-0.801 0.803v2c0.102 0.5 0.398 0.801 0.8 0.801zm7.2-16.897h0.3c0.598-0.204 1.2-0.403 1.9-0.602 0.402-0.102 0.6-0.5 0.5-0.898-0.098-0.403-0.5-0.602-0.9-0.5-0.698 0.199-1.402 0.398-2 0.699-0.402 0.097-0.6 0.597-0.402 1 0 0.097 0.301 0.3 0.602 0.3zm30.398-2.903c0.704 0 1.301 0.102 2 0.102h0.102c0.398 0 0.7-0.301 0.7-0.7 0-0.402-0.302-0.8-0.7-0.8-0.7-0.102-1.398-0.102-2.102-0.102-0.398 0-0.796 0.301-0.796 0.7 0 0.402 0.296 0.703 0.796 0.8zm10 1.102c0.704 0.097 1.301 0.3 2 0.398h0.204c0.296 0 0.699-0.199 0.699-0.597 0.097-0.403-0.2-0.801-0.602-0.903-0.699-0.097-1.3-0.3-2-0.398-0.398-0.102-0.8 0.199-0.898 0.597 0 0.403 0.199 0.801 0.597 0.903zm-5-0.7c0.704 0.098 1.301 0.2 2 0.2h0.102c0.398 0 0.7-0.301 0.7-0.7 0.1-0.402-0.2-0.8-0.598-0.8-0.704-0.102-1.403-0.2-2.102-0.2-0.398-0.101-0.8 0.297-0.8 0.7 0 0.3 0.3 0.699 0.698 0.8zm9.903 1.797c0.699 0.204 1.3 0.403 1.898 0.602h0.301c0.3 0 0.602-0.2 0.7-0.5 0.1-0.398 0-0.8-0.4-1-0.6-0.2-1.3-0.5-2-0.7-0.402-0.1-0.8 0.098-0.902 0.5-0.097 0.4 0 1 0.403 1.098zm-25.102-2.398h2.102c0.398 0 0.699-0.3 0.699-0.8 0-0.4-0.3-0.7-0.8-0.7h-2.098c-0.403 0-0.704 0.398-0.704 0.8 0 0.4 0.403 0.7 0.801 0.7zm5.102 0h2c0.398 0 0.699-0.3 0.8-0.7 0-0.402-0.3-0.8-0.703-0.8h-2.097c-0.403 0-0.801 0.3-0.801 0.7 0 0.5 0.398 0.8 0.8 0.8zm28.3 29.398c0.098 0.301 0.399 0.5 0.7 0.5 0.097 0 0.199 0 0.3-0.097 0.399-0.2 0.598-0.602 0.399-1l-0.3-0.602 0.3-0.597c0.102-0.403 0-0.801-0.398-1-0.403-0.102-0.801 0-1 0.398-0.102 0.3-0.204 0.5-0.403 0.8-0.097 0.2-0.097 0.5 0 0.802 0.2 0.296 0.301 0.5 0.403 0.796zm1.098 2.204c-0.398 0-0.8 0.296-0.8 0.796v2.204c0 0.398 0.3 0.796 0.8 0.796s0.801-0.296 0.801-0.796v-2.204c0-0.398-0.398-0.796-0.8-0.796zm0 5.5c-0.398 0-0.8 0.296-0.8 0.796v2.102c0 0.398 0.3 0.8 0.8 0.8s0.801-0.3 0.801-0.8v-2.2c0-0.402-0.398-0.698-0.8-0.698zm0 5.5c-0.398 0-0.8 0.296-0.8 0.796v2.204c0 0.398 0.3 0.796 0.8 0.796s0.801-0.296 0.801-0.796v-2.204c0-0.5-0.398-0.796-0.8-0.796zm-1.097 8.198c0.097 0.3 0.398 0.5 0.699 0.5h0.3c0.399-0.102 0.598-0.602 0.399-1l-0.3-0.602 0.3-0.597c0.102-0.403-0.102-0.801-0.398-1a0.944 0.944 0 0 0 -1 0.398c-0.102 0.3-0.204 0.5-0.403 0.8-0.097 0.2-0.097 0.5 0 0.7 0.2 0.3 0.301 0.5 0.403 0.8zm-16.102 26.2c-0.7 0.102-1.3 0.2-2 0.2-0.398 0-0.7 0.402-0.7 0.8s0.4 0.7 0.7 0.7h0.102c0.699-0.098 1.398-0.2 2.097-0.2 0.403-0.102 0.7-0.398 0.602-0.8-0.102-0.4-0.403-0.7-0.801-0.7zm17.2-14c-0.4 0-0.802 0.3-0.802 0.8v2c0 0.4 0.301 0.802 0.801 0.802s0.801-0.301 0.801-0.801v-2c0-0.403-0.398-0.801-0.8-0.801zm-3.2 9.5c-0.5 0.398-1 0.7-1.602 1.102-0.398 0.199-0.5 0.699-0.296 1 0.097 0.199 0.398 0.398 0.699 0.398 0.097 0 0.3 0 0.398-0.102 0.701-0.398 1.301-0.796 1.801-1.198 0.3-0.3 0.398-0.699 0.102-1.097-0.301-0.301-0.704-0.403-1.102-0.102zm3.2-19.7c-0.4 0-0.802 0.302-0.802 0.802v2c0 0.398 0.301 0.796 0.801 0.796s0.801-0.296 0.801-0.796v-2c0-0.5-0.398-0.801-0.8-0.801zm0.1 15.302c-0.402-0.102-0.8 0.199-0.902 0.597-0.097 0.602-0.296 1.102-0.597 1.7-0.2 0.402-0.102 0.8 0.3 1 0.098 0.101 0.2 0.101 0.399 0.101 0.3 0 0.5-0.102 0.7-0.398 0.402-0.704 0.6-1.403 0.698-2.204 0.102-0.296-0.199-0.699-0.597-0.796zm-0.1-10.204c-0.4 0-0.802 0.301-0.802 0.801v2c0 0.403 0.301 0.801 0.801 0.801s0.801-0.3 0.801-0.8v-2c0-0.4-0.398-0.802-0.8-0.802zm-7.4 16.903c-0.6 0.199-1.198 0.398-1.902 0.597-0.398 0.102-0.597 0.5-0.5 0.903 0.102 0.3 0.403 0.5 0.704 0.5h0.199c0.699-0.2 1.398-0.403 2-0.7 0.398-0.101 0.597-0.601 0.398-1-0.097-0.3-0.5-0.5-0.898-0.3zm-4.8 1.398c-0.602 0.102-1.3 0.301-2 0.403-0.398 0.097-0.7 0.5-0.602 0.898 0.102 0.398 0.403 0.602 0.704 0.602h0.097c0.7-0.102 1.403-0.301 2-0.403 0.403-0.097 0.7-0.5 0.602-0.898 0-0.403-0.403-0.7-0.801-0.602zm-25.3 1.5c-0.7 0-1.302-0.097-2-0.097-0.4 0-0.802 0.296-0.802 0.699 0 0.398 0.301 0.8 0.704 0.8 0.699 0.098 1.398 0.098 2.097 0.098 0.403 0 0.7-0.3 0.7-0.699 0-0.398-0.297-0.8-0.7-0.8zm-19.5-4.097c-0.598-0.301-1.098-0.704-1.598-1.102-0.301-0.3-0.801-0.2-1.102 0.102-0.3 0.296-0.2 0.796 0.102 1.097 0.5 0.403 1.097 0.801 1.796 1.2 0.102 0.101 0.204 0.101 0.403 0.101 0.3 0 0.5-0.102 0.699-0.398 0.102-0.403 0-0.801-0.3-1zm34.698 4c-0.699 0.097-1.398 0.097-2 0.097-0.398 0-0.699 0.403-0.699 0.801s0.403 0.7 0.7 0.7c0.703 0 1.402-0.098 2.101-0.098 0.398 0 0.7-0.403 0.7-0.801 0-0.5-0.302-0.801-0.802-0.7zm-39.5-11c0.403 0 0.801-0.301 0.801-0.801v-2c0-0.403-0.3-0.801-0.8-0.801s-0.797 0.3-0.797 0.8v2c0 0.4 0.398 0.802 0.796 0.802zm0-8.704c-0.398 0-0.796 0.301-0.796 0.801v2c0 0.403 0.296 0.801 0.796 0.801s0.801-0.3 0.801-0.8v-2c-0.097-0.4-0.398-0.802-0.8-0.802zm0.704-4.296c0-0.403-0.301-0.801-0.801-0.801s-0.801 0.299-0.801 0.799v2c0 0.399 0.3 0.797 0.8 0.797s0.802-0.296 0.802-0.796zm0.097 15.198c-0.097-0.403-0.398-0.7-0.898-0.602-0.403 0.102-0.7 0.403-0.602 0.903 0.102 0.796 0.403 1.5 0.7 2.199 0.101 0.199 0.402 0.398 0.703 0.398 0.097 0 0.199 0 0.398-0.097 0.398-0.204 0.5-0.704 0.3-1-0.3-0.704-0.5-1.301-0.6-1.801zm33.7 9h-2c-0.399 0-0.7 0.3-0.7 0.8 0 0.399 0.301 0.7 0.801 0.7h2.102c0.398 0 0.699-0.403 0.699-0.801-0.2-0.398-0.5-0.7-0.903-0.7zm-5.098 0.097h-2c-0.403 0-0.801 0.301-0.801 0.704 0 0.398 0.3 0.796 0.7 0.796h2.1c0.4 0 0.7-0.296 0.802-0.699-0.102-0.5-0.403-0.8-0.801-0.8zm-20.102-2.5c-0.699-0.199-1.3-0.398-1.898-0.597a0.944 0.944 0 0 0 -1 0.398c-0.2 0.301 0 0.801 0.398 1 0.602 0.2 1.301 0.5 2 0.7h0.2c0.3 0 0.601-0.2 0.703-0.5 0.199-0.399 0-0.797-0.403-1zm9.903 1.903c-0.704-0.102-1.301-0.2-2-0.2-0.403-0.101-0.801 0.2-0.801 0.598-0.102 0.403 0.199 0.801 0.597 0.801 0.704 0.102 1.403 0.2 2.102 0.2h0.102c0.398 0 0.699-0.302 0.699-0.7 0-0.3-0.301-0.7-0.7-0.7zm-5-0.7c-0.704-0.101-1.301-0.3-2-0.402-0.403-0.097-0.801 0.2-0.903 0.602-0.097 0.398 0.2 0.8 0.602 0.898 0.699 0.102 1.3 0.301 2 0.403h0.097c0.403 0 0.704-0.301 0.704-0.602 0.199-0.5-0.102-0.8-0.5-0.898z"></path>
</svg>
