<?xml version="1.0"?>

<svg width="88.921" xmlns="http://www.w3.org/2000/svg" viewBox="0 0 88.921152 112.243736" height="112.24">
 <path d="m44.441 8c-14.644 0-36.441 2.52-36.441 9.46v20.325c0 1.602 1.18 2.969 3.14 4.121-1.945 1.149-3.109 2.508-3.109 4.102v20.328c0 1.574 1.13 2.918 3.035 4.059-1.906 1.14-3.035 2.484-3.035 4.062v20.324c0 6.942 21.797 9.461 36.45 9.461 14.644 0 36.44-2.52 36.44-9.46v-20.326c0-1.578-1.124-2.922-3.03-4.062 1.906-1.141 3.035-2.485 3.03-4.06v-20.321c0-1.602-1.171-2.969-3.14-4.121 1.946-1.153 3.106-2.508 3.106-4.102v-20.329c0-6.941-21.793-9.461-36.447-9.461zm0 2.668c22.176 0 33.778 4.422 33.778 6.793v20.324c0 0.758-1.188 1.719-3.516 2.68-1.164 0.488-2.644 0.972-4.39 1.43-5.672 1.484-14.325 2.687-25.872 2.687-11.52 0-20.16-1.2-25.828-2.684-1.75-0.453-3.222-0.933-4.394-1.418-2.348-0.964-3.551-1.937-3.551-2.69v-20.33c0-2.37 11.598-6.792 33.773-6.792zm-29.53 8.61a0.66 0.66 0 0 0 -0.598 0.425 0.648 0.648 0 0 0 0.011 0.512c0.07 0.16 0.203 0.289 0.367 0.351 2.575 1 5.961 1.848 10.059 2.52 0.035 0.008 0.07 0.012 0.11 0.012v0.004a0.666 0.666 0 0 0 0.656 -0.614 0.667 0.667 0 0 0 -0.547 -0.715c-3.961-0.648-7.344-1.496-9.793-2.449a0.606 0.606 0 0 0 -0.266 -0.047zm59.128 0.156a0.971 0.971 0 0 0 -0.394 0.046c-6.473 2.157-17.133 3.442-28.524 3.442-4.129 0-8.184-0.168-12.055-0.492a1.011 1.011 0 0 0 -1.078 0.914 1.003 1.003 0 0 0 0.91 1.078c3.922 0.332 8.04 0.5 12.223 0.5 11.59 0 22.488-1.324 29.152-3.543a0.998 0.998 0 1 0 -0.234 -1.945zm0.668 23.882c2.344 0.965 3.555 1.938 3.555 2.696v20.324c0 0.746-1.149 1.691-3.399 2.637-1.148 0.488-2.62 0.965-4.34 1.422-5.664 1.511-14.37 2.734-26.043 2.734-11.675 0-20.378-1.223-26.046-2.734-1.723-0.457-3.188-0.934-4.332-1.422-2.25-0.946-3.399-1.891-3.399-2.637v-20.32c0-0.758 1.192-1.723 3.516-2.688 7.547 2.797 20.468 3.922 30.23 3.922 9.77 0 22.719-1.125 30.258-3.934zm-59.758 4.512a0.667 0.667 0 0 0 -0.222 1.285c2.574 1.008 5.96 1.856 10.054 2.528 0.035 0.007 0.078 0.004 0.11 0.004a0.663 0.663 0 0 0 0.656 -0.56 0.68 0.68 0 0 0 -0.113 -0.495 0.662 0.662 0 0 0 -0.434 -0.266c-3.953-0.648-7.34-1.496-9.793-2.449a0.734 0.734 0 0 0 -0.258 -0.047zm59.121 0.156a0.971 0.971 0 0 0 -0.394 0.047c-6.473 2.157-17.137 3.442-28.524 3.442-4.144 0-8.195-0.168-12.047-0.493a1.008 1.008 0 0 0 -1.085 0.91c-0.04 0.551 0.367 1.032 0.914 1.083 3.91 0.336 8.023 0.5 12.218 0.5 11.598 0 22.496-1.32 29.157-3.54a1 1 0 0 0 0.675 -1.074 0.992 0.992 0 0 0 -0.914 -0.875zm-59.968 23.832c7.52 2.84 20.55 3.98 30.378 3.98 9.825 0 22.86-1.136 30.383-3.98 2.246 0.95 3.399 1.899 3.399 2.641v20.324c0 2.371-11.606 6.797-33.782 6.797-22.18 0-33.773-4.426-33.773-6.797v-20.324c0-0.742 1.145-1.691 3.395-2.64zm0.847 4.454a0.668 0.668 0 0 0 -0.223 1.293c2.57 1 5.958 1.847 10.055 2.519a0.667 0.667 0 0 0 0.653 -1.043 0.652 0.652 0 0 0 -0.434 -0.27c-3.957-0.648-7.344-1.5-9.793-2.453a0.734 0.734 0 0 0 -0.258 -0.046zm59.121 0.156a1.128 1.128 0 0 0 -0.394 0.047c-6.473 2.156-17.137 3.441-28.524 3.441-4.129 0-8.18-0.164-12.047-0.492a1.013 1.013 0 0 0 -1.085 0.91 1.01 1.01 0 0 0 0.914 1.086c3.925 0.332 8.035 0.496 12.218 0.496 11.59 0 22.489-1.32 29.157-3.539 0.445-0.156 0.726-0.602 0.668-1.07a0.998 0.998 0 0 0 -0.907 -0.875z"></path>
</svg>
