<?xml version="1.0"?>

<svg width="99.7" xmlns="http://www.w3.org/2000/svg" viewBox="0 0 99.7 48.4" height="48.4">
 <path d="m90.602 40.398h-81.602c-0.602 0-1-0.398-1-1v-23.398c0-0.602 0.398-1 1-1h81.7c0.6 0 1 0.398 1 1v23.398c-0.098 0.5-0.5 1-1.098 1zm-80.602-2h79.7v-21.398h-79.7z"></path>
 <path d="m9 17c-0.398 0-0.7-0.2-0.898-0.602-0.204-0.5-0.102-1.097 0.398-1.296l13.8-7c0.099-0.102 0.303-0.102 0.4-0.102h54c0.198 0 0.3 0 0.402 0.102l13.796 7c0.5 0.199 0.704 0.796 0.403 1.296-0.2 0.5-0.801 0.704-1.301 0.403l-13.602-6.903h-53.398l-13.602 7c-0.097 0.102-0.296 0.102-0.398 0.102zm81.602 14.2h-9.802c-1.903 0-3.5-1.598-3.5-3.5 0-1.9 1.597-3.5 3.5-3.5h9.8c0.297 0 0.5 0.198 0.5 0.5 0 0.3-0.203 0.5-0.5 0.5h-9.8a2.475 2.475 0 0 0 -2.5 2.5c0 1.402 1.097 2.5 2.5 2.5h9.8c0.297 0 0.5 0.198 0.5 0.5 0 0.198-0.203 0.5-0.5 0.5zm-75.704-2.098c-0.398 0-0.699-0.204-1-0.403-0.199-0.199-0.398-0.597-0.398-1 0-0.398 0.2-0.699 0.398-1 0.5-0.5 1.403-0.5 1.903 0 0.199 0.301 0.398 0.602 0.398 1 0 0.403-0.199 0.7-0.398 1-0.2 0.2-0.602 0.403-0.903 0.403zm50.403-1.403c0-0.8 0.597-1.398 1.398-1.398s1.403 0.597 1.403 1.398-0.602 1.403-1.403 1.403c-0.8 0-1.398-0.602-1.398-1.403zm-5.7 0c0-0.8 0.598-1.398 1.399-1.398 0.8 0 1.398 0.597 1.398 1.398s-0.597 1.403-1.398 1.403c-0.8 0-1.398-0.602-1.398-1.403zm-5.8 0c0-0.8 0.597-1.398 1.398-1.398s1.403 0.597 1.403 1.398-0.602 1.403-1.403 1.403c-0.8 0-1.398-0.602-1.398-1.403zm-5.7 0c0-0.8 0.598-1.398 1.399-1.398 0.8 0 1.398 0.597 1.398 1.398s-0.597 1.403-1.398 1.403c-0.8 0-1.398-0.602-1.398-1.403zm-5.8 0c0-0.8 0.597-1.398 1.398-1.398s1.403 0.597 1.403 1.398-0.602 1.403-1.403 1.403c-0.8 0-1.398-0.602-1.398-1.403zm-5.801 0c0-0.8 0.602-1.398 1.398-1.398 0.801 0 1.403 0.597 1.403 1.398s-0.602 1.403-1.403 1.403c-0.699 0-1.398-0.602-1.398-1.403zm-5.7 0c0-0.8 0.598-1.398 1.4-1.398 0.8 0 1.402 0.597 1.402 1.398s-0.602 1.403-1.403 1.403c-0.8 0-1.398-0.602-1.398-1.403zm-5.8 0c0-0.8 0.602-1.398 1.398-1.398 0.801 0 1.403 0.597 1.403 1.398s-0.602 1.403-1.403 1.403c-0.796 0-1.398-0.602-1.398-1.403zm-5.7 0c0-0.8 0.598-1.398 1.4-1.398 0.8 0 1.402 0.597 1.402 1.398s-0.602 1.403-1.403 1.403c-0.8 0-1.398-0.602-1.398-1.403zm53.098 1.403c-0.398 0-0.699-0.204-1-0.403-0.199-0.199-0.398-0.597-0.398-1 0-0.398 0.102-0.699 0.398-1 0.5-0.5 1.403-0.5 1.903 0 0.199 0.301 0.398 0.602 0.398 1 0 0.403-0.097 0.7-0.398 1-0.102 0.2-0.5 0.403-0.903 0.403zm-57.5-5.602c-0.398 0-0.699-0.2-1-0.398a1.541 1.541 0 0 1 -0.398 -1c0-0.403 0.2-0.704 0.398-1 0.5-0.5 1.403-0.5 1.903 0 0.199 0.296 0.398 0.597 0.398 1 0 0.398-0.199 0.699-0.398 1-0.2 0.199-0.602 0.398-0.903 0.398zm50.403-1.398c0-0.801 0.597-1.403 1.398-1.403s1.403 0.602 1.403 1.403c0 0.796-0.602 1.398-1.403 1.398-0.8 0-1.398-0.602-1.398-1.398zm-5.7 0c0-0.801 0.598-1.403 1.399-1.403 0.8 0 1.398 0.602 1.398 1.403 0 0.796-0.597 1.398-1.398 1.398-0.8 0-1.398-0.602-1.398-1.398zm-5.8 0c0-0.801 0.597-1.403 1.398-1.403s1.403 0.602 1.403 1.403c0 0.796-0.602 1.398-1.403 1.398-0.8 0-1.398-0.602-1.398-1.398zm-5.7 0c0-0.801 0.598-1.403 1.399-1.403 0.8 0 1.398 0.602 1.398 1.403 0 0.796-0.597 1.398-1.398 1.398-0.8 0-1.398-0.602-1.398-1.398zm-5.8 0c0-0.801 0.597-1.403 1.398-1.403s1.403 0.602 1.403 1.403c0 0.796-0.602 1.398-1.403 1.398-0.8 0-1.398-0.602-1.398-1.398zm-5.801 0c0-0.801 0.602-1.403 1.398-1.403 0.801 0 1.403 0.602 1.403 1.403 0 0.796-0.602 1.398-1.403 1.398-0.699 0-1.398-0.602-1.398-1.398zm-5.7 0c0-0.801 0.598-1.403 1.4-1.403 0.8 0 1.402 0.602 1.402 1.403 0 0.796-0.602 1.398-1.403 1.398-0.8 0-1.398-0.602-1.398-1.398zm-5.8 0c0-0.801 0.602-1.403 1.398-1.403 0.801 0 1.403 0.602 1.403 1.403 0 0.796-0.602 1.398-1.403 1.398a1.368 1.368 0 0 1 -1.398 -1.398zm-5.7 0c0-0.801 0.598-1.403 1.4-1.403 0.8 0 1.402 0.602 1.402 1.403 0 0.796-0.602 1.398-1.403 1.398-0.8 0-1.398-0.602-1.398-1.398zm53.099 1.398c-0.398 0-0.699-0.2-1-0.398a1.541 1.541 0 0 1 -0.398 -1c0-0.403 0.102-0.704 0.398-1 0.5-0.5 1.403-0.5 1.903 0 0.199 0.296 0.398 0.597 0.398 1 0 0.398-0.097 0.699-0.398 1-0.102 0.199-0.5 0.398-0.903 0.398zm-57.5 11.2c-0.398 0-0.699-0.2-1-0.4-0.199-0.3-0.398-0.6-0.398-1 0-0.402 0.2-0.698 0.398-1 0.5-0.5 1.403-0.5 1.903 0 0.199 0.302 0.398 0.598 0.398 1 0 0.4-0.199 0.7-0.398 1-0.2 0.2-0.602 0.4-0.903 0.4zm50.403-1.4c0-0.8 0.597-1.402 1.398-1.402s1.403 0.602 1.403 1.403c0 0.8-0.602 1.398-1.403 1.398-0.8 0-1.398-0.699-1.398-1.398zm-5.7 0c0-0.8 0.598-1.402 1.399-1.402 0.8 0 1.398 0.602 1.398 1.403 0 0.8-0.597 1.398-1.398 1.398-0.8 0-1.398-0.699-1.398-1.398zm-5.8 0c0-0.8 0.597-1.402 1.398-1.402s1.403 0.602 1.403 1.403c0 0.8-0.602 1.398-1.403 1.398-0.8 0-1.398-0.699-1.398-1.398zm-5.7 0c0-0.8 0.598-1.402 1.399-1.402 0.8 0 1.398 0.602 1.398 1.403 0 0.8-0.597 1.398-1.398 1.398-0.8 0-1.398-0.699-1.398-1.398zm-5.8 0c0-0.8 0.597-1.402 1.398-1.402s1.403 0.602 1.403 1.403c0 0.8-0.602 1.398-1.403 1.398-0.8 0-1.398-0.699-1.398-1.398zm-5.801 0c0-0.8 0.602-1.402 1.398-1.402 0.801 0 1.403 0.602 1.403 1.403 0 0.8-0.602 1.398-1.403 1.398-0.699 0-1.398-0.699-1.398-1.398zm-5.7 0c0-0.8 0.598-1.402 1.4-1.402 0.8 0 1.402 0.602 1.402 1.403 0 0.8-0.602 1.398-1.403 1.398-0.8 0-1.398-0.699-1.398-1.398zm-5.8 0c0-0.8 0.602-1.402 1.398-1.402 0.801 0 1.403 0.602 1.403 1.403 0 0.8-0.602 1.398-1.403 1.398-0.797 0.001-1.399-0.699-1.399-1.398zm-5.7 0c0-0.8 0.598-1.402 1.4-1.402 0.8 0 1.402 0.602 1.402 1.403 0 0.8-0.602 1.398-1.403 1.398-0.8 0-1.398-0.699-1.398-1.398zm53.098 1.4c-0.398 0-0.699-0.2-1-0.4-0.199-0.3-0.398-0.6-0.398-1 0-0.402 0.102-0.698 0.398-1 0.5-0.5 1.403-0.5 1.903 0 0.199 0.2 0.398 0.598 0.398 1 0 0.4-0.097 0.7-0.398 1-0.102 0.2-0.5 0.4-0.903 0.4z"></path>
</svg>
