<?xml version="1.0"?>
<!--?xml version="1.0" encoding="utf-8"?-->
<!-- Generator: Adobe Illustrator 19.0.1, SVG Export Plug-In . SVG Version: 6.00 Build 0)  -->
<svg version="1.1" id="Layer_1" xmlns="http://www.w3.org/2000/svg" xmlns:xlink="http://www.w3.org/1999/xlink" x="0px" y="0px" width="363px" height="73.4px" viewBox="-1426 1213.4 363 73.4" style="enable-background:new -1426 1213.4 363 73.4;" xml:space="preserve">
<g>
	<path d="M-1404.8,1245l-2.7-5.7h-1.9v5.7h-4.6v-16.8h7.5c1,0,1.9,0.1,2.7,0.3c0.8,0.2,1.5,0.5,2.1,0.9c0.6,0.4,1,1,1.3,1.7
		c0.3,0.7,0.5,1.5,0.5,2.5c0,1.3-0.3,2.3-0.8,3.1c-0.5,0.8-1.3,1.4-2.2,1.8l3.4,6.4H-1404.8z M-1405,1232.5
		c-0.3-0.3-0.8-0.5-1.6-0.5h-2.8v3.7h2.8c0.8,0,1.3-0.2,1.6-0.5c0.3-0.3,0.5-0.8,0.5-1.4C-1404.6,1233.2-1404.7,1232.8-1405,1232.5z
		"></path>
	<path d="M-1396.1,1245v-16.8h12.9v3.9h-8.3v2.3h5v3.8h-5v2.9h8.4v3.9H-1396.1z"></path>
	<path d="M-1365.4,1240.5c-0.4,1.1-1,2-1.7,2.6c-0.8,0.7-1.7,1.1-2.8,1.4c-1.1,0.3-2.4,0.4-3.9,0.4h-5.4v-16.8h5.9
		c1.3,0,2.5,0.1,3.6,0.4c1.1,0.3,2,0.7,2.7,1.4c0.7,0.6,1.3,1.5,1.7,2.6c0.4,1.1,0.6,2.4,0.6,4S-1365,1239.4-1365.4,1240.5z
		 M-1369.8,1234.6c-0.1-0.6-0.4-1-0.7-1.4s-0.7-0.6-1.2-0.8c-0.5-0.2-1.1-0.3-1.8-0.3h-1.2v8.8h1c0.7,0,1.3-0.1,1.8-0.2
		c0.5-0.2,0.9-0.4,1.3-0.7s0.6-0.8,0.7-1.4c0.1-0.6,0.2-1.3,0.2-2.1C-1369.6,1235.8-1369.7,1235.1-1369.8,1234.6z"></path>
	<path d="M-1342.7,1245v-6.6h-5.2v6.6h-4.8v-16.8h4.8v6.1h5.2v-6.1h4.8v16.8H-1342.7z"></path>
	<path d="M-1323,1245l-0.9-3h-5l-0.9,3h-5l6.1-16.8h4.7l6.1,16.8H-1323z M-1325.3,1237.2c-0.1-0.5-0.3-1-0.4-1.4
		c-0.1-0.4-0.2-0.8-0.3-1.1s-0.2-0.6-0.2-0.9c-0.1-0.3-0.1-0.5-0.2-0.8c0,0.3-0.1,0.6-0.2,0.8c-0.1,0.3-0.1,0.6-0.2,0.9
		c-0.1,0.3-0.2,0.7-0.3,1.1c-0.1,0.4-0.2,0.9-0.4,1.4l-0.3,1.1h2.8L-1325.3,1237.2z"></path>
	<path d="M-1308.4,1232.2v12.7h-4.7v-12.7h-4.7v-4.1h14.1v4.1H-1308.4z"></path>
	<path d="M-1297.5,1231.1c-0.1,0.3-0.3,0.5-0.5,0.7c-0.2,0.2-0.4,0.3-0.7,0.5c-0.3,0.1-0.6,0.2-0.9,0.2s-0.6-0.1-0.9-0.2
		c-0.3-0.1-0.5-0.3-0.7-0.5c-0.2-0.2-0.3-0.4-0.5-0.7c-0.1-0.3-0.2-0.5-0.2-0.9c0-0.3,0.1-0.6,0.2-0.9s0.3-0.5,0.5-0.7
		c0.2-0.2,0.4-0.3,0.7-0.5c0.3-0.1,0.6-0.2,0.9-0.2c0.3,0,0.6,0.1,0.9,0.2c0.3,0.1,0.5,0.3,0.7,0.5c0.2,0.2,0.3,0.4,0.5,0.7
		c0.1,0.3,0.2,0.5,0.2,0.9C-1297.3,1230.5-1297.4,1230.8-1297.5,1231.1z M-1297.8,1229.5c-0.1-0.2-0.2-0.4-0.4-0.6
		c-0.2-0.2-0.4-0.3-0.6-0.4c-0.2-0.1-0.5-0.1-0.7-0.1c-0.3,0-0.5,0-0.7,0.1c-0.2,0.1-0.4,0.2-0.6,0.4c-0.2,0.2-0.3,0.4-0.4,0.6
		c-0.1,0.2-0.1,0.5-0.1,0.7c0,0.3,0,0.5,0.1,0.7c0.1,0.2,0.2,0.4,0.4,0.6c0.2,0.2,0.4,0.3,0.6,0.4c0.2,0.1,0.5,0.1,0.7,0.1
		c0.3,0,0.5,0,0.7-0.1c0.2-0.1,0.4-0.2,0.6-0.4c0.2-0.2,0.3-0.4,0.4-0.6c0.1-0.2,0.1-0.5,0.1-0.7
		C-1297.7,1230-1297.7,1229.7-1297.8,1229.5z M-1298.6,1230.2c-0.1,0.1-0.2,0.2-0.4,0.2l0.5,1h-0.5l-0.5-0.9h-0.5v0.9h-0.4v-2.4h1
		c0.1,0,0.2,0,0.3,0s0.2,0.1,0.2,0.1c0.1,0.1,0.1,0.1,0.2,0.2c0,0.1,0.1,0.2,0.1,0.3C-1298.5,1229.9-1298.5,1230.1-1298.6,1230.2z
		 M-1299,1229.5c-0.1-0.1-0.2-0.1-0.3-0.1h-0.6v0.7h0.6c0.1,0,0.2,0,0.3-0.1c0.1-0.1,0.1-0.1,0.1-0.3
		C-1298.9,1229.6-1298.9,1229.5-1299,1229.5z"></path>
	<path d="M-1277.5,1241.1c-0.3,0.9-0.7,1.6-1.3,2.2c-0.6,0.6-1.3,1.1-2.2,1.4c-0.9,0.3-1.9,0.5-3.1,0.5c-1.1,0-2.1-0.1-2.9-0.4
		c-0.8-0.3-1.5-0.7-2.1-1.2c-0.6-0.5-1.1-1.1-1.4-1.8c-0.4-0.7-0.7-1.5-0.9-2.4l4.6-1.2c0.3,1,0.6,1.7,1,2.2c0.4,0.5,1,0.7,1.8,0.7
		c0.8,0,1.3-0.2,1.7-0.7c0.4-0.5,0.6-1.1,0.6-1.9v-10.3h4.8v10C-1277.1,1239.2-1277.2,1240.2-1277.5,1241.1z"></path>
	<path d="M-1260.2,1243.6c-1,0.9-2.6,1.4-4.8,1.4h-8.1v-16.8h8.1c2.1,0,3.6,0.4,4.5,1.1c0.9,0.8,1.4,1.8,1.4,3.2
		c0,0.9-0.2,1.6-0.6,2.1c-0.4,0.5-0.9,0.9-1.4,1.2c0.8,0.3,1.4,0.8,1.8,1.4c0.4,0.6,0.6,1.4,0.6,2.3
		C-1258.6,1241.3-1259.2,1242.6-1260.2,1243.6z M-1263.9,1232.2c-0.2-0.3-0.6-0.4-1.2-0.4h-3.5v2.7h3.5c0.5,0,0.9-0.1,1.1-0.4
		c0.2-0.2,0.3-0.6,0.3-1C-1263.6,1232.8-1263.7,1232.5-1263.9,1232.2z M-1263.6,1238.5c-0.3-0.3-0.7-0.4-1.2-0.4h-3.7v3.3h3.7
		c0.6,0,1-0.2,1.3-0.5c0.3-0.3,0.4-0.7,0.4-1.2C-1263.2,1239.2-1263.3,1238.8-1263.6,1238.5z"></path>
	<path d="M-1241,1240.3c-0.4,1.1-0.9,2-1.6,2.7c-0.7,0.7-1.5,1.3-2.5,1.7c-1,0.4-2,0.6-3.1,0.6s-2.2-0.2-3.1-0.6
		c-1-0.4-1.8-0.9-2.5-1.7s-1.2-1.6-1.6-2.7c-0.4-1.1-0.6-2.3-0.6-3.7c0-1.4,0.2-2.6,0.6-3.7c0.4-1.1,0.9-2,1.6-2.7
		c0.7-0.7,1.5-1.3,2.5-1.7c1-0.4,2-0.6,3.1-0.6c1.1,0,2.2,0.2,3.1,0.6c1,0.4,1.8,0.9,2.4,1.7c0.7,0.7,1.2,1.6,1.6,2.7
		c0.4,1.1,0.6,2.3,0.6,3.7C-1240.4,1237.9-1240.6,1239.2-1241,1240.3z M-1246,1233.1c-0.5-0.8-1.3-1.2-2.2-1.2s-1.7,0.4-2.2,1.2
		c-0.5,0.8-0.8,1.9-0.8,3.4s0.3,2.7,0.8,3.5c0.5,0.8,1.3,1.2,2.2,1.2s1.7-0.4,2.2-1.2c0.5-0.8,0.8-1.9,0.8-3.4
		C-1245.2,1235.1-1245.5,1233.9-1246,1233.1z"></path>
	<path d="M-1224.5,1242.3c-0.3,0.7-0.8,1.2-1.4,1.7c-0.6,0.4-1.3,0.8-2.2,1c-0.8,0.2-1.8,0.3-2.8,0.3c-1.4,0-2.7-0.2-3.9-0.6
		c-1.2-0.4-2.3-0.9-3.2-1.5l2.3-3.6c0.3,0.2,0.7,0.4,1.1,0.6c0.4,0.2,0.8,0.4,1.3,0.5c0.4,0.2,0.9,0.3,1.3,0.4
		c0.4,0.1,0.9,0.1,1.2,0.1c0.8,0,1.4-0.1,1.7-0.2c0.3-0.2,0.5-0.4,0.5-0.8c0-0.2,0-0.3-0.1-0.4c-0.1-0.1-0.2-0.3-0.5-0.4
		c-0.2-0.1-0.5-0.2-0.9-0.4c-0.4-0.1-0.8-0.2-1.4-0.4c-1-0.2-1.9-0.5-2.6-0.8s-1.4-0.6-1.9-1c-0.5-0.4-0.9-0.9-1.1-1.5
		c-0.2-0.6-0.4-1.3-0.4-2.1c0-0.8,0.2-1.5,0.5-2.2c0.3-0.7,0.8-1.2,1.3-1.7c0.6-0.5,1.3-0.8,2.1-1.1c0.8-0.3,1.7-0.4,2.7-0.4
		c1.4,0,2.7,0.2,3.8,0.5c1.1,0.3,2,0.8,2.9,1.4l-2.3,3.6c-0.8-0.5-1.5-0.9-2.3-1.2c-0.8-0.3-1.6-0.4-2.4-0.4c-0.7,0-1.2,0.1-1.4,0.3
		s-0.3,0.4-0.3,0.7c0,0.2,0,0.3,0.1,0.4c0.1,0.1,0.2,0.2,0.4,0.3s0.5,0.2,0.8,0.3c0.4,0.1,0.8,0.2,1.3,0.3c1.1,0.3,2,0.5,2.7,0.8
		c0.8,0.3,1.4,0.7,1.9,1.1c0.5,0.4,0.9,0.9,1.1,1.5c0.2,0.6,0.4,1.3,0.4,2C-1224,1240.8-1224.1,1241.6-1224.5,1242.3z"></path>
	<path d="M-1207.8,1242.3c-0.3,0.7-0.8,1.2-1.4,1.7c-0.6,0.4-1.3,0.8-2.2,1c-0.8,0.2-1.8,0.3-2.8,0.3c-1.4,0-2.7-0.2-3.9-0.6
		c-1.2-0.4-2.3-0.9-3.2-1.5l2.3-3.6c0.3,0.2,0.7,0.4,1.1,0.6c0.4,0.2,0.8,0.4,1.3,0.5c0.4,0.2,0.9,0.3,1.3,0.4
		c0.4,0.1,0.9,0.1,1.2,0.1c0.8,0,1.4-0.1,1.7-0.2c0.3-0.2,0.5-0.4,0.5-0.8c0-0.2,0-0.3-0.1-0.4c-0.1-0.1-0.2-0.3-0.5-0.4
		c-0.2-0.1-0.5-0.2-0.9-0.4c-0.4-0.1-0.8-0.2-1.4-0.4c-1-0.2-1.9-0.5-2.6-0.8s-1.4-0.6-1.9-1c-0.5-0.4-0.9-0.9-1.1-1.5
		c-0.2-0.6-0.4-1.3-0.4-2.1c0-0.8,0.2-1.5,0.5-2.2c0.3-0.7,0.8-1.2,1.3-1.7c0.6-0.5,1.3-0.8,2.1-1.1c0.8-0.3,1.7-0.4,2.7-0.4
		c1.4,0,2.7,0.2,3.8,0.5c1.1,0.3,2,0.8,2.9,1.4l-2.3,3.6c-0.8-0.5-1.5-0.9-2.3-1.2c-0.8-0.3-1.6-0.4-2.4-0.4c-0.7,0-1.2,0.1-1.4,0.3
		s-0.3,0.4-0.3,0.7c0,0.2,0,0.3,0.1,0.4c0.1,0.1,0.2,0.2,0.4,0.3s0.5,0.2,0.8,0.3c0.4,0.1,0.8,0.2,1.3,0.3c1.1,0.3,2,0.5,2.7,0.8
		c0.8,0.3,1.4,0.7,1.9,1.1c0.5,0.4,0.9,0.9,1.1,1.5c0.2,0.6,0.4,1.3,0.4,2C-1207.3,1240.8-1207.5,1241.6-1207.8,1242.3z"></path>
	<path d="M-1200.8,1231.1c-0.1,0.3-0.3,0.5-0.5,0.7c-0.2,0.2-0.4,0.3-0.7,0.5c-0.3,0.1-0.5,0.2-0.9,0.2s-0.6-0.1-0.9-0.2
		c-0.3-0.1-0.5-0.3-0.7-0.5c-0.2-0.2-0.3-0.4-0.5-0.7c-0.1-0.3-0.2-0.5-0.2-0.9c0-0.3,0.1-0.6,0.2-0.9c0.1-0.3,0.3-0.5,0.5-0.7
		s0.4-0.3,0.7-0.5c0.3-0.1,0.6-0.2,0.9-0.2c0.3,0,0.6,0.1,0.9,0.2c0.3,0.1,0.5,0.3,0.7,0.5s0.3,0.4,0.5,0.7c0.1,0.3,0.2,0.5,0.2,0.9
		C-1200.7,1230.5-1200.7,1230.8-1200.8,1231.1z M-1201.2,1229.5c-0.1-0.2-0.2-0.4-0.4-0.6c-0.2-0.2-0.4-0.3-0.6-0.4
		c-0.2-0.1-0.5-0.1-0.7-0.1c-0.3,0-0.5,0-0.7,0.1c-0.2,0.1-0.4,0.2-0.6,0.4c-0.2,0.2-0.3,0.4-0.4,0.6s-0.1,0.5-0.1,0.7
		c0,0.3,0,0.5,0.1,0.7s0.2,0.4,0.4,0.6c0.2,0.2,0.4,0.3,0.6,0.4c0.2,0.1,0.5,0.1,0.7,0.1c0.3,0,0.5,0,0.7-0.1
		c0.2-0.1,0.4-0.2,0.6-0.4c0.2-0.2,0.3-0.4,0.4-0.6c0.1-0.2,0.1-0.5,0.1-0.7C-1201,1230-1201.1,1229.7-1201.2,1229.5z M-1202,1230.2
		c-0.1,0.1-0.2,0.2-0.4,0.2l0.5,1h-0.5l-0.5-0.9h-0.5v0.9h-0.4v-2.4h1c0.1,0,0.2,0,0.3,0s0.2,0.1,0.2,0.1c0.1,0.1,0.1,0.1,0.2,0.2
		c0,0.1,0.1,0.2,0.1,0.3C-1201.9,1229.9-1201.9,1230.1-1202,1230.2z M-1202.4,1229.5c-0.1-0.1-0.2-0.1-0.3-0.1h-0.6v0.7h0.6
		c0.1,0,0.2,0,0.3-0.1c0.1-0.1,0.1-0.1,0.1-0.3C-1202.3,1229.6-1202.3,1229.5-1202.4,1229.5z"></path>
	<path d="M-1396.8,1268.1c-0.6,1.6-1.5,2.9-2.5,4c-1.1,1-2.4,1.8-3.8,2.2c-1.5,0.5-3,0.7-4.7,0.7h-6.2v-25.2h6.7
		c1.7,0,3.2,0.2,4.6,0.7c1.4,0.5,2.6,1.2,3.6,2.2c1,1,1.8,2.3,2.4,3.9c0.6,1.6,0.9,3.4,0.9,5.6
		C-1395.9,1264.5-1396.2,1266.4-1396.8,1268.1z M-1400.9,1254.9c-1.5-1.7-3.7-2.6-6.6-2.6h-3.6v20.1h3.7c1.4,0,2.6-0.2,3.7-0.6
		c1.1-0.4,2-1,2.8-1.8c0.8-0.8,1.4-1.9,1.8-3.2c0.4-1.3,0.6-2.8,0.6-4.6C-1398.7,1259.1-1399.4,1256.6-1400.9,1254.9z"></path>
	<path d="M-1390.3,1275v-25.2h15.2v2.6h-12.4v7.9h7.2v2.6h-7.2v9.6h13v2.6H-1390.3z"></path>
	<path d="M-1359.2,1275h-3.1l-8.6-25.2h3l5.6,17.2c0.1,0.4,0.3,0.8,0.4,1.3c0.2,0.5,0.3,1,0.5,1.4c0.1,0.5,0.3,0.9,0.4,1.3
		c0.1,0.4,0.2,0.7,0.3,0.9c0.1-0.2,0.2-0.5,0.3-1c0.1-0.4,0.3-0.9,0.4-1.3c0.2-0.5,0.3-1,0.5-1.5c0.2-0.5,0.3-0.9,0.4-1.3l5.7-17.2
		h2.9L-1359.2,1275z"></path>
	<path d="M-1345.4,1275v-25.2h15.2v2.6h-12.4v7.9h7.2v2.6h-7.2v9.6h13v2.6H-1345.4z"></path>
	<path d="M-1324.3,1275v-25.2h2.8v22.6h12.5v2.6H-1324.3z"></path>
	<path d="M-1285.4,1267.6c-0.5,1.6-1.2,3-2.1,4.1c-0.9,1.2-2,2.1-3.3,2.7s-2.7,1-4.3,1c-1.6,0-3-0.3-4.3-1c-1.3-0.6-2.4-1.5-3.3-2.7
		c-0.9-1.2-1.6-2.5-2.1-4.1c-0.5-1.6-0.7-3.3-0.7-5.2s0.3-3.6,0.8-5.2c0.5-1.6,1.2-3,2.1-4.1c0.9-1.2,2-2.1,3.3-2.7
		c1.3-0.6,2.7-1,4.3-1c1.6,0,3,0.3,4.3,1c1.3,0.6,2.4,1.5,3.3,2.7s1.6,2.5,2.1,4.1c0.5,1.6,0.8,3.3,0.8,5.2
		C-1284.7,1264.2-1284.9,1266-1285.4,1267.6z M-1288.1,1258.1c-0.4-1.3-0.9-2.4-1.6-3.3c-0.7-0.9-1.5-1.6-2.4-2.1
		c-0.9-0.5-2-0.7-3.1-0.7c-1.1,0-2.1,0.2-3,0.7c-0.9,0.5-1.7,1.2-2.4,2.1c-0.7,0.9-1.2,2-1.6,3.3c-0.4,1.3-0.6,2.7-0.6,4.3
		c0,1.6,0.2,3,0.6,4.3c0.4,1.3,0.9,2.4,1.6,3.3c0.7,0.9,1.5,1.6,2.4,2.1c0.9,0.5,2,0.7,3.1,0.7c1.1,0,2.1-0.2,3-0.7
		c0.9-0.5,1.7-1.2,2.4-2.1c0.7-0.9,1.2-2,1.6-3.3c0.4-1.3,0.6-2.7,0.6-4.3S-1287.7,1259.4-1288.1,1258.1z"></path>
	<path d="M-1262.3,1260.6c-0.4,1-1,1.8-1.7,2.4c-0.7,0.7-1.6,1.2-2.7,1.5c-1.1,0.3-2.2,0.5-3.5,0.5h-6.1v9.9h-2.8v-25.2h9.4
		c1.2,0,2.2,0.2,3.2,0.5c1,0.3,1.8,0.8,2.5,1.4c0.7,0.6,1.3,1.4,1.7,2.4c0.4,0.9,0.6,2.1,0.6,3.3
		C-1261.6,1258.6-1261.9,1259.7-1262.3,1260.6z M-1265.8,1253.7c-0.9-0.9-2.2-1.3-4-1.3h-6.5v10.2h6.2c3.8,0,5.7-1.7,5.7-5.1
		C-1264.5,1255.8-1264.9,1254.5-1265.8,1253.7z"></path>
	<path d="M-1256.9,1275v-25.2h15.2v2.6h-12.4v7.9h7.2v2.6h-7.2v9.6h13v2.6H-1256.9z"></path>
	<path d="M-1219.5,1261.7c-1.1,1.2-2.5,2-4.3,2.4l5.5,10.9h-3.2l-5.4-10.7h-6v10.7h-2.8v-25.2h10c1.1,0,2.1,0.1,3.1,0.4
		s1.8,0.7,2.5,1.3c0.7,0.6,1.2,1.3,1.7,2.2c0.4,0.9,0.6,1.9,0.6,3.2C-1217.9,1258.9-1218.4,1260.5-1219.5,1261.7z M-1222,1253.5
		c-0.9-0.8-2.2-1.2-3.8-1.2h-7.1v9.4h6.7c1.9,0,3.3-0.4,4.2-1.2c0.9-0.8,1.4-2,1.4-3.5C-1220.7,1255.4-1221.2,1254.3-1222,1253.5z"></path>
	<path d="M-1188,1271.1c-0.4,0.9-0.9,1.6-1.6,2.2c-0.7,0.6-1.6,1.1-2.6,1.5s-2.2,0.5-3.5,0.5c-1.7,0-3.3-0.3-4.8-1
		c-1.5-0.7-2.7-1.5-3.7-2.5l1.9-2.1c1,0.9,2,1.6,3.1,2.2c1.1,0.6,2.3,0.8,3.6,0.8c1.7,0,3-0.4,4-1.2c1-0.8,1.5-1.8,1.5-3.2
		c0-0.6-0.1-1.1-0.3-1.6c-0.2-0.5-0.5-0.9-1-1.3c-0.5-0.4-1.1-0.8-1.9-1.2s-1.7-0.8-2.9-1.2c-1.4-0.5-2.5-1-3.4-1.5
		c-0.9-0.5-1.7-1-2.2-1.6c-0.6-0.6-1-1.2-1.2-1.9c-0.3-0.7-0.4-1.5-0.4-2.4c0-1,0.2-1.9,0.6-2.7c0.4-0.8,0.9-1.5,1.6-2
		c0.7-0.6,1.5-1,2.5-1.3c1-0.3,2-0.4,3.2-0.4c1.7,0,3.1,0.2,4.3,0.7c1.2,0.5,2.3,1.1,3.4,2l-1.8,2.2c-0.9-0.8-1.8-1.3-2.8-1.7
		c-0.9-0.4-2-0.6-3.3-0.6c-0.9,0-1.6,0.1-2.2,0.3c-0.6,0.2-1.1,0.5-1.5,0.8c-0.4,0.3-0.7,0.7-0.9,1.2c-0.2,0.4-0.3,0.9-0.3,1.4
		c0,0.5,0.1,1,0.2,1.4c0.1,0.4,0.4,0.8,0.9,1.2c0.4,0.4,1,0.8,1.8,1.2c0.8,0.4,1.8,0.8,3.1,1.3c1.4,0.5,2.6,1,3.5,1.5
		c0.9,0.5,1.7,1.1,2.2,1.7c0.6,0.6,1,1.3,1.2,2s0.4,1.5,0.4,2.5C-1187.5,1269.3-1187.7,1270.3-1188,1271.1z"></path>
	<path d="M-1173.7,1252.3v22.6h-2.8v-22.6h-7.4v-2.6h17.6v2.6H-1173.7z"></path>
	<path d="M-1145.5,1272.7c-1.5,1.8-3.8,2.7-6.8,2.7c-3,0-5.3-0.9-6.8-2.7c-1.5-1.8-2.3-4.4-2.3-7.9v-15h2.8v14.9
		c0,5.4,2.1,8.1,6.4,8.1c2.2,0,3.7-0.7,4.7-2c0.9-1.3,1.4-3.3,1.4-6.1v-15h2.8v14.9C-1143.3,1268.2-1144,1270.8-1145.5,1272.7z"></path>
	<path d="M-1119.6,1268.1c-0.6,1.6-1.5,2.9-2.5,4c-1.1,1-2.4,1.8-3.8,2.2c-1.5,0.5-3,0.7-4.7,0.7h-6.2v-25.2h6.7
		c1.7,0,3.2,0.2,4.6,0.7c1.4,0.5,2.6,1.2,3.6,2.2c1,1,1.8,2.3,2.4,3.9c0.6,1.6,0.9,3.4,0.9,5.6
		C-1118.7,1264.5-1119,1266.4-1119.6,1268.1z M-1123.8,1254.9c-1.5-1.7-3.7-2.6-6.6-2.6h-3.6v20.1h3.7c1.4,0,2.6-0.2,3.7-0.6
		c1.1-0.4,2-1,2.8-1.8c0.8-0.8,1.4-1.9,1.8-3.2c0.4-1.3,0.6-2.8,0.6-4.6C-1121.5,1259.1-1122.3,1256.6-1123.8,1254.9z"></path>
	<path d="M-1113,1275v-25.2h2.8v25.2H-1113z"></path>
	<path d="M-1084.3,1267.6c-0.5,1.6-1.2,3-2.1,4.1c-0.9,1.2-2,2.1-3.3,2.7s-2.7,1-4.3,1c-1.6,0-3-0.3-4.3-1c-1.3-0.6-2.4-1.5-3.3-2.7
		c-0.9-1.2-1.6-2.5-2.1-4.1c-0.5-1.6-0.7-3.3-0.7-5.2s0.3-3.6,0.8-5.2c0.5-1.6,1.2-3,2.1-4.1c0.9-1.2,2-2.1,3.3-2.7
		c1.3-0.6,2.7-1,4.3-1c1.6,0,3,0.3,4.3,1c1.3,0.6,2.4,1.5,3.3,2.7s1.6,2.5,2.1,4.1c0.5,1.6,0.8,3.3,0.8,5.2
		C-1083.5,1264.2-1083.8,1266-1084.3,1267.6z M-1086.9,1258.1c-0.4-1.3-0.9-2.4-1.6-3.3c-0.7-0.9-1.5-1.6-2.4-2.1
		c-0.9-0.5-2-0.7-3.1-0.7c-1.1,0-2.1,0.2-3,0.7c-0.9,0.5-1.7,1.2-2.4,2.1c-0.7,0.9-1.2,2-1.6,3.3c-0.4,1.3-0.6,2.7-0.6,4.3
		c0,1.6,0.2,3,0.6,4.3c0.4,1.3,0.9,2.4,1.6,3.3c0.7,0.9,1.5,1.6,2.4,2.1c0.9,0.5,2,0.7,3.1,0.7c1.1,0,2.1-0.2,3-0.7
		c0.9-0.5,1.7-1.2,2.4-2.1c0.7-0.9,1.2-2,1.6-3.3c0.4-1.3,0.6-2.7,0.6-4.3S-1086.5,1259.4-1086.9,1258.1z"></path>
</g>
</svg>
