<?xml version="1.0"?>

<svg width="89.126" xmlns="http://www.w3.org/2000/svg" viewBox="0 0 89.125758 83.739528" height="83.74">
 <path d="m18.379 62.223c0 0.304 0.172 0.586 0.445 0.722l25.418 12.711a0.05 0.05 0 0 1 0.024 0.004 0.811 0.811 0 0 0 0.328 0.078h0.019a0.843 0.843 0 0 0 0.328 -0.078c0.004-0.004 0.016-0.004 0.02-0.004l25.422-12.71a0.812 0.812 0 0 0 0.441 -0.723v-24.496l9.86-4.95a0.804 0.804 0 0 0 -0.238 -1.512l-8.9-1.367 7.813-7.816a0.792 0.792 0 0 0 0.227 -0.695 0.806 0.806 0 0 0 -0.434 -0.59l-25.422-12.711a0.796 0.796 0 0 0 -0.925 0.148l-8.649 8.649-10.246-1.031a0.807 0.807 0 0 0 -0.437 0.082l-25.033 12.558a0.815 0.815 0 0 0 -0.43 0.867 0.809 0.809 0 0 0 0.712 0.653l9.656 0.972v0.282l-4.312 10.144c-0.164 0.387 0 0.84 0.38 1.031l3.933 1.965zm25.421 11.41l-23.812-11.903v-16.52l19.88 9.942c0.198 0.098 0.429 0.11 0.636 0.035a0.801 0.801 0 0 0 0.465 -0.437l2.832-6.664zm25.419-11.903l-23.813 11.903v-29.328l0.157-0.367 9.609 1.48a0.83 0.83 0 0 0 0.484 -0.078l13.563-6.805zm8.496-29.257l-22.55 11.316-7.145-1.102 22.546-11.312zm-24.185-22.693l23.907 11.953-7.575 7.575-23.902-11.954zm-8.93 8.86l23.626 11.812-4.047 2.02v-1.598a0.402 0.402 0 1 0 -0.805 0v2l-1.934 0.969v-4.273a0.402 0.402 0 1 0 -0.805 0v4.676l-1.937 0.969v-6.95a0.401 0.401 0 1 0 -0.8 0v7.352l-1.938 0.969v-9.626a0.401 0.401 0 1 0 -0.8 0v10.027l-1.938 0.965v-12.296a0.402 0.402 0 0 0 -0.403 -0.402 0.398 0.398 0 0 0 -0.398 0.402v12.7l-1.938 0.968v-14.972a0.402 0.402 0 1 0 -0.804 0v15.375l-1.934 0.964v-17.644a0.402 0.402 0 1 0 -0.805 0v18.047l-1.734 0.867v-20.219a0.602 0.602 0 0 0 -1.203 0v20.121l-22.926-11.46zm-32.962 10.05l22.347-11.218 7.688 0.777-22.348 11.215zm4.207 12.649l4.12-9.7 23.981 11.993-4.125 9.699z" fill="#221f1f"></path>
</svg>
