<?xml version="1.0"?>

<svg width="77.529" xmlns="http://www.w3.org/2000/svg" viewBox="0 0 77.529 77.084" height="77.084">
 <path d="m66.527 9h-55.527c-1.105 0-2 0.895-2 2v55.086c0 1.102 0.895 2 2 2h55.527c1.106 0 2-0.898 2-2v-55.086c0-1.105-0.894-2-2-2zm0 0" stroke="#231f20" stroke-linecap="round" stroke-miterlimit="10" stroke-dasharray="2,4" stroke-width="2" fill="none"></path>
 <path d="m60.023 40.258c-0.097-1.235-1.312-2.235-3.601-2.98v-6.908a2.206 2.206 0 0 0 -2.203 -2.203h-1.54v-1.543a2.206 2.206 0 0 0 -2.206 -2.203h-1.013c0.266-3.7 0-6.457-0.844-7.703-0.441-0.653-0.976-0.84-1.344-0.88-1.437-0.167-3.152 1.513-5.093 4.99h-8.45c-3.078-3.024-5.375-4.247-6.843-3.626-1.04 0.442-1.457 1.664-1.266 3.625h-2.879a2.206 2.206 0 0 0 -2.203 2.203v17.164c-2.11 1.102-3.137 2.278-3.035 3.5 0.101 1.27 1.383 2.157 3.035 2.778v0.695c0 1.215 0.988 2.203 2.203 2.203h1.39v1.39c0 1.216 0.99 2.204 2.204 2.204h1.543v1.543c0 1.215 0.988 2.203 2.203 2.203h2.816c0.184 2.852 0.938 4.383 2.25 4.535 0.063 0.008 0.125 0.012 0.188 0.012 1.394 0 3.008-1.762 4.633-4.547h6.234c2.684 2.664 4.785 4.012 6.274 4.012 0.289 0 0.558-0.051 0.804-0.153 0.371-0.16 0.867-0.52 1.133-1.336 0.2-0.632 0.227-1.5 0.094-2.554a2.2 2.2 0 0 0 1.914 -2.172v-10.477c2.035-0.96 3.73-2.23 3.601-3.773m-24.41-17.469c-0.336-0.371-0.66-0.715-0.98-1.05h12.246c0.715 0 1.297 0.581 1.297 1.292v1.39h-11.14a56.904 56.904 0 0 0 -1.423 -1.632m12.578 2.543c-0.082 0.887-0.199 1.832-0.34 2.836h-7.847a84.827 84.827 0 0 0 -2.211 -2.836zm-2.578 11.11a111.26 111.26 0 0 0 -2.039 -3.188h3.371a103.55 103.55 0 0 1 -0.902 3.894c-0.145-0.234-0.285-0.468-0.43-0.707m-16.822-3.795v-2.275c0-0.715 0.582-1.293 1.293-1.293h8.988a102.89 102.89 0 0 1 2.54 3.567zm14.387 0c-0.82-1.23-1.656-2.422-2.492-3.567h7.03a86.117 86.117 0 0 1 -0.644 3.567zm-4.79-4.477h-8.304a2.206 2.206 0 0 0 -2.203 2.203v16.281c-1-0.086-1.942-0.199-2.836-0.336v-19.691c0-0.71 0.582-1.293 1.297-1.293h9.77c0.75 0.89 1.511 1.832 2.277 2.836m-9.598 5.086h13.234a107.57 107.57 0 0 1 3.555 5.652c0 0.016-0.004 0.028-0.008 0.043-0.71 2.61-1.46 5.008-2.226 7.184a81.609 81.609 0 0 1 -4.207 0.453c-3.684 0.297-7.223 0.336-10.348 0.129zm17.633 7.101a97.689 97.689 0 0 1 2.555 4.786c-1.36 0.304-2.801 0.57-4.309 0.8a106.81 106.81 0 0 0 1.754 -5.586m0.48-1.757c0.485-1.836 0.907-3.625 1.262-5.344h7.348v9.863c-0.586 0.262-1.262 0.524-2.04 0.79a40.79 40.79 0 0 1 -3.202 0.933 100.67 100.67 0 0 0 -3.368 -6.242m8.61-8.227v2.274h-7.227c0.25-1.235 0.461-2.426 0.637-3.567h5.297c0.715 0 1.293 0.578 1.293 1.293m-5.04-5.039c0.715 0 1.294 0.582 1.294 1.293v1.543h-2.711c0.14-0.992 0.25-1.938 0.332-2.836zm-3.331-8.309c0.062 0.008 0.261 0.032 0.488 0.368 0.441 0.656 0.707 2.039 0.738 4.023a2.205 2.205 0 0 0 -1.488 -0.586h-3.324c1.695-2.894 2.93-3.879 3.586-3.805m-19.746 1.372c0.609-0.258 2.085 0.32 4.44 2.433h-4.913c-0.149-1.336 0.02-2.238 0.473-2.433m-4.649 3.343h10.059a43.402 43.402 0 0 1 2.52 2.684h-8.986a2.206 2.206 0 0 0 -2.207 2.203v19.547c-1.07-0.2-1.957-0.418-2.684-0.656v-22.48a1.301 1.301 0 0 1 1.297 -1.298m-4.031 21.86c-0.047-0.582 0.613-1.297 1.824-2.016v3.594c-1.25-0.535-1.785-1.11-1.824-1.578m4.031 4.863a1.295 1.295 0 0 1 -1.297 -1.293v-0.383c0.875 0.262 1.801 0.465 2.684 0.617v1.059zm3.594 3.594a1.295 1.295 0 0 1 -1.297 -1.293v-3.212c0.895 0.133 1.844 0.238 2.836 0.316v4.188zm2.45 2.453v-6.57a63.94 63.94 0 0 0 4.05 0.124 80.572 80.572 0 0 0 10.039 -0.648c-1.281 3.465-2.586 6.293-3.77 8.387h-9.023a1.295 1.295 0 0 1 -1.297 -1.293m6.496 5.55c-0.48-0.054-1.031-0.972-1.191-3.347h4.476c-1.386 2.258-2.562 3.43-3.285 3.348m8.926-12.825a66.772 66.772 0 0 0 5.312 -0.972c1.891 3.949 3.059 7.226 3.536 9.539h-5.93l-0.059-0.059-0.054 0.059h-6.532c1.286-2.375 2.563-5.352 3.727-8.567m8.969 11.606c-0.133 0.422-0.336 0.508-0.403 0.535-0.625 0.27-2.168-0.34-4.699-2.664h5.14c0.126 0.926 0.118 1.648-0.038 2.129m2.332-4.332c0 0.66-0.5 1.203-1.145 1.277-0.48-2.543-1.722-5.957-3.558-9.832a39.906 39.906 0 0 0 3.054 -0.898c0.54-0.184 1.102-0.39 1.649-0.617zm0.91-11.824v-4.125c1.476 0.535 2.34 1.175 2.39 1.796 0.047 0.57-0.609 1.407-2.39 2.329" fill="#231f20"></path>
</svg>
