<?xml version="1.0"?>

<svg width="75.53" xmlns="http://www.w3.org/2000/svg" viewBox="0 0 75.53 114.258" height="114.26">
 <path d="m65.531 86.656c0 0.563-0.418 1.024-0.933 1.024h-53.664c-0.516 0-0.934-0.457-0.934-1.024v-14.25c0-0.562 0.418-1.02 0.934-1.02h53.664c0.515 0 0.933 0.458 0.933 1.02z" fill="#6d6e70"></path>
 <path d="m15.055 98.3a1.375 1.375 0 1 0 0 -2.75 1.375 1.375 0 1 0 0 2.75m4.879 0c0.761 0 1.375-0.612 1.375-1.374a1.375 1.375 0 1 0 -1.375 1.375m39.332 3.049h3c0.273 0 0.5-0.223 0.5-0.5v-8c0-0.278-0.227-0.5-0.5-0.5h-3c-0.278 0-0.5 0.222-0.5 0.5v8c0 0.277 0.222 0.5 0.5 0.5m0.5-8h2v7h-2zm-6.5 8h3c0.273 0 0.5-0.223 0.5-0.5v-8c0-0.278-0.227-0.5-0.5-0.5h-3c-0.278 0-0.5 0.222-0.5 0.5v8c0 0.277 0.222 0.5 0.5 0.5m0.5-8h2v7h-2z" fill="#231f20"></path>
 <path d="m8 88.45v16.808a1 1 0 0 0 1 1h57.527c0.555 0 1.004-0.45 1.004-1v-90.666c0-1.149-0.68-2.2-1.726-2.676l-8.645-3.918h-37.406l-9.942 3.945a2.857 2.857 0 0 0 -1.812 2.672zm12.137-78.45h36.593l7.977 3.617h-53.68zm-10.137 5.617h55.531v53.943a2.766 2.766 0 0 0 -0.933 -0.172h-53.664c-0.329 0-0.637 0.066-0.934 0.172zm0 56.79c0-0.563 0.418-1.02 0.934-1.02h53.664c0.515 0 0.933 0.457 0.933 1.02v14.25c0 0.562-0.418 1.023-0.933 1.023h-53.664c-0.516 0-0.934-0.457-0.934-1.024zm55.531 31.85h-55.531v-14.56h55.531z" fill="#231f20"></path>
 <path d="m53.941 53.02c-0.004 0-0.011 0-0.02 0.003 0.009-0.003 0.017-0.003 0.02-0.003m-31.449 0.039c0.063 0 0.13-0.016 0.192-0.028-0.067 0.012-0.13 0.028-0.196 0.028h0.004m16.551-1.118c0.027 0.043 0.05 0.09 0.074 0.137-0.023-0.047-0.043-0.094-0.074-0.137m14.594 1.118c0.011 0 0.023-0.004 0.035-0.004-0.031 0-0.059 0-0.082-0.004a0.196 0.196 0 0 0 0.047 0.008m-31.352-0.028c-0.035-0.008-0.07-0.008-0.101-0.015 0.03 0.007 0.066 0.007 0.101 0.015m8.153-6.16c0.019 0.02 0.042 0.035 0.062 0.059-0.02-0.024-0.043-0.04-0.063-0.059m-1.113-0.258a0.606 0.606 0 0 1 0.082 -0.015c-0.027 0.007-0.054 0.011-0.082 0.015m0.328-0.047a0.198 0.198 0 0 0 -0.05 0.008c0.027-0.004 0.054-0.004 0.082-0.004-0.012 0-0.024-0.004-0.032-0.004m0.282 0.036a0.042 0.042 0 0 0 0.02 0.003c-0.005 0-0.013 0-0.02-0.003m7.113 5.418c0.016-0.028 0.027-0.055 0.043-0.079-0.016 0.024-0.028 0.051-0.043 0.079m0.125-0.18c0.023-0.024 0.039-0.05 0.062-0.07-0.023 0.02-0.039 0.046-0.062 0.07m-0.231 0.426c0.012-0.04 0.024-0.082 0.04-0.125-0.016 0.043-0.028 0.086-0.04 0.125m0.375-0.571c0.032-0.023 0.059-0.05 0.09-0.074-0.031 0.024-0.058 0.05-0.09 0.074m0.75 10.355c0.043 0 0.09-0.01 0.133-0.015-0.043 0.004-0.09 0.016-0.133 0.016zm0.622-0.183c-0.055 0.031-0.106 0.063-0.165 0.09 0.059-0.023 0.11-0.059 0.164-0.09m-0.617-10.445c0.043 0 0.086 0.008 0.133 0.016a0.77 0.77 0 0 0 -0.133 -0.016m-0.004 0a0.77 0.77 0 0 0 -0.136 0.016c0.047-0.008 0.09-0.016 0.136-0.016zm-0.366 0.062c0.042-0.011 0.085-0.03 0.128-0.039-0.043 0.012-0.086 0.028-0.129 0.04m-0.203 0.089c0.035-0.02 0.07-0.043 0.11-0.058-0.04 0.015-0.075 0.039-0.11 0.058m9.266-9.277c0.015-0.024 0.023-0.05 0.039-0.07-0.016 0.023-0.024 0.046-0.04 0.07m0.122-0.172c0.023-0.023 0.039-0.05 0.062-0.074-0.023 0.023-0.039 0.05-0.062 0.074m10.254 0.305c0.02 0.047 0.031 0.097 0.043 0.144-0.012-0.047-0.024-0.097-0.043-0.144m-10.457 0.03l0.011-0.034-0.011 0.035m-16.762 16.816c-0.02 0.02-0.04 0.035-0.059 0.055a0.75 0.75 0 0 0 0.059 -0.055m3.539-9.125a0.457 0.457 0 0 1 0.078 0.02c-0.023-0.008-0.05-0.012-0.078-0.02m-3.762 9.305c-0.023 0.012-0.047 0.027-0.066 0.04 0.02-0.013 0.043-0.028 0.066-0.04m2.895-9.152c0.02-0.016 0.043-0.028 0.066-0.043-0.023 0.015-0.047 0.027-0.066 0.043m0.62-0.184c-0.01 0-0.023 0.004-0.034 0.004 0.027 0 0.054 0 0.086 0.004-0.02 0-0.035-0.008-0.051-0.008m13.992-8.258c0.04-0.023 0.074-0.047 0.117-0.062-0.043 0.015-0.078 0.039-0.117 0.062m-14.84 8.621m14.668-8.504l0.086-0.074c-0.031 0.024-0.058 0.051-0.086 0.074m7.395-8.957l0.058 0.055c-0.02-0.02-0.039-0.035-0.058-0.055m-7.008 8.747c0.043-0.012 0.078-0.032 0.121-0.04-0.043 0.008-0.078 0.028-0.121 0.04m-18.594 17.84c-0.027-0.008-0.054-0.012-0.082-0.02 0.028 0.008 0.055 0.012 0.082 0.02m18.953-17.903c-0.043 0-0.082 0.008-0.125 0.012 0.043-0.004 0.082-0.012 0.125-0.012zm-18.148-15.434c0.02 0.012 0.043 0.028 0.062 0.043-0.02-0.015-0.039-0.03-0.062-0.043m13.578 23.883c0.008 0 0.012 0 0.02 0.004-0.008-0.004-0.012-0.004-0.02-0.004m0.27 0.106a0.387 0.387 0 0 1 0.066 0.043c-0.023-0.016-0.043-0.032-0.066-0.043m0.23 0.164l0.063 0.058c-0.02-0.02-0.04-0.039-0.063-0.058m-0.785-0.305c-0.02 0-0.035 0.004-0.05 0.004 0.026 0 0.054-0.004 0.081 0-0.008 0-0.02-0.004-0.031-0.004m-0.328 0.051c0.027-0.012 0.054-0.016 0.082-0.02-0.028 0.004-0.055 0.008-0.082 0.02m11.043-17.457c-0.016 0-0.032 0.008-0.047 0.008 0.027 0 0.055-0.004 0.082-0.004-0.012 0-0.024-0.004-0.035-0.004m-10.961 2.906c-0.028-0.008-0.055-0.012-0.082-0.02 0.027 0.008 0.054 0.012 0.082 0.02m10.637-2.855c0.027-0.008 0.05-0.012 0.078-0.02-0.028 0.008-0.051 0.012-0.078 0.02m-15.247-9.043c0.047 0 0.09 0.007 0.137 0.015-0.047-0.004-0.09-0.015-0.137-0.015m8.414 22.84c-0.011 0-0.02 0.003-0.035 0.003 0.032 0 0.059 0.004 0.082 0.004-0.015 0-0.03-0.008-0.047-0.008m-8.175-22.816c0.047 0.012 0.093 0.031 0.14 0.043-0.047-0.012-0.093-0.031-0.14-0.043m8.75 35.894c0.062 0 0.129-0.015 0.191-0.023-0.066 0.012-0.129 0.024-0.195 0.024h0.004m-0.211-0.028c-0.032-0.008-0.063-0.008-0.098-0.015 0.035 0.011 0.066 0.007 0.098 0.015m7.351-26.753l0.063 0.038c-0.02-0.011-0.043-0.027-0.063-0.039m-0.269-0.105l0.015 0.004-0.015-0.004m-7.488-6.438c0.023-0.015 0.042-0.03 0.066-0.043-0.024 0.012-0.043 0.028-0.066 0.043m-3.516 9.336c0.008 0 0.02-0.004 0.031-0.004-0.027 0-0.055 0-0.082-0.003a0.229 0.229 0 0 0 0.05 0.007m4.145 3.398a1.35 1.35 0 0 1 -0.293 0.118c0.102-0.023 0.2-0.063 0.293-0.117m-0.796 0.129c-0.036-0.004-0.067-0.004-0.102-0.016 0.035 0.012 0.066 0.012 0.102 0.016m0.207 0.027c0.066 0 0.128-0.016 0.195-0.023-0.067 0.007-0.133 0.023-0.2 0.023h0.005m-2.711-3.917c-0.02 0.019-0.04 0.034-0.059 0.054 0.02-0.02 0.04-0.035 0.059-0.055m-0.226 0.18c-0.02 0.015-0.044 0.027-0.063 0.043 0.02-0.016 0.043-0.028 0.062-0.043m3.766-9.305c0.027 0.008 0.054 0.012 0.082 0.02-0.028-0.008-0.055-0.012-0.082-0.02m-0.246-0.031c-0.012 0-0.024 0.004-0.032 0.004 0.028 0 0.055 0 0.082 0.004-0.015 0-0.035-0.008-0.05-0.008m-0.883 20.472l0.015-0.003-0.015 0.003m-16.524-7.395c0.008 0 0.02-0.003 0.032-0.003-0.028 0-0.055-0.004-0.082-0.004 0.015 0 0.03 0.008 0.05 0.008m0.844-0.363c-0.02 0.02-0.039 0.035-0.058 0.054 0.019-0.02 0.039-0.035 0.058-0.054m-8.625-5.95c0.02-0.011 0.043-0.027 0.067-0.039-0.024 0.012-0.047 0.028-0.067 0.04m0.867-0.153c0.028 0.008 0.055 0.012 0.082 0.02-0.027-0.008-0.054-0.012-0.082-0.02m-0.246-0.031c-0.012 0-0.02 0.004-0.031 0.004 0.027 0 0.055 0 0.082 0.004-0.02 0-0.035-0.008-0.05-0.008m7.78 6.312c-0.023 0.012-0.043 0.028-0.066 0.04 0.02-0.012 0.043-0.028 0.066-0.04m-0.867 0.153c-0.027-0.008-0.054-0.012-0.082-0.02 0.028 0.008 0.055 0.012 0.082 0.02m9.61 22.383c-0.04 0.05-0.075 0.097-0.118 0.14 0.043-0.043 0.079-0.094 0.118-0.14m-0.289-37.637c0.046 0.031 0.09 0.07 0.132 0.11-0.043-0.04-0.086-0.079-0.132-0.11m0.39 37.464c-0.023 0.047-0.047 0.094-0.074 0.141 0.027-0.047 0.05-0.093 0.074-0.14m6.516-14.465c0.02-0.02 0.039-0.04 0.062-0.055-0.023 0.02-0.043 0.035-0.062 0.055m7.757 6.101c-0.027-0.007-0.054-0.011-0.081-0.02 0.027 0.009 0.054 0.013 0.082 0.02m-14.219 8.231c-0.008 0.023-0.012 0.047-0.024 0.07 0.012-0.023 0.016-0.047 0.024-0.07m-10.426-35.074c0.027-0.008 0.055-0.012 0.078-0.02-0.023 0.008-0.05 0.012-0.078 0.02m0.328-0.051c-0.02 0-0.035 0.004-0.05 0.004h0.081c-0.011 0-0.02-0.004-0.03-0.004m10.077-1.688c0.063 0.14 0.094 0.293 0.094 0.457a1.255 1.255 0 0 0 -0.094 -0.457m-6.152 11.18c-0.035-0.008-0.066-0.004-0.102-0.016 0.036 0.012 0.067 0.008 0.102 0.016m12.86 11.121c0.019-0.012 0.042-0.027 0.066-0.039-0.024 0.012-0.047 0.027-0.067 0.04m-12.649-11.095c0.063 0 0.126-0.015 0.188-0.023-0.062 0.008-0.128 0.023-0.195 0.023h0.008m-11.566-2.574m7.425 26.562c0.012 0 0.024-0.003 0.035-0.003-0.027 0-0.054 0-0.082-0.004 0.016 0 0.032 0.008 0.047 0.008m27.637-17.731c0.04 0.024 0.066 0.055 0.102 0.082-0.032-0.027-0.063-0.058-0.102-0.082m-0.657-0.2c0.048 0 0.09 0.009 0.138 0.013-0.047-0.004-0.09-0.012-0.137-0.012m0.234 0.023c0.047 0.008 0.094 0.028 0.137 0.04-0.043-0.012-0.09-0.032-0.137-0.04m0.598 0.321c0.027 0.03 0.05 0.062 0.078 0.097-0.027-0.035-0.05-0.066-0.078-0.097m0.144 0.175c0.028 0.04 0.047 0.083 0.07 0.13-0.023-0.047-0.042-0.09-0.07-0.13"></path>
 <path d="m42.082 35.926a1.672 1.672 0 0 0 2.293 -0.614l4.137-7.16c0.222-0.39 0.285-0.84 0.168-1.273a1.663 1.663 0 0 0 -0.785 -1.02 1.658 1.658 0 0 0 -0.836 -0.226c-0.598 0-1.157 0.32-1.454 0.84l-4.136 7.16a1.678 1.678 0 0 0 0.613 2.293m-0.184-2.043l4.141-7.16a1.005 1.005 0 0 1 0.234 -0.282c0.051-0.046 0.106-0.09 0.164-0.125l0.067-0.043c0.082-0.043 0.164-0.078 0.254-0.101h0.015c0.082-0.024 0.168-0.031 0.254-0.035 0.012 0 0.02-0.004 0.032-0.004 0.015 0 0.035 0.008 0.05 0.008 0.067 0.004 0.13 0.011 0.196 0.023 0.027 0.008 0.054 0.012 0.082 0.02 0.09 0.027 0.175 0.058 0.261 0.105 0.563 0.328 0.758 1.05 0.43 1.613l-4.137 7.16a0.905 0.905 0 0 1 -0.175 0.227c-0.02 0.02-0.04 0.035-0.059 0.055-0.05 0.047-0.105 0.09-0.164 0.125l-0.066 0.043a1.189 1.189 0 0 1 -0.254 0.101h-0.012a1.139 1.139 0 0 1 -0.258 0.035c-0.012 0-0.02 0.004-0.031 0.004-0.02 0-0.031-0.004-0.05-0.007a1.11 1.11 0 0 1 -0.196 -0.024c-0.028-0.008-0.055-0.012-0.082-0.02a1.179 1.179 0 0 1 -0.695 -1.719m-20.649 2.158l7.164 4.14c0.375 0.215 0.805 0.332 1.238 0.332 0.883 0 1.707-0.477 2.149-1.242 0.328-0.57 0.418-1.239 0.246-1.88a2.44 2.44 0 0 0 -0.512 -0.956c0.121 0.101 0.246 0.195 0.383 0.273 0.395 0.227 0.84 0.348 1.293 0.348 0.445 0 0.89-0.121 1.281-0.344a2.58 2.58 0 0 0 1.285 -2.152c0.23 0.379 0.547 0.703 0.946 0.933 0.414 0.235 0.87 0.36 1.336 0.36a2.685 2.685 0 0 0 2.683 -2.68v-8.27a2.68 2.68 0 0 0 -2.676 -2.68 2.684 2.684 0 0 0 -2.68 2.68v8.188l-4.081-7.067a2.576 2.576 0 0 0 -3.52 -0.945 2.583 2.583 0 0 0 -0.945 3.524l4.133 7.164c0.078 0.129 0.168 0.25 0.265 0.367a2.807 2.807 0 0 0 -0.347 -0.25l-7.16-4.137a2.502 2.502 0 0 0 -1.239 -0.332c-0.883 0-1.707 0.477-2.148 1.238a2.489 2.489 0 0 0 -0.25 1.88c0.172 0.644 0.582 1.179 1.156 1.507m15.637-11.137c0-0.648 0.527-1.18 1.18-1.18 0.046 0 0.09 0.012 0.136 0.016 0.035 0.004 0.067 0.004 0.102 0.008 0.047 0.012 0.093 0.031 0.14 0.043 0.028 0.012 0.055 0.016 0.082 0.027 0.047 0.02 0.09 0.047 0.133 0.075 0.024 0.011 0.047 0.02 0.067 0.035a1.198 1.198 0 0 1 0.175 0.144c0.043 0.043 0.078 0.09 0.114 0.14 0.011 0.013 0.02 0.02 0.027 0.032 0.039 0.055 0.066 0.113 0.094 0.176 0.004 0.008 0.011 0.016 0.015 0.027 0.063 0.14 0.094 0.293 0.094 0.457l-0.004 8.27a1.179 1.179 0 1 1 -2.355 0zm-8.836 3a1.185 1.185 0 0 1 0.433 -1.613c0.082-0.047 0.172-0.078 0.262-0.105 0.027-0.008 0.055-0.012 0.078-0.02 0.067-0.012 0.133-0.023 0.2-0.023 0.015-0.004 0.03-0.008 0.05-0.008 0.012 0 0.02 0.004 0.031 0.004 0.086 0.004 0.172 0.011 0.254 0.035h0.016c0.09 0.023 0.172 0.058 0.254 0.101l0.066 0.043c0.059 0.036 0.114 0.079 0.164 0.125a1.131 1.131 0 0 1 0.234 0.281l4.134 7.165a1.176 1.176 0 0 1 -0.723 1.726c-0.035 0.008-0.07 0.008-0.106 0.016-0.062 0.012-0.125 0.023-0.187 0.023h-0.008c-0.07 0-0.137-0.015-0.203-0.027-0.035-0.008-0.066-0.004-0.102-0.012a1.145 1.145 0 0 1 -0.71 -0.55zm-6.582 5.403c0.05-0.086 0.11-0.16 0.176-0.227 0.02-0.02 0.039-0.039 0.062-0.055 0.05-0.046 0.105-0.09 0.164-0.125 0.02-0.011 0.043-0.027 0.067-0.043 0.078-0.039 0.164-0.078 0.25-0.101h0.015c0.086-0.024 0.168-0.031 0.258-0.035 0.008 0 0.02-0.004 0.031-0.004 0.016 0 0.031 0.008 0.051 0.008 0.062 0.004 0.129 0.011 0.195 0.023 0.028 0.008 0.055 0.012 0.082 0.02 0.086 0.027 0.176 0.058 0.258 0.109l7.164 4.137c0.563 0.324 0.754 1.043 0.43 1.61-0.05 0.081-0.11 0.16-0.176 0.226-0.02 0.02-0.039 0.035-0.058 0.054-0.051 0.047-0.11 0.09-0.165 0.125-0.023 0.012-0.046 0.028-0.07 0.04a1.17 1.17 0 0 1 -0.25 0.105h-0.02a0.896 0.896 0 0 1 -0.25 0.031c-0.011 0.004-0.023 0.008-0.03 0.008-0.02 0-0.036-0.008-0.051-0.008a1.57 1.57 0 0 1 -0.196 -0.023c-0.027-0.008-0.054-0.012-0.082-0.02a1.164 1.164 0 0 1 -0.262 -0.11l-7.16-4.136a1.18 1.18 0 0 1 -0.433 -1.61m-2.574 11.641c0.355 0.211 0.77 0.32 1.187 0.32h8.27a2.383 2.383 0 0 0 2.378 -2.378 2.38 2.38 0 0 0 -2.378 -2.38h-8.27a2.38 2.38 0 0 0 -2.379 2.376c0 0.851 0.453 1.64 1.192 2.062m1.187-3.238l8.27 0.004c0.648 0 1.175 0.523 1.175 1.176a1.175 1.175 0 0 1 -1.175 1.18h-8.27a1.16 1.16 0 0 1 -0.59 -0.16 1.179 1.179 0 0 1 0.59 -2.2m11.547 4.898a2.286 2.286 0 0 0 -3.113 -0.835l-7.164 4.136a2.254 2.254 0 0 0 -1.063 1.383 2.288 2.288 0 0 0 0.227 1.73c0.203 0.348 0.492 0.637 0.84 0.833 0.34 0.199 0.734 0.304 1.136 0.304 0.399 0 0.793-0.101 1.137-0.304l7.164-4.133a2.287 2.287 0 0 0 0.836 -3.114m-1.387 2.16l-7.164 4.133c-0.09 0.055-0.187 0.094-0.289 0.122-0.035 0.007-0.07 0.007-0.105 0.011-0.067 0.012-0.13 0.028-0.192 0.028h-0.004a1.696 1.696 0 0 1 -0.203 -0.028c-0.035-0.008-0.07-0.008-0.101-0.015a1.189 1.189 0 0 1 -0.715 -0.547 1.182 1.182 0 0 1 0.433 -1.614l7.16-4.132c0.086-0.047 0.172-0.082 0.262-0.11a0.606 0.606 0 0 1 0.082 -0.015 1.12 1.12 0 0 1 0.196 -0.028c0.015 0 0.035-0.004 0.05-0.004 0.008 0 0.02 0.004 0.032 0.004a1.069 1.069 0 0 1 0.27 0.035c0.089 0.024 0.171 0.06 0.253 0.102a0.387 0.387 0 0 1 0.066 0.043 0.988 0.988 0 0 1 0.165 0.121c0.023 0.02 0.042 0.035 0.062 0.059 0.063 0.066 0.125 0.14 0.176 0.226 0.32 0.563 0.129 1.285-0.434 1.61m-2.258 11.582c0.328 0.191 0.707 0.293 1.086 0.293 0.778 0 1.5-0.418 1.89-1.09l4.134-7.16c0.293-0.504 0.37-1.09 0.218-1.653a2.168 2.168 0 0 0 -1.015 -1.324 2.167 2.167 0 0 0 -1.086 -0.293c-0.777 0-1.504 0.418-1.89 1.094l-4.134 7.156a2.181 2.181 0 0 0 0.797 2.977m0.07-2.477l4.134-7.16c0.05-0.086 0.113-0.16 0.175-0.227 0.02-0.02 0.04-0.039 0.063-0.054 0.05-0.047 0.105-0.09 0.164-0.125 0.02-0.016 0.043-0.028 0.066-0.043 0.078-0.043 0.164-0.078 0.25-0.102 0.004 0 0.012 0 0.02-0.004 0.082-0.02 0.168-0.027 0.25-0.031 0.011 0 0.023-0.004 0.035-0.004 0.016 0 0.031 0.008 0.05 0.008 0.063 0 0.13 0.012 0.196 0.023 0.027 0.008 0.055 0.012 0.078 0.02 0.094 0.023 0.18 0.058 0.266 0.105 0.562 0.328 0.754 1.051 0.43 1.614l-4.137 7.16c-0.047 0.082-0.11 0.156-0.172 0.226-0.024 0.02-0.043 0.035-0.063 0.055a1.011 1.011 0 0 1 -0.23 0.164 1.202 1.202 0 0 1 -0.254 0.106h-0.016a1.105 1.105 0 0 1 -0.254 0.035c-0.011 0-0.023 0.004-0.035 0.004a0.196 0.196 0 0 1 -0.047 -0.008c-0.066 0-0.132-0.012-0.199-0.024-0.023-0.007-0.05-0.011-0.078-0.02a1.173 1.173 0 0 1 -0.691 -1.719m10.015-7.347h-0.004a2.08 2.08 0 0 0 -2.078 2.079l-0.004 8.27a2.085 2.085 0 0 0 2.078 2.077 2.086 2.086 0 0 0 2.083 -2.078v-8.27c0-0.554-0.215-1.078-0.606-1.468a2.066 2.066 0 0 0 -1.469 -0.61m1.172 10.348c0 0.137-0.027 0.266-0.07 0.387-0.008 0.023-0.012 0.047-0.02 0.07-0.011 0.024-0.023 0.04-0.035 0.063-0.02 0.047-0.047 0.093-0.074 0.14-0.008 0.012-0.02 0.02-0.027 0.032-0.036 0.05-0.075 0.097-0.118 0.14-0.007 0.012-0.02 0.02-0.03 0.027-0.044 0.043-0.09 0.083-0.141 0.118-0.012 0.007-0.028 0.011-0.04 0.02-0.05 0.03-0.105 0.066-0.164 0.089-0.011 0.008-0.027 0.008-0.043 0.016-0.058 0.02-0.117 0.039-0.175 0.054-0.035 0.008-0.067 0.004-0.102 0.008-0.047 0.008-0.09 0.016-0.137 0.016-0.214 0-0.418-0.059-0.59-0.156a1.182 1.182 0 0 1 -0.59 -1.024v-8.27c0-0.081 0.009-0.16 0.024-0.238 0.008-0.035 0.024-0.062 0.031-0.093 0.012-0.043 0.024-0.086 0.04-0.125 0.019-0.043 0.042-0.083 0.066-0.125 0.016-0.024 0.027-0.051 0.043-0.079 0.023-0.035 0.055-0.066 0.086-0.101 0.02-0.024 0.035-0.05 0.058-0.07 0.028-0.028 0.055-0.047 0.086-0.07 0.028-0.028 0.055-0.055 0.09-0.075 0.028-0.02 0.059-0.031 0.086-0.047 0.04-0.023 0.074-0.047 0.113-0.062 0.028-0.012 0.063-0.02 0.09-0.028 0.043-0.015 0.086-0.031 0.13-0.039 0.034-0.008 0.07-0.008 0.1-0.011 0.048-0.004 0.09-0.012 0.137-0.012h0.004c0.047 0 0.09 0.008 0.137 0.011 0.031 0.004 0.066 0.004 0.102 0.012 0.046 0.008 0.093 0.028 0.14 0.043 0.028 0.008 0.055 0.012 0.078 0.024 0.047 0.02 0.086 0.047 0.13 0.07 0.023 0.012 0.05 0.023 0.073 0.039 0.047 0.031 0.09 0.07 0.133 0.11 0.012 0.011 0.028 0.023 0.04 0.035 0.042 0.042 0.081 0.09 0.117 0.14 0.007 0.012 0.02 0.02 0.027 0.031 0.027 0.043 0.05 0.094 0.074 0.141 0.012 0.02 0.024 0.04 0.031 0.063 0.024 0.046 0.035 0.101 0.051 0.152 0.004 0.023 0.016 0.043 0.02 0.066 0.015 0.078 0.023 0.157 0.023 0.239zm6.102-1.421c0.172 0.3 0.422 0.546 0.718 0.726 0.305 0.172 0.649 0.265 0.993 0.265 0.347 0 0.691-0.093 0.992-0.265 0.453-0.266 0.781-0.692 0.922-1.2a1.965 1.965 0 0 0 -0.2 -1.503l-4.132-7.16a1.983 1.983 0 0 0 -1.715 -0.993 1.98 1.98 0 0 0 -1.71 2.969zm-3.008-9.173a1.12 1.12 0 0 1 0.258 -0.105c0.027-0.012 0.054-0.016 0.082-0.02a1.12 1.12 0 0 1 0.195 -0.027c0.02 0 0.031-0.008 0.05-0.008 0.013 0 0.02 0.004 0.032 0.008a1.102 1.102 0 0 1 0.524 0.137c0.023 0.011 0.043 0.027 0.066 0.043 0.059 0.035 0.113 0.078 0.164 0.12 0.023 0.02 0.043 0.04 0.063 0.06 0.066 0.066 0.125 0.14 0.175 0.226l4.133 7.16a1.177 1.177 0 0 1 -0.726 1.73c-0.036 0.008-0.07 0.008-0.106 0.012-0.062 0.012-0.125 0.028-0.187 0.028-0.004 0-0.004-0.004-0.008-0.004-0.07 0-0.137-0.016-0.203-0.024-0.035-0.008-0.067-0.008-0.098-0.015a1.202 1.202 0 0 1 -0.715 -0.547l-4.133-7.164a1.178 1.178 0 0 1 0.434 -1.61m5.082-4.164a1.882 1.882 0 0 0 -2.566 0.692c-0.25 0.43-0.317 0.937-0.188 1.422 0.129 0.484 0.438 0.89 0.875 1.14l7.14 4.13 0.02 0.01a1.886 1.886 0 0 0 2.567 -0.687c0.52-0.894 0.21-2.047-0.684-2.566zm7.242 6.356a1.131 1.131 0 0 1 -0.234 0.281 1.247 1.247 0 0 1 -0.235 0.164 1 1 0 0 1 -0.25 0.106 1.41 1.41 0 0 1 -0.27 0.035c-0.01 0-0.023 0.004-0.034 0.004a0.196 0.196 0 0 1 -0.047 -0.008c-0.067 0-0.133-0.012-0.2-0.024-0.027-0.007-0.054-0.011-0.081-0.02a1.12 1.12 0 0 1 -0.258 -0.105l-0.004-0.004-7.16-4.136a1.179 1.179 0 0 1 -0.43 -1.61c0.05-0.086 0.11-0.16 0.176-0.226 0.02-0.02 0.039-0.035 0.062-0.055 0.051-0.047 0.106-0.09 0.164-0.125 0.02-0.012 0.043-0.027 0.067-0.039 0.078-0.043 0.164-0.078 0.25-0.102 0.008-0.003 0.011-0.003 0.02-0.003 0.081-0.024 0.167-0.032 0.253-0.036 0.012 0 0.02-0.004 0.031-0.004 0.016 0 0.032 0.008 0.051 0.008 0.063 0.004 0.13 0.012 0.196 0.028a0.46 0.46 0 0 1 0.078 0.015c0.09 0.028 0.18 0.059 0.265 0.11l7.157 4.136a1.18 1.18 0 0 1 0.433 1.61m-6.883-11.359a1.779 1.779 0 0 0 -0.886 3.32c0.27 0.152 0.578 0.234 0.89 0.234l8.27 0.004a1.779 1.779 0 1 0 0.004 -3.559zm8.274 0.6c0.047 0 0.09 0.009 0.136 0.013 0.032 0.004 0.067 0.004 0.098 0.011 0.05 0.008 0.094 0.028 0.137 0.04 0.027 0.011 0.058 0.015 0.09 0.027 0.039 0.02 0.078 0.043 0.117 0.066 0.027 0.016 0.055 0.028 0.078 0.043 0.04 0.024 0.07 0.055 0.102 0.082 0.027 0.024 0.05 0.04 0.074 0.063 0.027 0.03 0.054 0.062 0.082 0.097 0.02 0.024 0.043 0.047 0.062 0.078 0.028 0.04 0.047 0.083 0.07 0.125 0.012 0.028 0.024 0.047 0.04 0.075 0.02 0.047 0.027 0.097 0.043 0.144 0.008 0.028 0.02 0.051 0.023 0.074a1.181 1.181 0 0 1 -1.156 1.418l-8.27-0.004a1.18 1.18 0 0 1 -1.156 -1.414c0.016-0.062 0.035-0.125 0.059-0.187l0.011-0.035c0.02-0.043 0.047-0.086 0.07-0.13 0.012-0.023 0.02-0.05 0.04-0.07 0.023-0.035 0.054-0.066 0.082-0.101 0.02-0.023 0.039-0.05 0.058-0.074l0.086-0.07c0.032-0.024 0.059-0.051 0.09-0.075 0.028-0.015 0.059-0.027 0.082-0.043 0.04-0.023 0.078-0.047 0.117-0.062 0.036-0.016 0.07-0.024 0.102-0.031a0.627 0.627 0 0 1 0.121 -0.04c0.035-0.007 0.074-0.007 0.113-0.011 0.04-0.004 0.078-0.012 0.121-0.012h0.004l8.27 0.004zm-11.246-4.128c-0.117 0.445-0.059 0.91 0.175 1.313 0.153 0.261 0.372 0.48 0.633 0.632 0.262 0.149 0.563 0.23 0.864 0.23 0.304 0 0.601-0.081 0.863-0.23l7.164-4.132c0.398-0.235 0.687-0.606 0.805-1.055 0.12-0.445 0.058-0.91-0.172-1.309a1.736 1.736 0 0 0 -1.5 -0.867 1.7 1.7 0 0 0 -0.86 0.234l-7.164 4.133c-0.402 0.23-0.687 0.606-0.808 1.051m1.082-0.574l7.164-4.133c0.082-0.05 0.172-0.082 0.261-0.11 0.028-0.007 0.055-0.011 0.079-0.019a1.73 1.73 0 0 1 0.199 -0.023c0.015 0 0.031-0.008 0.047-0.008 0.011 0 0.023 0.004 0.035 0.004a1.37 1.37 0 0 1 0.27 0.039c0.09 0.02 0.171 0.058 0.253 0.101 0.02 0.012 0.043 0.028 0.067 0.04 0.058 0.038 0.11 0.078 0.164 0.124l0.058 0.055c0.067 0.07 0.125 0.145 0.176 0.227a1.173 1.173 0 0 1 -0.433 1.61l-7.16 4.136a1.046 1.046 0 0 1 -0.294 0.117c-0.03 0.012-0.07 0.008-0.101 0.016-0.067 0.011-0.129 0.023-0.192 0.023h-0.007c-0.067 0-0.137-0.016-0.203-0.027-0.032-0.004-0.067-0.004-0.098-0.016a1.06 1.06 0 0 1 -0.285 -0.113 1.174 1.174 0 0 1 -0.43 -0.434 1.177 1.177 0 0 1 0.43 -1.61"></path>
</svg>
