<?xml version="1.0"?>

<svg width="83" xmlns="http://www.w3.org/2000/svg" viewBox="0 0 83 73" height="73">
 <path d="m74 8h-65c-0.602 0-1 0.398-1 1v55c0 0.602 0.398 1 1 1h65c0.602 0 1-0.398 1-1v-55c0-0.5-0.398-1-1-1zm-64 13.7h63v33.902h-63zm63-11.7v10.2h-63v-10.2zm-63 53v-5.898h63v5.898z"></path>
 <path d="m22.102 59.5h-7.903c-0.3 0-0.5 0.2-0.5 0.5s0.2 0.5 0.5 0.5h7.903c0.296 0 0.5-0.2 0.5-0.5s-0.204-0.5-0.5-0.5zm27.5-41.3h5.597c0.301 0 0.5-0.2 0.5-0.5 0-0.302-0.199-0.5-0.5-0.5h-5.597c-0.301 0-0.5 0.198-0.5 0.5 0 0.3 0.199 0.5 0.5 0.5zm11.097 15.5l-12.3 8.198c-0.2 0.204-0.297 0.5-0.098 0.704 0.097 0.097 0.3 0.199 0.398 0.199 0.102 0 0.2 0 0.301-0.102l12.3-8.199c0.2-0.2 0.302-0.5 0.098-0.7-0.199-0.198-0.5-0.198-0.699-0.1zm7.602-8.5c-0.2-0.2-0.5-0.302-0.7-0.098l-16 10.699c-0.203 0.199-0.3 0.5-0.101 0.699 0.102 0.102 0.3 0.2 0.398 0.2 0.102 0 0.204 0 0.301-0.098l16.102-10.704c0.097-0.199 0.199-0.5 0-0.699zm-3-10.098l-2.2 2.296a0.482 0.482 0 0 0 0 0.704c0.098 0.097 0.2 0.097 0.297 0.097 0.102 0 0.301-0.097 0.403-0.199l2.199-2.3 2.3 2.198c0.098 0.102 0.2 0.102 0.302 0.102 0.097 0 0.296-0.102 0.398-0.2 0.2-0.198 0.2-0.5 0-0.698l-2.3-2.204 2.198-2.296a0.482 0.482 0 0 0 0 -0.704c-0.199-0.199-0.5-0.199-0.699 0l-2.199 2.302-2.3-2.2c-0.2-0.2-0.5-0.2-0.7 0s-0.2 0.5 0 0.7z"></path>
</svg>
