<?xml version="1.0"?>

<svg width="70.693" xmlns="http://www.w3.org/2000/svg" viewBox="0 0 70.693001 88.182" height="88.182">
 <path d="m26.828 61.566c2.902 0.246 5.942 0.371 9.035 0.371 8.543 0 16.54-0.964 21.395-2.582a0.752 0.752 0 0 1 0.949 0.477 0.752 0.752 0 0 1 -0.477 0.95c-5 1.663-13.171 2.656-21.867 2.656-3.136 0-6.218-0.126-9.164-0.376a0.755 0.755 0 0 1 -0.683 -0.812 0.757 0.757 0 0 1 0.812 -0.684zm-6.078-0.488c-2.969-0.488-5.508-1.125-7.344-1.84a0.5 0.5 0 1 0 -0.363 0.934c1.93 0.75 4.469 1.387 7.543 1.89a0.499 0.499 0 0 0 0.574 -0.41 0.495 0.495 0 0 0 -0.41 -0.574zm39.668-6.281c1.43 0.855 2.273 1.863 2.273 3.047v15.242c0 5.207-16.347 7.098-27.332 7.098-10.988 0-27.336-1.891-27.336-7.098v-15.242c0-1.184 0.848-2.192 2.278-3.047-1.43-0.856-2.278-1.863-2.278-3.043v-15.246c0-1.196 0.872-2.215 2.332-3.078-1.475-0.864-2.355-1.89-2.355-3.09v-15.242c0-5.208 16.348-7.098 27.332-7.098 10.988 0 27.332 1.89 27.332 7.098v15.242c0 1.195-0.867 2.215-2.328 3.078 1.477 0.863 2.355 1.89 2.355 3.09v15.246c0.004 1.18-0.843 2.187-2.273 3.043zm-47.754-22.434c0.879 0.364 1.984 0.723 3.297 1.063 4.25 1.113 10.73 2.011 19.371 2.011 8.66 0 15.148-0.902 19.402-2.015 1.309-0.344 2.418-0.707 3.293-1.07 1.746-0.723 2.637-1.446 2.637-2.012v-15.242c0-1.782-8.7-5.098-25.332-5.098-16.633 0-25.332 3.316-25.332 5.098v15.242c0 0.566 0.902 1.297 2.664 2.023zm45.484 23.5c-5.644 2.133-15.418 2.985-22.789 2.985-7.37 0-17.144-0.856-22.785-2.985-1.687 0.711-2.547 1.422-2.547 1.98v15.243c0 1.777 8.7 5.098 25.332 5.098 16.633 0 25.336-3.32 25.336-5.098v-15.242c0-0.559-0.863-1.27-2.547-1.98zm2.547-19.355c0-0.567-0.906-1.297-2.664-2.02-5.656 2.106-15.367 2.95-22.695 2.95-7.32 0-17.012-0.844-22.672-2.942-1.742 0.723-2.637 1.445-2.637 2.016v15.242c0 0.559 0.86 1.266 2.547 1.976 0.86 0.364 1.957 0.723 3.25 1.067 4.25 1.133 10.781 2.05 19.535 2.05s15.286-0.917 19.536-2.05c1.289-0.344 2.39-0.703 3.253-1.067 1.688-0.71 2.547-1.417 2.547-1.976zm-3.437 1.515c-4.856 1.618-12.852 2.582-21.395 2.582-3.105 0-6.144-0.125-9.035-0.37a0.754 0.754 0 0 0 -0.812 0.683 0.757 0.757 0 0 0 0.683 0.812c2.934 0.25 6.02 0.375 9.164 0.375 8.7 0 16.871-0.992 21.867-2.656a0.752 0.752 0 0 0 0.477 -0.949 0.752 0.752 0 0 0 -0.95 -0.477zm-36.508 1.72c-2.965-0.485-5.504-1.122-7.344-1.837a0.499 0.499 0 1 0 -0.363 0.93c1.934 0.754 4.473 1.39 7.543 1.894 0.027 0.004 0.059 0.004 0.082 0.004a0.495 0.495 0 0 0 0.492 -0.418 0.497 0.497 0 0 0 -0.41 -0.574zm5.926-19.427a108.8 108.8 0 0 0 9.164 0.375c8.691 0 16.867-0.992 21.867-2.656a0.752 0.752 0 0 0 0.477 -0.95 0.755 0.755 0 0 0 -0.95 -0.476c-4.855 1.618-12.851 2.582-21.394 2.582-3.098 0-6.137-0.125-9.04-0.37a0.759 0.759 0 0 0 -0.808 0.687 0.751 0.751 0 0 0 0.684 0.808zm-6.031-0.992a0.499 0.499 0 0 0 0.082 -0.992c-2.97-0.488-5.508-1.125-7.344-1.84a0.5 0.5 0 1 0 -0.363 0.934c1.93 0.75 4.468 1.386 7.543 1.89 0.027 0.004 0.054 0.008 0.082 0.008z"></path>
</svg>
