<?xml version="1.0"?>

<svg width="72.525" xmlns="http://www.w3.org/2000/svg" viewBox="0 0 72.525 93.736" height="93.736">
 <path d="m59.723 8h-46.923a4.805 4.805 0 0 0 -4.8 4.8v68.138a4.804 4.804 0 0 0 4.8 4.796h46.923c2.648 0 4.8-2.152 4.8-4.796v-68.138c0-2.649-2.152-4.801-4.8-4.801zm2.8 72.934a2.8 2.8 0 0 1 -2.8 2.8h-46.923a2.8 2.8 0 0 1 -2.801 -2.8v-68.134c0.001-1.542 1.255-2.8 2.801-2.8h46.923c1.547 0 2.8 1.258 2.8 2.8zm-5.816-63.98h-7.39v-3.438a1.857 1.857 0 0 0 -1.856 -1.856h-22.395a1.857 1.857 0 0 0 -1.855 1.856v3.437h-7.39c-1.602 0-2.9 1.215-2.9 2.703v58.18c0 1.488 1.302 2.703 2.9 2.703h40.886c1.598 0 2.898-1.215 2.898-2.703v-58.18c0-1.488-1.3-2.703-2.898-2.703zm-31.996 0v-3.438c0-0.196 0.16-0.356 0.355-0.356h22.395c0.195 0 0.355 0.16 0.355 0.356v5.62c0 0.192-0.16 0.352-0.355 0.352h-22.395a0.353 0.353 0 0 1 -0.355 -0.351zm33.394 60.882c0 0.664-0.628 1.203-1.398 1.203h-40.887c-0.773 0-1.398-0.539-1.398-1.203v-58.18c0-0.664 0.629-1.203 1.398-1.203h7.39v0.684c0 1.02 0.833 1.851 1.856 1.851h22.395a1.856 1.856 0 0 0 1.855 -1.851v-0.684h7.391c0.77 0 1.398 0.54 1.398 1.203zm-2.445-46.734a0.75 0.75 0 0 1 -0.75 0.75h-20.527a0.75 0.75 0 0 1 0 -1.5h20.527c0.414 0 0.75 0.332 0.75 0.75zm0 5.03a0.75 0.75 0 0 1 -0.75 0.75h-20.527a0.75 0.75 0 0 1 0 -1.5h20.527a0.75 0.75 0 0 1 0.75 0.75zm0 11.786a0.75 0.75 0 0 1 -0.75 0.75h-20.527a0.75 0.75 0 0 1 0 -1.5h20.527a0.75 0.75 0 0 1 0.75 0.75zm0 5.031a0.75 0.75 0 0 1 -0.75 0.75h-20.527a0.75 0.75 0 0 1 0 -1.5h20.527a0.75 0.75 0 0 1 0.75 0.75zm0 12.11a0.75 0.75 0 0 1 -0.75 0.75h-20.527a0.75 0.75 0 0 1 0 -1.5h20.527a0.75 0.75 0 0 1 0.75 0.75zm0 5.03a0.75 0.75 0 0 1 -0.75 0.75h-20.527a0.75 0.75 0 0 1 0 -1.5h20.527a0.75 0.75 0 0 1 0.75 0.75zm-37.238-31.205h10.066a0.75 0.75 0 0 0 0.75 -0.75v-10.068c0-0.05-0.02-0.093-0.027-0.14l1.375-2.313a1 1 0 0 0 -1.719 -1.023l-1.62 2.726h-8.825a0.75 0.75 0 0 0 -0.746 0.75v10.067c0 0.414 0.336 0.75 0.746 0.75zm0.754-10.067h7.176l-2.848 4.786-0.93-1.743a1.005 1.005 0 0 0 -1.355 -0.414 1.004 1.004 0 0 0 -0.41 1.356l1.765 3.308c0.016 0.028 0.035 0.047 0.055 0.07a0.958 0.958 0 0 0 0.305 0.309l0.011 0.012h0.004c0.031 0.02 0.067 0.027 0.102 0.043a0.986 0.986 0 0 0 0.406 0.098h0.004c0.078 0 0.16-0.012 0.242-0.032 0.031-0.007 0.059-0.023 0.086-0.035 0.047-0.015 0.094-0.027 0.14-0.05l0.005-0.004c0.105-0.06 0.195-0.137 0.27-0.223 0.019-0.024 0.038-0.047 0.054-0.07 0.02-0.028 0.043-0.047 0.062-0.075l3.422-5.754v6.985h-8.566zm11.047 12.227a0.999 0.999 0 0 0 -1.364 0.375l-1.843 3.234h-8.594a0.75 0.75 0 0 0 -0.746 0.75v10.063c0 0.414 0.336 0.75 0.746 0.75h10.066a0.75 0.75 0 0 0 0.75 -0.75v-10.064a0.714 0.714 0 0 0 -0.125 -0.39l1.485-2.606a1 1 0 0 0 -0.375 -1.363zm-2.485 13.672h-8.562v-8.563h6.984l-2.637 4.63-0.933-1.9a1.004 1.004 0 0 0 -1.34 -0.452 0.998 0.998 0 0 0 -0.457 1.336l1.766 3.593c0.02 0.043 0.05 0.075 0.074 0.11 0.02 0.027 0.035 0.054 0.055 0.082 0.074 0.086 0.16 0.168 0.265 0.226 0.004 0.004 0.004 0.008 0.008 0.012 0.05 0.027 0.105 0.043 0.156 0.063 0.028 0.007 0.051 0.023 0.074 0.03 0.09 0.024 0.176 0.036 0.266 0.036h0.004c0.133 0 0.27-0.035 0.398-0.094 0.016-0.004 0.028-0.004 0.04-0.008 0.007-0.004 0.011-0.011 0.019-0.015a0.898 0.898 0 0 0 0.27 -0.211c0.019-0.02 0.035-0.043 0.054-0.067 0.028-0.035 0.059-0.07 0.082-0.109l3.414-5.988zm2.485 3.328a0.999 0.999 0 0 0 -1.364 0.375l-1.843 3.234h-8.594a0.75 0.75 0 0 0 -0.746 0.75v10.063c0 0.414 0.336 0.75 0.746 0.75h10.066a0.75 0.75 0 0 0 0.75 -0.75v-10.064a0.714 0.714 0 0 0 -0.125 -0.39l1.485-2.606a1 1 0 0 0 -0.375 -1.363zm-2.485 13.672h-8.562v-8.563h6.984l-2.637 4.63-0.933-1.9a1.004 1.004 0 0 0 -1.34 -0.452 0.998 0.998 0 0 0 -0.457 1.336l1.766 3.593c0.02 0.043 0.05 0.075 0.074 0.11 0.02 0.027 0.035 0.054 0.055 0.082 0.074 0.086 0.16 0.168 0.265 0.226 0.004 0.004 0.004 0.008 0.008 0.012 0.05 0.027 0.105 0.043 0.156 0.063 0.028 0.007 0.051 0.023 0.074 0.03 0.09 0.024 0.176 0.036 0.266 0.036h0.004c0.133 0 0.27-0.035 0.398-0.094 0.016-0.004 0.028-0.004 0.04-0.008 0.007-0.004 0.011-0.011 0.019-0.015a0.898 0.898 0 0 0 0.27 -0.211c0.019-0.02 0.035-0.043 0.054-0.067 0.028-0.035 0.059-0.07 0.082-0.109l3.414-5.988z"></path>
</svg>
