<?xml version="1.0"?>

<svg width="94.574" xmlns="http://www.w3.org/2000/svg" viewBox="0 0 94.573679 94.72963" height="94.73">
 <path d="m86.418 42.973l-7.707-8.528a34.528 34.528 0 0 0 -12.871 -14.754 8.798 8.798 0 0 0 0.476 -2.847c0-4.875-3.968-8.844-8.843-8.844-4.032 0-7.438 2.715-8.496 6.41-0.485-0.02-0.965-0.055-1.454-0.055-8.3 0-15.921 2.97-21.859 7.903l-3.578-2.906a0.603 0.603 0 0 0 -0.965 0.316l-2.969 11.316a34.11 34.11 0 0 0 -4.8 20.164c-3.145 1.36-5.352 4.485-5.352 8.122 0 4.875 3.969 8.843 8.844 8.843 0.793 0 1.558-0.113 2.293-0.312 4.61 6.804 11.593 11.875 19.758 14l-0.368 4.273a0.6 0.6 0 0 0 0.23 0.528c0.161 0.125 0.376 0.164 0.571 0.093l11.149-3.933a34.076 34.076 0 0 0 17.187 -6.438 8.77 8.77 0 0 0 5.426 1.876c4.875 0 8.844-3.969 8.844-8.844 0-2.699-1.22-5.113-3.13-6.738a34.081 34.081 0 0 0 2.837 -17.222l4.511-1.446a0.61 0.61 0 0 0 0.403 -0.414c0.05-0.195 0-0.41-0.137-0.562zm-35.574-26.211a6.617 6.617 0 0 1 0.402 -2.18c0.93-2.547 3.363-4.371 6.227-4.371a6.64 6.64 0 0 1 6.632 6.633c0 0.586-0.082 1.148-0.226 1.691-0.191 0.73-0.5 1.414-0.914 2.024a6.628 6.628 0 0 1 -5.492 2.918 6.642 6.642 0 0 1 -6.633 -6.633c0-0.028 0.004-0.055 0.004-0.082zm-32.957 49.05c-0.34 0.055-0.688 0.09-1.043 0.09a6.642 6.642 0 0 1 -6.633 -6.632 6.64 6.64 0 0 1 3.39 -5.782 6.566 6.566 0 0 1 2.153 -0.754 6.69 6.69 0 0 1 1.09 -0.097 6.64 6.64 0 0 1 6.633 6.633c0 2.5-1.387 4.675-3.434 5.804a6.474 6.474 0 0 1 -2.156 0.739zm61.836 3.547a6.642 6.642 0 0 1 -6.633 6.633 6.593 6.593 0 0 1 -3.613 -1.078 6.718 6.718 0 0 1 -1.637 -1.516 6.6 6.6 0 0 1 -1.383 -4.039c0-3.66 2.973-6.636 6.633-6.636 1.031 0 2.008 0.246 2.883 0.672a6.613 6.613 0 0 1 3.75 5.964zm-2.801-7.96a8.781 8.781 0 0 0 -3.832 -0.887c-4.88 0-8.848 3.968-8.848 8.847 0 2.028 0.695 3.895 1.852 5.387a31.879 31.879 0 0 1 -17.196 5.906l-8.617-4.941a0.596 0.596 0 0 0 -0.578 -0.008 0.594 0.594 0 0 0 -0.32 0.477l-0.293 3.375c-7.328-2-13.602-6.555-17.844-12.625 2.652-1.528 4.445-4.387 4.445-7.66 0-4.875-3.968-8.844-8.843-8.844a8.9 8.9 0 0 0 -1.301 0.105c-0.04-0.633-0.082-1.261-0.082-1.902a31.897 31.897 0 0 1 5.32 -17.664l8.895-4.344a0.587 0.587 0 0 0 0.332 -0.473 0.588 0.588 0 0 0 -0.215 -0.535l-2.379-1.933c5.504-4.446 12.5-7.114 20.105-7.114 0.375 0 0.747 0.032 1.118 0.043 0 0.078-0.012 0.157-0.012 0.235 0 4.879 3.969 8.843 8.848 8.843 3.082 0 5.8-1.59 7.386-3.992 5.453 3.528 9.785 8.645 12.297 14.711l-1.246 9.922a0.588 0.588 0 0 0 0.215 0.535 0.606 0.606 0 0 0 0.566 0.114l2.782-0.891c0.062 0.84 0.109 1.684 0.109 2.543 0 4.535-0.957 8.855-2.664 12.77z"></path>
</svg>
