<?xml version="1.0"?>

<svg width="68.675" xmlns="http://www.w3.org/2000/svg" viewBox="0 0 68.675472 75.059" height="75.059">
 <path d="m60.672 21.54c0-0.02-0.008-0.04-0.008-0.06a0.775 0.775 0 0 0 -0.062 -0.23c-0.004-0.012-0.004-0.027-0.012-0.04-0.004-0.007-0.012-0.01-0.016-0.019a0.87 0.87 0 0 0 -0.172 -0.222c-0.015-0.012-0.035-0.02-0.05-0.032-0.04-0.03-0.075-0.062-0.122-0.085l-25.53-12.766a0.81 0.81 0 0 0 -0.723 0l-25.532 12.766a0.602 0.602 0 0 0 -0.12 0.082c-0.016 0.011-0.036 0.02-0.052 0.035a0.852 0.852 0 0 0 -0.171 0.218c-0.004 0.008-0.012 0.016-0.016 0.024-0.008 0.012-0.008 0.027-0.012 0.043a0.698 0.698 0 0 0 -0.058 0.219c-0.004 0.023-0.012 0.047-0.012 0.066 0 0.012-0.004 0.02-0.004 0.031v31.914c0 0.305 0.172 0.586 0.445 0.723l25.532 12.766c0.007 0.004 0.015 0.004 0.023 0.007 0.102 0.047 0.21 0.075 0.324 0.079h0.028a0.808 0.808 0 0 0 0.324 -0.079c0.008-0.003 0.015-0.003 0.023-0.007l25.531-12.766a0.809 0.809 0 0 0 0.446 -0.723v-31.914c0-0.008-0.004-0.02-0.004-0.03zm-26.332 11.893l-10.965-5.48 23.727-11.863 10.964 5.48zm0-23.727l11.86 5.93-23.728 11.864-11.86-5.93zm-24.727 13.173l23.918 11.957v30.11l-23.918-11.963zm25.532 42.066v-30.11l23.917-11.955v30.105z"></path>
 <path d="m57.61 45.563a0.405 0.405 0 0 0 -0.407 0.402v5.726l-8.637 4.317a0.407 0.407 0 0 0 -0.18 0.543c0.071 0.14 0.216 0.222 0.364 0.222l0.18-0.043 8.86-4.43a0.404 0.404 0 0 0 0.222 -0.359v-5.976a0.402 0.402 0 0 0 -0.403 -0.403zm-25.794 3.109a0.405 0.405 0 0 0 -0.406 0.402v11.646c0 0.226 0.184 0.402 0.406 0.402 0.223 0 0.403-0.18 0.403-0.402v-11.646a0.402 0.402 0 0 0 -0.403 -0.402z"></path>
</svg>
