<?xml version="1.0"?>

<svg width="92.409" xmlns="http://www.w3.org/2000/svg" viewBox="0 0 92.40946 74.833" height="74.833">
 <path d="m84.3 10.648a0.395 0.395 0 0 0 -0.374 -0.101 0.114 0.114 0 0 0 -0.035 0.008l-7.211 2.64a0.37 0.37 0 0 0 -0.246 0.278 0.382 0.382 0 0 0 0.101 0.359l1.18 1.18-3.422 3.422v-8.618c0-1-0.816-1.816-1.82-1.816h-55.196c-1 0-1.816 0.816-1.816 1.816v40.524l-7.02 7.02a1.492 1.492 0 0 0 0 2.12 1.49 1.49 0 0 0 1.059 0.438 1.5 1.5 0 0 0 1.063 -0.438l4.898-4.898v10.434c0 1.004 0.816 1.816 1.816 1.816h55.196c1.004 0 1.82-0.812 1.82-1.816v-42.34l5.543-5.543 1.215 1.219c0.09 0.09 0.226 0.128 0.355 0.101 0.145-0.012 0.23-0.117 0.278-0.238l2.699-7.156a0.393 0.393 0 0 0 -0.082 -0.41zm-24.48 12.938h9.32l-9.32 9.316zm-42.363 14.18h10.574l-10.574 10.574zm12.7 27.066h-12.7v-12.25l0.637-0.637h12.062zm0-14.137h-10.814l10.812-10.808zm0-15.05l-0.876 0.87h-11.824v-12.93h12.7zm0-13.31h-12.7v-12.335h12.7zm14.206 42.497h-12.957v-12.887h12.957zm0-14.137h-12.957v-12.058l0.867-0.871h10.735l1.355 1.355zm-10.84-14.18l4.118-4.117 4.117 4.118zm10.84-1.636l-5.66-5.66a1.5 1.5 0 0 0 -2.121 0l-5.176 5.176v-10.81h12.957zm0-12.543h-12.957v-12.336h12.957zm14.207 42.496h-12.957v-12.887h12.957zm0-14.137h-12.957v-10.324l4.43 4.434a1.5 1.5 0 0 0 2.121 0l6.406-6.41zm-11.32-12.93h7.71l-3.858 3.856zm11.32-3.613l-2.36 2.364h-10.21l-0.387-0.387v-12.543h12.957zm0-11.816h-12.957v-12.336h12.957zm13.723 42.496h-12.473v-12.887h12.473zm0-14.137h-12.473v-12.93h12.473zm0-14.18h-11.84l11.84-11.84zm0-16.081l-1.902 1.902h-10.571v-12.336h12.472z"></path>
</svg>
