<?xml version="1.0"?>

<svg width="94.6" xmlns="http://www.w3.org/2000/svg" viewBox="0 0 94.6 101.025" height="101.02">
 <path d="m33.727 39.426a5.59 5.59 0 0 0 5.597 -5.602 5.59 5.59 0 0 0 -5.597 -5.597 5.59 5.59 0 0 0 -5.602 5.597c-0.102 3 2.398 5.602 5.602 5.602zm0-9.301c2 0 3.597 1.602 3.597 3.602s-1.597 3.597-3.597 3.597-3.602-1.597-3.602-3.597c-0.102-2 1.602-3.602 3.602-3.602zm35.699-3.2c-3.102 0.302-5.301 3.098-5 6.2 0.3 2.898 2.699 5 5.597 5h0.602c3.102-0.3 5.3-3.102 5-6.2-0.3-3.1-3-5.402-6.2-5zm1 9.2c-2 0.2-3.801-1.3-4-3.2-0.2-2 1.199-3.8 3.199-4h0.398c1.903 0 3.403 1.4 3.602 3.302 0.3 1.898-1.2 3.699-3.2 3.898z"></path>
 <path d="m86.426 29.523c-0.102-0.5-0.5-0.898-1-0.898l-4.903-0.2c-0.296-0.698-0.597-1.402-1-2-0.398-0.6-0.898-1.198-1.398-1.8l1.898-4.602c0.204-0.5 0-1-0.398-1.199-1.2-0.8-2.602-1.5-3.898-2-0.5-0.199-1 0-1.204 0.403l-2.699 4.199c-1.5-0.2-3.097-0.2-4.5 0.199l-3-3.898c-0.3-0.403-0.8-0.5-1.3-0.301-1.297 0.699-2.5 1.5-3.7 2.398-0.398 0.301-0.5 0.801-0.3 1.301l2.3 4.398c-0.8 0.903-1.398 2-1.8 3.102-0.297-1.3-0.598-2.5-1-3.7-0.2-0.5-0.598-0.698-1.098-0.6l-4.801 0.902c-0.5-1.102-1.2-2.204-1.898-3.301l3.199-3.801c0.3-0.398 0.3-0.898 0-1.3-0.903-1.098-2-2.2-3.102-3.098a1.05 1.05 0 0 0 -1.3 0l-3.797 3.199c-1.102-0.7-2.204-1.403-3.301-1.903l0.898-4.796c0.102-0.5-0.199-1-0.597-1.102-1.403-0.5-2.801-0.898-4.204-1.102-0.5-0.097-1 0.204-1.097 0.602l-1.7 4.602a23.744 23.744 0 0 0 -3.8 0l-1.7-4.602c-0.203-0.5-0.601-0.7-1.101-0.602-1.398 0.301-2.898 0.602-4.2 1.102-0.5 0.2-0.698 0.602-0.6 1.102l0.902 4.796c-1.102 0.5-2.204 1.204-3.301 1.903l-3.801-3.2a1.05 1.05 0 0 0 -1.3 0c-1.098 0.899-2.2 2-3.098 3.098-0.301 0.403-0.301 0.903 0 1.301l3.199 3.7c-0.7 1.1-1.403 2.198-1.903 3.3l-4.796-0.898c-0.5-0.102-1 0.199-1.102 0.597-0.5 1.403-0.898 2.801-1.102 4.2-0.097 0.5 0.204 1 0.602 1.101l4.602 1.7c-0.102 0.698-0.102 1.3-0.102 1.902 0 0.597 0 1.199 0.102 1.898l-4.602 1.7c-0.5 0.198-0.7 0.6-0.602 1.1 0.301 1.5 0.602 2.9 1.102 4.2 0.2 0.5 0.602 0.7 1.102 0.602l4.796-0.903c0.5 1.102 1.204 2.2 1.903 3.301l-3.2 3.8c-0.3 0.4-0.3 0.9 0 1.302 0.899 1.097 2 2.199 3.098 3.097 0.403 0.301 0.903 0.301 1.301 0l3.8-3.199c1.098 0.7 2.2 1.398 3.302 1.898l-0.903 4.801c-0.097 0.5 0.2 1 0.602 1.102 1.398 0.5 2.8 0.898 4.199 1.097h0.398c-0.199 0.301-0.097 0.801 0.102 1.102l3.102 3.7c-0.903 1.5-1.5 3-1.903 4.6l-4.898 0.4a0.9 0.9 0 0 0 -0.903 0.902 33.054 33.054 0 0 0 0 4.398c0 0.5 0.403 0.898 0.903 0.898l4.898 0.403c0.403 1.597 1 3 1.801 4.398l-3.102 3.7a1.061 1.061 0 0 0 0 1.3c0.903 1.102 2 2.2 3.102 3.102 0.398 0.3 0.898 0.3 1.3 0l3.7-3.102c1.398 0.801 2.8 1.403 4.398 1.801l0.403 4.898c0 0.5 0.398 0.903 0.898 0.903 0.7 0.097 1.5 0.097 2.2 0.097 0.703 0 1.5 0 2.203-0.097 0.5 0 0.898-0.403 0.898-0.903l0.398-4.898c1.602-0.398 3-1 4.403-1.8l3.699 3.1c0.398 0.302 0.898 0.302 1.3 0 1.098-0.902 2.2-2 3.098-3.1 0.301-0.4 0.301-0.9 0-1.302l-3.097-3.699c0.8-1.398 1.398-2.8 1.8-4.398l4.899-0.403c0.5 0 0.898-0.398 0.898-0.898a31.776 31.776 0 0 0 0 -4.398c0-0.5-0.398-0.903-0.898-0.903l-4.898-0.398c-0.403-1.602-1-3-1.801-4.403l3.097-3.699c0.301-0.398 0.301-0.898 0-1.3-0.898-1.098-2-2.098-3.097-3.098a1.05 1.05 0 0 0 -1.301 0l-3.7 3.097c-1.402-0.796-2.8-1.398-4.402-1.796l-0.398-4.403 0.7 0.602c0.402 0.3 0.902 0.3 1.3 0 1.102-0.903 2.2-2 3.102-3.102a1.061 1.061 0 0 0 0 -1.3l-3.204-3.797c0.704-1.102 1.403-2.204 1.903-3.301l4.8 0.898c0.5 0.102 1-0.199 1.098-0.597 0.5-1.403 0.903-2.801 1.102-4.204 0.097-0.5-0.2-1-0.602-1.097l-2.597-0.903 3.097 0.102c0.301 0.7 0.602 1.398 1 2 0.403 0.602 0.903 1.2 1.403 1.8l-1.903 4.598c-0.199 0.5 0 1 0.403 1.204 1.199 0.796 2.5 1.398 3.898 2 0.102 0.097 0.3 0.097 0.398 0.097 0.301 0 0.704-0.199 0.801-0.5l2.602-4.199c1.5 0.2 3.097 0.2 4.5-0.2l3 3.9c0.3 0.402 0.8 0.5 1.3 0.3 1.297-0.7 2.5-1.5 3.7-2.398 0.398-0.301 0.5-0.801 0.3-1.301l-2.3-4.403c1-1.199 1.699-2.597 2.097-4l4.903-0.597c0.5-0.102 0.898-0.5 0.898-1 0.403-1.5 0.301-2.903 0.102-4.403zm-56.2 29.204l1.5-4.204c1.399 0.102 2.5 0.102 3.797 0l1.704 4.602c0 0.102 0.097 0.102 0.097 0.2l-3.5-2.9a1.05 1.05 0 0 0 -1.3 0zm12.2-6.102s0.097 0 0.097-0.102c0 0.102-0.097 0.204-0.097 0.204zm10.5 9c0.398 0.3 0.898 0.2 1.199-0.102l3.602-3.097c0.597 0.5 1.199 1.097 1.699 1.699l-3 3.7c-0.301 0.3-0.301 0.8-0.102 1.198 1 1.5 1.7 3.204 2.102 5 0.097 0.403 0.5 0.801 0.898 0.801l4.801 0.403v2.398l-4.8 0.398c-0.4 0-0.802 0.403-0.9 0.801-0.3 1.801-1 3.5-2.1 5-0.302 0.403-0.2 0.903 0.1 1.2l3.098 3.601c-0.5 0.602-1.097 1.102-1.699 1.7l-3.597-3.098c-0.301-0.301-0.801-0.301-1.204-0.102-1.5 1-3.199 1.7-5 2.102-0.398 0.097-0.796 0.5-0.796 0.898l-0.403 4.8h-2.398l-0.403-4.8c0-0.398-0.398-0.8-0.796-0.898-1.801-0.301-3.5-1-5-2.102-0.403-0.3-0.903-0.2-1.204 0.102l-3.597 3.097c-0.602-0.5-1.102-1.097-1.7-1.699l3.098-3.602c0.301-0.296 0.301-0.796 0.102-1.199-1-1.5-1.7-3.199-2.102-5-0.097-0.398-0.5-0.8-0.898-0.8l-4.801-0.399v-2.398l4.7-0.403c0.402 0 0.8-0.398 0.902-0.8 0.296-1.797 1-3.5 2.097-5 0.301-0.399 0.2-0.899-0.097-1.2l-3.102-3.597c0.5-0.602 1.102-1.102 1.7-1.704l3.6 3.102c0.302 0.3 0.802 0.3 1.2 0.102 1.5-1 3.2-1.704 5-2.102 0.398-0.102 0.8-0.5 0.8-0.898l0.4-4.801h2.402l0.398 4.8c0 0.399 0.398 0.797 0.8 0.899 1.802 0.2 3.5 0.898 5 2zm-9.102-9.7c0.602-0.402 1.301-0.698 1.903-1.198l1.398 1.199a17.917 17.917 0 0 0 -3.3 0zm13.102-10.698l-4.7-0.801c-0.5-0.102-0.902 0.199-1.101 0.597-0.602 1.5-1.398 2.903-2.5 4.204-0.3 0.398-0.3 0.898 0 1.296l3.102 3.704c-0.5 0.597-1.102 1.097-1.704 1.699l-3.699-3.102a1.05 1.05 0 0 0 -1.3 0c-1.297 1-2.797 1.903-4.2 2.5-0.398 0.2-0.699 0.602-0.597 1.102l0.796 4.699c-0.699 0.2-1.5 0.398-2.296 0.602l-1.602-4.5a0.962 0.962 0 0 0 -0.898 -0.704h-0.102c-1.8 0.204-3 0.204-4.898 0-0.5-0.097-0.903 0.204-1.102 0.704l-1.602 4.5c-0.796-0.204-1.5-0.403-2.296-0.602l0.796-4.7c0.102-0.5-0.199-0.902-0.597-1.1-1.5-0.598-2.903-1.4-4.2-2.5a1.05 1.05 0 0 0 -1.3 0l-3.602 3c-0.597-0.5-1.097-1.098-1.699-1.7l3.102-3.7a1.061 1.061 0 0 0 0 -1.3c-1-1.3-1.801-2.8-2.5-4.2-0.204-0.402-0.602-0.698-1.102-0.6l-4.8 0.8c-0.2-0.7-0.4-1.5-0.598-2.3l4.5-1.598c0.398-0.204 0.699-0.602 0.699-1.102-0.102-0.898-0.2-1.7-0.2-2.398 0-0.704 0.098-1.5 0.2-2.403 0.097-0.5-0.2-0.898-0.7-1.097l-4.402-1.602c0.2-0.8 0.403-1.5 0.602-2.3l4.8 0.8c0.5 0.102 0.899-0.2 1.098-0.602a15.17 15.17 0 0 1 2.5 -4.199c0.301-0.398 0.301-0.898 0-1.3l-3.097-3.7c0.5-0.597 1.097-1.097 1.699-1.699l3.699 3.102c0.398 0.296 0.898 0.296 1.3 0 1.302-1 2.7-1.801 4.2-2.5 0.398-0.204 0.7-0.602 0.602-1.102l-0.801-4.7c0.8-0.198 1.5-0.402 2.3-0.6l1.598 4.5c0.2 0.402 0.602 0.698 1.102 0.698 1.898-0.199 3-0.199 4.898 0 0.5 0.102 0.903-0.199 1.102-0.699l1.597-4.5c0.801 0.2 1.5 0.403 2.301 0.602l-0.8 4.699c-0.098 0.5 0.203 0.898 0.601 1.102 1.5 0.597 2.898 1.398 4.2 2.5 0.402 0.296 0.902 0.296 1.3 0l3.7-3.102c0.6 0.5 1.1 1.102 1.698 1.7l-3.097 3.698c-0.301 0.403-0.301 0.903 0 1.301 1 1.301 1.898 2.801 2.5 4.2 0.199 0.402 0.597 0.703 1.097 0.601l4.704-0.8c0.199 0.698 0.398 1.5 0.597 2.3l-4.5 1.602c-0.398 0.199-0.699 0.597-0.699 1.097 0.102 0.903 0.2 1.7 0.2 2.403 0 0.699-0.098 1.5-0.2 2.398-0.102 0.5 0.2 0.898 0.7 1.102l4.5 1.597c-0.5 0.903-0.7 1.602-0.9 2.403zm23-7.602c-0.403 0.102-0.801 0.398-0.801 0.8-0.3 1.598-1.102 3.098-2.2 4.302-0.3 0.296-0.3 0.796-0.1 1.097l2.198 4.2c-0.597 0.5-1.296 0.902-2 1.3l-2.898-3.8c-0.3-0.297-0.7-0.5-1.102-0.297-1.597 0.5-3.296 0.597-4.898 0.199-0.398-0.102-0.8 0.097-1.102 0.398l-2.5 4c-0.699-0.3-1.398-0.699-2.097-1.097l1.8-4.403c0.2-0.398 0.098-0.8-0.3-1.097-0.602-0.602-1.2-1.204-1.602-1.903-0.398-0.699-0.8-1.398-1-2.199-0.097-0.398-0.5-0.7-0.898-0.7l-4.801-0.198c-0.102-0.801-0.102-1.602-0.102-2.403l4.704-0.597c0.398-0.102 0.796-0.403 0.796-0.801 0.301-1.602 1.102-3.102 2.204-4.301 0.296-0.3 0.296-0.8 0.097-1.102l-2.199-4.199c0.602-0.5 1.3-0.898 2-1.3l2.898 3.8c0.301 0.301 0.704 0.5 1.102 0.301 1.602-0.5 3.3-0.602 4.898-0.2 0.403 0.098 0.801-0.1 1.102-0.402l2.5-4c0.7 0.301 1.398 0.704 2.102 1.102l-1.801 4.398c-0.2 0.403-0.102 0.801 0.3 1.102 0.598 0.602 1.2 1.2 1.598 1.898 0.403 0.704 0.801 1.403 1 2.204 0.102 0.398 0.5 0.699 0.903 0.699l4.796 0.199c0.102 0.8 0.102 1.602 0.102 2.398z"></path>
 <path d="m39.926 72.426a5.59 5.59 0 0 0 5.597 5.597 5.59 5.59 0 0 0 5.602 -5.597c0-3.102-2.5-5.602-5.602-5.602-3.097-0.097-5.597 2.5-5.597 5.602zm9.3 0c0 2-1.601 3.597-3.601 3.597s-3.602-1.597-3.602-3.597 1.602-3.602 3.602-3.602c2 0 3.602 1.602 3.602 3.602zm-15.5-48.301c-1.203 0-2.5 0.2-3.601 0.7-0.3 0.1-0.398 0.402-0.3 0.698 0.1 0.301 0.402 0.403 0.698 0.301 1-0.398 2.102-0.597 3.204-0.597 4.796 0 8.597 3.898 8.597 8.597 0 4.801-3.898 8.602-8.597 8.602-4.801 0-8.602-3.903-8.602-8.602 0-1.699 0.5-3.3 1.398-4.699 0.204-0.2 0.102-0.5-0.097-0.7-0.2-0.198-0.5-0.1-0.7 0.098-1 1.602-1.601 3.403-1.601 5.301 0 5.301 4.3 9.602 9.602 9.602 5.296 0 9.597-4.301 9.597-9.602 0-5.398-4.3-9.699-9.597-9.699z"></path>
 <path d="m35.926 72.426c0 5.3 4.3 9.597 9.597 9.597 2.704 0 5.301-1.199 7.102-3.199 0.2-0.199 0.2-0.5 0-0.699-0.2-0.2-0.5-0.2-0.7 0-1.6 1.8-4 2.8-6.402 2.8-4.796 0-8.597-3.902-8.597-8.6 0-4.7 3.898-8.598 8.597-8.598 4.704 0 8.602 3.898 8.602 8.597 0 0.602-0.102 1.2-0.2 1.7-0.1 0.3 0.098 0.5 0.4 0.601 0.3 0.102 0.5-0.102 0.6-0.398 0.098-0.602 0.2-1.301 0.2-1.903 0-5.3-4.3-9.597-9.602-9.597-5.296 0.097-9.597 4.398-9.597 9.699z"></path>
</svg>
