<?xml version="1.0"?>

<svg width="74.1" xmlns="http://www.w3.org/2000/svg" viewBox="0 0 74.1 105.8" height="105.8">
 <path d="m37.2 97.8c-12.2 0-17-2.6-18.802-4.1l-0.796-0.598 0.296-4.903-1.199-0.8c-4.597-3.298-8.699-6.899-8.699-14.001v-0.098l1-12.403c0.602-7.699 1.8-22 21.3-22h13.5c19.2 0 20.598 14.301 21.302 22l1 12.5c0 7.102-4 10.5-8.704 14.102l-1.199 0.898 0.301 5-0.8 0.704c-1.803 1.199-6.7 3.699-18.5 3.699zm0-61.8c-7.7 0-14-6.3-14-14s6.3-14 14-14c7.698 0 14 6.3 14 14s-6.302 14-14 14zm-12-14c0 6.602 5.402 12 12 12 6.6 0 12-5.398 12-12s-5.4-12-12-12c-6.598-0.102-12 5.3-12 12zm39 51.3l-1-12.402c-0.9-8.698-2.7-20.198-19.303-20.198h-13.397c-16.7 0-18.602 10.903-19.3 20.2l-1 12.402c0 5.898 3.198 8.898 7.8 12.398l1.898-26.7c0-0.5 0.403-0.898 0.903-0.898s0.898 0.398 0.898 0.898l-1.898 33v0.2c1.3 1.1 5.597 3.6 17.5 3.6 11.5 0 15.898-2.3 17.3-3.5l-1.901-33.3c0-0.5 0.403-0.898 0.903-0.898s0.898 0.398 0.898 0.898l1.898 26.8c4.601-3.6 7.801-6.6 7.801-12.5z"></path>
 <path d="m37.398 46.3h-1.198c-0.3 0-0.5-0.1-0.699-0.3-1.602-1.8-2.8-5.7-2.8-5.898-0.2-0.5 0.198-1.102 0.698-1.204 0.5-0.199 1.102 0.204 1.204 0.704 0.296 0.898 1.097 3.398 2.097 4.796h0.7l0.601-0.097c0.602-1.2 1.7-3.5 1.898-4.7a1.04 1.04 0 0 1 1.204 -0.8c0.5 0.097 0.898 0.597 0.796 1.199-0.398 1.8-2.296 5.5-2.296 5.602-0.204 0.296-0.5 0.5-0.801 0.5z"></path>
 <path d="m37.2 93.102c-0.2 0-0.5-0.102-0.7-0.204l-4.5-3.898c-0.2-0.2-0.398-0.5-0.3-0.8l2.902-42.9c0-0.6 0.5-1 1.097-0.902 0.5 0 1 0.5 0.903 1.102l-2.903 42.398 3.5 3 3.5-3-2.898-42.898c0-0.602 0.398-1 0.898-1.102 0.602 0 1 0.403 1.102 0.903l2.898 43.398c0 0.301-0.097 0.602-0.3 0.801l-4.5 3.898c-0.2 0.102-0.5 0.204-0.7 0.204z"></path>
</svg>
