<?xml version="1.0"?>

<svg width="88.628" xmlns="http://www.w3.org/2000/svg" viewBox="0 0 88.6275 128.125" height="128.12">
 <path d="m44.5 8c-9.625 0-17.5 7.875-17.5 17.5s7.875 17.5 17.5 17.5 17.5-7.875 17.5-17.5-7.875-17.5-17.5-17.5zm0 2.371c8.254 0 15 6.754 15 15 0 8.254-6.746 15-15 15-8.246 0-15-6.746-15-15 0-8.246 6.754-15 15-15zm-8.625 36.129c-24.375 0-25.871 17.875-26.625 27.5l-1.25 15.5v0.125c0 8.871 5.129 13.375 10.875 17.5l1.496 1.004-0.367 6.121 0.992 0.754c2.254 1.875 8.254 5.121 23.504 5.121 14.75 0 20.875-3 23.125-4.625l1-0.875-0.375-6.25 1.496-1.129c5.883-4.496 10.883-8.75 10.883-17.621v-2.5h-0.258l-0.991-13.129c-0.883-9.625-2.629-27.5-26.629-27.5zm0.25 2.254h16.746c20.754 0 23.009 14.371 24.129 25.246l1.25 15.5c0 7.5-4 11.25-9.754 15.625l-2.371-33.504c0-0.625-0.496-1.121-1.121-1.121a1.12 1.12 0 0 0 -1.129 1.121l2.379 41.629c-1.754 1.5-7.254 4.375-21.629 4.375-14.879 0-20.25-3.125-21.875-4.496v-0.258l2.375-41.25c0-0.625-0.5-1.121-1.125-1.121a1.12 1.12 0 0 0 -1.129 1.121l-2.371 33.39c-5.754-4.375-9.75-8.125-9.75-15.504l1.25-15.496c0.875-11.625 3.25-25.246 24.125-25.246zm-2.629 3.125c-0.965 0-1.746 0.781-1.746 1.746s0.785 1.75 1.75 1.75 1.75-0.785 1.75-1.75-0.785-1.75-1.754-1.746zm22.004 0a1.745 1.745 0 1 0 -0.001 3.49 1.745 1.745 0 0 0 0.001 -3.49zm-20.25 5a1.752 1.752 0 0 0 -1.754 1.746c0.004 0.965 0.79 1.75 1.754 1.746a1.745 1.745 0 1 0 0 -3.492zm18 0a1.745 1.745 0 1 0 0 3.492 1.752 1.752 0 0 0 1.754 -1.746 1.752 1.752 0 0 0 -1.754 -1.746zm-14.625 4.375a1.745 1.745 0 1 0 -0.001 3.49 1.745 1.745 0 0 0 0.001 -3.49zm11.25 0a1.745 1.745 0 1 0 -0.001 3.49 1.745 1.745 0 0 0 0.001 -3.49zm-5.496 1.617a1.753 1.753 0 0 0 -0.004 3.504 1.75 1.75 0 0 0 1.684 -1.75 1.75 1.75 0 0 0 -1.684 -1.75z"></path>
</svg>
