<?xml version="1.0"?>

<svg width="84.4" xmlns="http://www.w3.org/2000/svg" viewBox="0 0 84.4 48.6" height="48.6">
 <path d="m12.5 18.102c0 0.097-0.102 0.199-0.102 0.296v16.802c0 0.602 0.403 1 1 1h57.5c0.602 0 1-0.398 1-1v-16.8c0-0.098 0-0.2-0.097-0.297 0.097-0.5-0.102-0.903-0.5-1.204l-9.102-4.399c-0.097-0.102-0.3-0.102-0.398-0.102h-37.801c-0.102 0-0.3 0-0.398 0.102l-10.602 4.398c-0.398 0.204-0.602 0.704-0.5 1.204zm11.7-3.704h37.3l6.2 3h-50.599zm-9.802 5.204h55.5v14.597h-55.5z"></path>
 <path d="m20.898 26.8a1.397 1.397 0 1 1 -2.797 0 1.4 1.4 0 0 1 1.399 -1.402 1.4 1.4 0 0 1 1.398 1.403zm4.902 0a1.4 1.4 0 1 1 -2.8 -0.003 1.4 1.4 0 0 1 2.8 0.004zm40.9-4.5h-3c-0.302 0-0.5 0.2-0.5 0.5v8c0 0.302 0.198 0.5 0.5 0.5h3c0.3 0 0.5-0.198 0.5-0.5v-8c0-0.3-0.2-0.5-0.5-0.5zm-0.5 8h-2v-7h2zm-5.5-8h-3c-0.302 0-0.5 0.2-0.5 0.5v8c0 0.302 0.198 0.5 0.5 0.5h3c0.3 0 0.5-0.198 0.5-0.5v-8c0-0.3-0.2-0.5-0.5-0.5zm-0.5 8h-2v-7h2zm-16.599 8.7h-2c-0.403 0-0.801 0.3-0.801 0.8s0.3 0.802 0.8 0.802h2c0.399 0 0.797-0.301 0.797-0.801s-0.397-0.801-0.795-0.801zm5 0h-2c-0.403 0-0.801 0.3-0.801 0.8s0.3 0.802 0.8 0.802h2c0.399 0 0.797-0.301 0.797-0.801s-0.397-0.801-0.795-0.801zm-38.703-24.2c-0.398-0.198-0.796-0.1-1 0.302-0.398 0.698-0.698 1.398-0.698 2.198 0 0.398 0.2 0.8 0.7 0.8h0.1c0.398 0 0.7-0.3 0.7-0.703 0.1-0.597 0.3-1.097 0.5-1.597 0.198-0.301 0.1-0.801-0.302-1zm18.602 24.2h-2c-0.398 0-0.8 0.3-0.8 0.8s0.3 0.802 0.8 0.802h2c0.398 0 0.8-0.301 0.8-0.801s-0.401-0.801-0.8-0.801zm-10 0h-2c-0.398 0-0.8 0.3-0.8 0.8s0.3 0.802 0.8 0.802h2c0.398 0 0.8-0.301 0.8-0.801s-0.401-0.801-0.8-0.801zm-5.102 0c-0.597 0-1.097-0.102-1.597-0.398-0.403-0.204-0.801 0-1 0.398-0.2 0.398 0 0.8 0.398 1 0.7 0.3 1.5 0.5 2.301 0.5 0.398 0 0.7-0.3 0.7-0.8 0-0.302-0.4-0.7-0.802-0.7zm40.204 0h-2c-0.403 0-0.801 0.3-0.801 0.8s0.3 0.802 0.8 0.802h2c0.399 0 0.797-0.301 0.797-0.801s-0.398-0.801-0.796-0.801zm-30.102 0h-2c-0.398 0-0.8 0.3-0.8 0.8s0.3 0.802 0.8 0.802h2c0.398 0 0.8-0.301 0.8-0.801s-0.401-0.801-0.8-0.801zm10 0h-2c-0.398 0-0.8 0.3-0.8 0.8s0.3 0.802 0.8 0.802h2c0.398 0 0.8-0.301 0.8-0.801s-0.401-0.801-0.8-0.801zm42.102-5c-0.403 0-0.801 0.3-0.801 0.8v0.5c0 0.4-0.102 0.9-0.2 1.302-0.101 0.398 0.098 0.796 0.5 1h0.2c0.3 0 0.597-0.204 0.699-0.5 0.2-0.602 0.3-1.204 0.3-1.801v-0.5c0-0.5-0.3-0.801-0.698-0.801zm-17 5h-2c-0.403 0-0.801 0.3-0.801 0.8s0.3 0.802 0.8 0.802h2c0.399 0 0.797-0.301 0.797-0.801s-0.398-0.801-0.796-0.801zm17-15.102c-0.403 0-0.801 0.301-0.801 0.801v2c0 0.403 0.3 0.801 0.8 0.801s0.797-0.3 0.797-0.8v-2c-0.097-0.4-0.398-0.802-0.796-0.802zm0-5c-0.403 0-0.801 0.301-0.801 0.801v2c0 0.403 0.3 0.801 0.8 0.801s0.797-0.3 0.797-0.8v-2c-0.097-0.4-0.398-0.802-0.796-0.802zm0 10c-0.403 0-0.801 0.301-0.801 0.801v2c0 0.403 0.3 0.801 0.8 0.801s0.797-0.3 0.797-0.8v-2c-0.097-0.4-0.398-0.802-0.796-0.802zm-12 10.102h-2c-0.403 0-0.801 0.3-0.801 0.8s0.3 0.802 0.8 0.802h2c0.399 0 0.797-0.301 0.797-0.801s-0.398-0.801-0.796-0.801zm5 0h-2c-0.403 0-0.801 0.3-0.801 0.8s0.3 0.802 0.8 0.802h2c0.399 0 0.797-0.301 0.797-0.801s-0.398-0.801-0.796-0.801zm4.5-0.602c-0.5 0.301-1 0.5-1.602 0.602-0.398 0.102-0.7 0.398-0.602 0.898 0.102 0.403 0.403 0.602 0.704 0.602h0.097c0.801-0.102 1.5-0.398 2.2-0.8 0.3-0.2 0.402-0.7 0.203-1-0.204-0.4-0.704-0.5-1-0.302zm-34.602 0.602h-2c-0.398 0-0.8 0.3-0.8 0.8s0.3 0.802 0.8 0.802h2c0.398 0 0.8-0.301 0.8-0.801s-0.3-0.801-0.8-0.801zm7.398-29.5h2c0.403 0 0.801-0.3 0.801-0.8s-0.3-0.7-0.8-0.7h-2c-0.399 0-0.7 0.3-0.7 0.8s0.301 0.7 0.7 0.7zm10.102 0h2c0.398 0 0.8-0.3 0.8-0.8s-0.401-0.7-0.8-0.7h-2c-0.5 0-0.8 0.3-0.8 0.8s0.3 0.7 0.8 0.7zm-20.102 0h2c0.403 0 0.801-0.3 0.801-0.8s-0.398-0.7-0.8-0.7h-2c-0.399 0-0.7 0.3-0.7 0.8s0.301 0.7 0.7 0.7zm5 0h2c0.403 0 0.801-0.3 0.801-0.8s-0.398-0.7-0.8-0.7h-2c-0.399 0-0.7 0.3-0.7 0.8s0.301 0.7 0.7 0.7zm10.102 0h2c0.398 0 0.8-0.3 0.8-0.8s-0.401-0.7-0.8-0.7h-2c-0.5 0-0.8 0.3-0.8 0.8s0.3 0.7 0.8 0.7zm18.898 3.5l1.801 0.898c0.102 0.102 0.2 0.102 0.301 0.102 0.3 0 0.5-0.2 0.7-0.398 0.198-0.403 0-0.801-0.302-1l-1.796-0.903c-0.403-0.199-0.801 0-1 0.301-0.204 0.398-0.102 0.898 0.296 1zm-8.898-3.5h0.8c0.302 0 0.7 0 1 0.102h0.2c0.3 0 0.602-0.204 0.7-0.602 0.1-0.398-0.098-0.8-0.5-0.898-0.5 0-1-0.102-1.4-0.102h-0.8c-0.398 0-0.8 0.3-0.8 0.8 0 0.4 0.402 0.7 0.8 0.7zm13.7 7.398c0.1 0.301 0.402 0.602 0.698 0.602h0.204c0.398-0.102 0.597-0.5 0.5-0.898-0.204-0.801-0.602-1.5-1.102-2.102-0.3-0.3-0.7-0.398-1.102-0.102-0.296 0.301-0.398 0.704-0.097 1.102 0.5 0.3 0.699 0.8 0.898 1.398zm-9.302-6.097l1.801 0.898c0.102 0.102 0.2 0.102 0.301 0.102 0.3 0 0.5-0.2 0.7-0.403 0.198-0.398 0-0.796-0.302-1l-1.796-0.898c-0.403-0.2-0.801 0-1 0.3-0.301 0.4-0.102 0.9 0.296 1zm-56.597 17.299c0.398 0 0.8-0.3 0.8-0.8v-2c0-0.403-0.3-0.801-0.8-0.801s-0.801 0.301-0.801 0.801v2c0.102 0.5 0.398 0.802 0.8 0.802zm3-13.8c0.097 0 0.199 0 0.3-0.102l1.797-0.8c0.403-0.2 0.602-0.598 0.403-1-0.2-0.399-0.602-0.598-1-0.399l-1.801 0.8c-0.398 0.2-0.602 0.598-0.398 1 0.097 0.302 0.398 0.5 0.699 0.5zm-3 8.8c0.398 0 0.8-0.3 0.8-0.8v-2c0-0.403-0.3-0.801-0.8-0.801s-0.801 0.301-0.801 0.801v2c0.102 0.5 0.398 0.802 0.8 0.802zm0.8 12.297c0-0.398-0.402-0.796-0.8-0.699-0.403 0-0.7 0.403-0.7 0.801 0 0.8 0.2 1.5 0.598 2.2 0.102 0.3 0.403 0.402 0.7 0.402 0.101 0 0.203 0 0.3-0.102 0.403-0.2 0.5-0.602 0.301-1-0.2-0.5-0.398-1.102-0.398-1.602zm-0.8-2.296c0.398 0 0.8-0.301 0.8-0.801v-2c0-0.403-0.3-0.801-0.8-0.801s-0.7 0.5-0.7 0.898v2c0 0.403 0.297 0.704 0.7 0.704zm12.199-22.703c0.102 0 0.2 0 0.3-0.097l1.2-0.5c0.2-0.102 0.398-0.102 0.602-0.2 0.398-0.101 0.597-0.5 0.5-0.902-0.102-0.398-0.5-0.597-0.903-0.5-0.3 0.102-0.5 0.2-0.8 0.301l-1.2 0.5c-0.398 0.2-0.597 0.602-0.398 1 0.199 0.2 0.398 0.398 0.699 0.398zm4.898-0.898h2c0.403 0 0.801-0.3 0.801-0.8s-0.398-0.7-0.8-0.7h-2c-0.399 0-0.797 0.3-0.797 0.8s0.398 0.7 0.796 0.7zm5 0h2c0.403 0 0.801-0.3 0.801-0.8s-0.398-0.7-0.8-0.7h-2c-0.399 0-0.797 0.3-0.797 0.8s0.398 0.7 0.796 0.7zm-14.5 2.8c0.102 0 0.204 0 0.301-0.1l1.801-0.802c0.398-0.199 0.602-0.597 0.398-1-0.199-0.398-0.597-0.597-1-0.398l-1.796 0.8c-0.403 0.2-0.602 0.598-0.403 1 0.102 0.4 0.403 0.5 0.7 0.5z"></path>
</svg>
