<?xml version="1.0"?>

<svg xmlns="http://www.w3.org/2000/svg" height="120.4" width="120.4" version="1.1" viewBox="0 0 120.4 120.398">
 <defs>
  <linearGradient id="linear0" y2="98.589" gradientUnits="userSpaceOnUse" x2="99.456" gradientTransform="translate(-11.8 -11.801)" y1="43.791" x1="44.658">
   <stop stop-color="#e5e5e5" offset="0"></stop>
   <stop stop-color="#f6f6f6" offset=".5"></stop>
   <stop stop-color="#c3c3c3" offset="1"></stop>
  </linearGradient>
 </defs>
 <g id="surface1">
  <path fill="#dedede" d="m60.199 8c28.832 0 52.201 23.371 52.201 52.199s-23.373 52.201-52.201 52.201-52.199-23.373-52.199-52.205c0.0039-28.824 23.371-52.195 52.199-52.195z"></path>
  <path d="m80.215 93.398c0 1.106-0.895 2-2 2h-35.914c-1.106 0-2-0.894-2-2v-68.019c0-1.106 0.894-2 2-2h35.914c1.105 0 2 0.894 2 2z" fill="url(#linear0)"></path>
  <path d="m72.879 44.996l-14.891 10c-0.234 0.16-0.297 0.481-0.136 0.719 0.101 0.148 0.261 0.226 0.425 0.226 0.106 0 0.203-0.027 0.293-0.086l14.891-10.003c0.238-0.161 0.301-0.481 0.141-0.715-0.164-0.239-0.485-0.301-0.723-0.141"></path>
  <path d="m65.363 53.914l-11.797 7.969c-0.238 0.16-0.3 0.48-0.14 0.719 0.101 0.148 0.262 0.23 0.429 0.23 0.098 0 0.204-0.031 0.29-0.09l11.793-7.969c0.238-0.16 0.304-0.484 0.14-0.718-0.156-0.239-0.48-0.297-0.715-0.141"></path>
  <path d="m77.445 22.316h-34.488c-2.141 0-3.883 1.743-3.883 3.883v66.489c0 2.14 1.742 3.882 3.883 3.882h34.488c2.141 0 3.879-1.742 3.879-3.882v-66.489c0-2.14-1.738-3.883-3.879-3.883m-34.488 2h34.488c1.035 0 1.879 0.844 1.879 1.883v8.496h-38.25v-8.496c0-1.039 0.848-1.883 1.883-1.883m36.367 58.875h-38.25v-47.496h38.25zm-1.879 11.379h-34.488c-1.035 0-1.883-0.843-1.883-1.882v-8.497h38.25v8.497c0 1.039-0.844 1.882-1.879 1.882"></path>
  <path d="m56.812 30.234h6.778c0.41 0 0.75-0.336 0.75-0.75s-0.34-0.75-0.75-0.75h-6.778c-0.414 0-0.75 0.336-0.75 0.75s0.336 0.75 0.75 0.75"></path>
  <path d="m53.43 30.48c0.269 0 0.531-0.101 0.711-0.289 0.187-0.183 0.289-0.441 0.289-0.711 0-0.261-0.102-0.519-0.289-0.699-0.36-0.371-1.032-0.383-1.411 0-0.191 0.188-0.3 0.438-0.3 0.699 0 0.27 0.109 0.528 0.3 0.711 0.176 0.188 0.438 0.289 0.7 0.289"></path>
  <path d="m62.145 85.684h-3.891c-1.449 0-2.629 1.179-2.629 2.628v1.903c0 1.449 1.18 2.629 2.629 2.629h3.891c1.449 0 2.628-1.18 2.628-2.629v-1.903c0-1.449-1.179-2.628-2.628-2.628m1.128 4.531c0 0.625-0.507 1.129-1.128 1.129h-3.891c-0.621 0-1.129-0.504-1.129-1.129v-1.903c0-0.621 0.508-1.128 1.129-1.128h3.891c0.621 0 1.128 0.507 1.128 1.128z"></path>
 </g>
</svg>
