<?xml version="1.0"?>

<svg width="96.625" xmlns="http://www.w3.org/2000/svg" viewBox="0 0 96.625 96.7525" height="96.752">
 <path d="m13 8c-2.75 0-5 2.25-5 5v70.754c0 2.746 2.25 5 5 5h70.496c2.879 0 5-2.254 5.129-5.129v-70.625c0-2.75-2.25-5-5-5zm0 2.5h70.625c1.379 0 2.5 1.121 2.5 2.5v70.625c0 1.379-1.121 2.5-2.5 2.5h-70.625a2.502 2.502 0 0 1 -2.5 -2.5v-70.625c0-1.379 1.121-2.5 2.5-2.5zm33.5 20.754l-10.375 29.742h3.375l2.625-7.5h12.254l2.5 7.5h3.621l-10.375-29.742zm1.75 3.621c0.375 1.25 1.25 3.879 1.875 5.875l3.25 9.75h-10.246l3.246-9.625c0.754-2.125 1.625-4.75 1.875-6z"></path>
</svg>
