<?xml version="1.0"?>

<svg xmlns="http://www.w3.org/2000/svg" height="120.4" width="120.4" version="1.1" viewBox="0 0 120.4 120.398">
 <defs>
  <linearGradient id="linear0" y2="93.106" gradientUnits="userSpaceOnUse" x2="96.32" gradientTransform="translate(-11.8 -11.801)" y1="44.467" x1="47.681">
   <stop stop-color="#e5e5e5" offset="0"></stop>
   <stop stop-color="#f6f6f6" offset=".5"></stop>
   <stop stop-color="#c3c3c3" offset="1"></stop>
  </linearGradient>
 </defs>
 <g id="surface1">
  <path fill="#dedede" d="m60.199 8c28.832 0 52.201 23.371 52.201 52.199s-23.373 52.201-52.201 52.201-52.199-23.373-52.199-52.205c0.0039-28.824 23.371-52.195 52.199-52.195z"></path>
  <path d="m87.5 36.887h-54.598c-1.656 0-3 1.343-3 3v34.195c0 1.656 1.344 3 3 3h18.598v4.918h17.414v-4.918h18.586c1.656 0 3-1.344 3-3v-34.195c0-1.657-1.344-3-3-3z" fill="url(#linear0)"></path>
  <path d="m35.566 73.957h49.278c1.379 0 2.496-1.195 2.496-2.672v-28.566c0-1.473-1.117-2.672-2.496-2.672h-49.278c-1.375 0-2.496 1.199-2.496 2.672v28.566c0 1.477 1.121 2.672 2.496 2.672zm-0.996-31.238c0-0.649 0.45-1.172 0.996-1.172h49.278c0.551 0 0.996 0.523 0.996 1.172v28.566c0 0.649-0.445 1.172-0.996 1.172h-49.278c-0.546 0-0.996-0.523-0.996-1.172z"></path>
  <path d="m87.523 35.734h-54.648c-2.23 0-4.047 1.817-4.047 4.047v33.949c0 2.235 1.817 4.051 4.047 4.051h17.762v3.371h-5.461c-0.551 0-1 0.45-1 1 0 0.555 0.449 1 1 1h30.051c0.55 0 1-0.445 1-1 0-0.55-0.45-1-1-1h-5.461v-3.371h17.757c2.235 0 4.047-1.816 4.047-4.051v-33.949c0-2.23-1.812-4.047-4.047-4.047zm-34.89 45.418v-3.007h15.133v3.007zm36.937-7.32c0 1.129-0.918 2.047-2.047 2.047h-54.648c-1.129 0-2.047-0.918-2.047-2.047v-34.051c0-1.129 0.918-2.047 2.047-2.047h54.648c1.129 0 2.047 0.918 2.047 2.047z"></path>
  <path d="m56.969 65.84h-15.746c-1.864 0-3.379-1.516-3.379-3.379v-9.773c0-1.864 1.515-3.379 3.379-3.379h15.742c1.863 0 3.383 1.515 3.383 3.379v9.773c0 1.863-1.516 3.379-3.379 3.379zm-15.746-15.531c-1.313 0-2.379 1.066-2.379 2.379v9.773c0 1.312 1.066 2.379 2.379 2.379h15.742c1.312 0 2.383-1.067 2.383-2.379v-9.773c0-1.309-1.071-2.379-2.383-2.379z"></path>
  <path d="m82.418 53.398h-18.863c-0.278 0-0.5-0.222-0.5-0.5 0-0.273 0.222-0.5 0.5-0.5h18.863c0.277 0 0.5 0.227 0.5 0.5 0 0.278-0.223 0.5-0.5 0.5z"></path>
  <path d="m82.418 58.074h-18.863c-0.278 0-0.5-0.226-0.5-0.5 0-0.277 0.222-0.5 0.5-0.5h18.863c0.277 0 0.5 0.223 0.5 0.5 0 0.274-0.223 0.5-0.5 0.5z"></path>
  <path d="m82.418 62.75h-18.863c-0.278 0-0.5-0.227-0.5-0.5 0-0.277 0.222-0.5 0.5-0.5h18.863c0.277 0 0.5 0.223 0.5 0.5 0 0.273-0.223 0.5-0.5 0.5z"></path>
  <path d="m49.098 62.695c-2.914 0-5.286-2.371-5.286-5.281 0-2.914 2.372-5.281 5.286-5.281 2.91 0 5.281 2.367 5.281 5.281 0 2.91-2.371 5.281-5.281 5.281zm0-9.562c-2.364 0-4.286 1.922-4.286 4.281s1.922 4.281 4.286 4.281c2.359 0 4.281-1.922 4.281-4.281s-1.922-4.281-4.281-4.281z"></path>
  <path d="m47.617 59.957c-0.09 0-0.179-0.023-0.258-0.07-0.148-0.094-0.242-0.254-0.242-0.43v-4.09c0-0.172 0.094-0.332 0.238-0.426 0.149-0.089 0.336-0.097 0.489-0.019l4.015 2.027c0.168 0.082 0.278 0.254 0.278 0.446 0 0.187-0.106 0.359-0.274 0.445l-4.015 2.062c-0.071 0.036-0.153 0.055-0.231 0.055zm0.5-3.777v2.457l2.414-1.239z"></path>
 </g>
</svg>
