<?xml version="1.0"?>

<svg width="75.529" xmlns="http://www.w3.org/2000/svg" viewBox="0 0 75.529092 39.82" height="39.82">
 <g fill="#010101">
  <path d="m67.477 13.754a0.984 0.984 0 0 0 -0.508 -1.152l-9.196-4.5a0.998 0.998 0 0 0 -0.437 -0.102h-37.75a0.975 0.975 0 0 0 -0.395 0.078l-10.582 4.5a0.99 0.99 0 0 0 -0.558 1.176c-0.024 0.086-0.051 0.168-0.051 0.258v16.808a1 1 0 0 0 1 1h57.527a1 1 0 0 0 1 -1v-16.808c0.004-0.09-0.027-0.176-0.05-0.258zm-47.692-3.758h37.32l6.16 3.02h-50.565zm45.746 19.824h-55.531v-14.558h55.531z"></path>
  <path d="m16.434 22.488a1.375 1.375 0 1 1 -2.751 0.001 1.375 1.375 0 0 1 2.75 0zm4.879 0a1.375 1.375 0 1 1 -2.751 0.001 1.375 1.375 0 0 1 2.75 0zm41.453 3.922c0 0.277-0.227 0.5-0.5 0.5h-3a0.501 0.501 0 0 1 -0.5 -0.5v-8c0-0.277 0.226-0.5 0.5-0.5h3c0.273 0 0.5 0.223 0.5 0.5zm-3-0.5h2v-7h-2zm-3 0.5c0 0.277-0.223 0.5-0.5 0.5h-3a0.498 0.498 0 0 1 -0.5 -0.5v-8c0-0.277 0.222-0.5 0.5-0.5h3c0.277 0 0.5 0.223 0.5 0.5zm-3-0.5h2v-7h-2z"></path>
 </g>
</svg>
