<svg xmlns="http://www.w3.org/2000/svg" width="144" height="144" viewBox="0 0 144 144" class="icon stroked icon-storage-stack-virtual  "><path fill="none" stroke="#666" stroke-width="2px" class="long"  d="m 98.09,42.91 0,15.04 c 0,3.8 -11.63,6.8 -26.09,6.8 -14.45,0 -26.08,-3 -26.08,-6.8 l 0,-15.04 m 48.85,39.62 c 2.45,0.55 3.32,1.82 3.32,2.73 l 0,15.04 c 0,3.8 -11.63,6.8 -26.09,6.8 -14.45,0 -26.08,-3 -26.08,-6.8 l 0,-15.04 c 0,-0.91 0.87,-2.18 3.32,-2.73 M 94.77,61.45 c 2.45,0.55 3.32,1.82 3.32,2.73 l 0,15.01 c 0,3.8 -11.63,6.8 -26.09,6.8 -14.45,0 -26.08,-3 -26.08,-6.8 l 0,-15.01 c 0,-0.91 0.87,-2.18 3.32,-2.73 m -3.27,-18.7 c 0,-3.75 11.66,-6.79 26.03,-6.79 14.36,0 26.02,3.04 26.02,6.79" /><path fill="none" stroke="#666" stroke-width="2px" class="short" d="m 93.65,46.72 c -10.32,2.86 -19.89,3.02 -29.79,2.4 m -6.54,-0.78 c -3.17,-0.56 -5.84,-1.3 -7.8,-2.16 m 44.13,41.95 c -10.32,2.86 -19.89,3.02 -29.79,2.4 m -6.54,-0.78 c -3.17,-0.56 -5.84,-1.3 -7.8,-2.16 M 93.65,66.72 c -10.32,2.86 -19.89,3.02 -29.79,2.4 m -6.54,-0.78 c -3.17,-0.56 -5.84,-1.3 -7.8,-2.16" /><path fill="none" stroke="#666" stroke-width="2px" stroke-dasharray="1.1, 3" stroke-linecap="round" class="virtual" d="m 72,31.21 c -7.52,0 -14.32,0.77 -19.6,2.15 -2.64,0.68 -4.9,1.49 -6.87,2.71 -1.65,1.01 -3.46,2.67 -4.04,5.15 a 4.747,4.747 0 0 0 -0.32,1.69 l 0,15.04 c 0,1.24 0.37,2.26 0.87,3.13 -0.51,0.92 -0.87,1.93 -0.87,3.1 l 0,15.01 c 0,1.2 0.35,2.19 0.82,3.04 -0.48,0.9 -0.82,1.89 -0.82,3.03 l 0,15.04 c 0,3.4 2.31,5.5 4.29,6.7 1.98,1.2 4.24,2 6.89,2.7 5.29,1.4 12.1,2.1 19.65,2.1 7.56,0 14.37,-0.7 19.66,-2.1 2.65,-0.7 4.91,-1.5 6.89,-2.7 1.95,-1.2 4.25,-3.3 4.25,-6.7 l 0,-15.04 c 0,-1.14 -0.3,-2.13 -0.8,-3.03 0.5,-0.85 0.8,-1.84 0.8,-3.04 l 0,-15.01 c 0,-1.17 -0.3,-2.18 -0.8,-3.1 0.5,-0.87 0.8,-1.89 0.8,-3.13 l 0,-15.04 a 4.747,4.747 0 0 0 -0.3,-1.77 C 101.9,38.71 100.1,37.07 98.46,36.07 96.49,34.85 94.23,34.04 91.59,33.36 86.31,31.98 79.51,31.21 72,31.21 Z" /></svg>