<?xml version="1.0"?>

<svg xmlns="http://www.w3.org/2000/svg" height="124" width="124" version="1.1" viewBox="0 0 124 124">
 <defs>
  <linearGradient id="linear0" y2="114.25" gradientUnits="userSpaceOnUse" x2="116.81" gradientTransform="translate(-28 -28)" y1="59.393" x1="61.95">
   <stop stop-color="#e5e5e5" offset="0"></stop>
   <stop stop-color="#f2f2f2" offset=".5"></stop>
   <stop stop-color="#bfbfbf" offset="1"></stop>
  </linearGradient>
 </defs>
 <g id="surface1">
  <path fill="#dedede" d="m116 62c0 29.824-24.176 54-54 54s-54-24.176-54-54 24.176-54 54-54 54 24.176 54 54z"></path>
  <path d="m43.199 76.301c0 2.301-1.898 4.097-4.097 4.097-2.301 0-4.102-1.898-4.102-4.097 0-2.301 1.898-4.102 4.102-4.102 2.199 0 4.097 1.801 4.097 4.102zm-3.699-37.903c0-2.898-2.301-5.199-5.199-5.199-2.903 0-5.199 2.301-5.199 5.199 0 2.903 2.296 5.204 5.199 5.204 2.898 0 5.199-2.301 5.199-5.204zm35.398-2.5c2.102 0 3.801-1.699 3.801-3.796 0-2.102-1.699-3.801-3.801-3.801-2.097 0-3.796 1.699-3.796 3.801 0 2.097 1.699 3.796 3.796 3.796zm15.704 22.801c-2.903 0-5.204 2.403-5.204 5.301s2.301 5.199 5.204 5.199c2.898 0 5.199-2.398 5.199-5.199 0.097-2.898-2.301-5.301-5.199-5.301zm-16.5-1.097c0-8.102-6.602-14.704-14.704-14.704-8.097 0-14.699 6.602-14.699 14.704 0 8.097 6.602 14.699 14.699 14.699 8.102 0 14.704-6.602 14.704-14.699zm-1 25.898c-4.204 0-7.602 3.398-7.602 7.602 0 4.199 3.398 7.597 7.602 7.597 4.199 0 7.597-3.398 7.597-7.597 0.102-4.204-3.398-7.602-7.597-7.602z" fill="url(#linear0)"></path>
  <path d="m90.602 58c-2.602 0-4.801 1.699-5.602 4l-10-2.898c0-0.5 0.102-1 0.102-1.5 0-5.403-2.801-10.204-7-13.102l5.398-8.102c0.398 0.102 0.801 0.204 1.301 0.204 2.5 0 4.597-2 4.597-4.602 0-2.5-2-4.602-4.597-4.602-2.5 0-4.602 2-4.602 4.602 0 1.699 0.903 3.199 2.301 4l-5.398 8c-2.301-1.398-5-2.199-7.903-2.199-5.199 0-9.699 2.5-12.597 6.398l-7.704-6.301c0.704-1 1.102-2.199 1.102-3.5 0-3.296-2.699-5.898-6-5.898s-5.898 2.699-5.898 5.898c0 3.301 2.699 6 5.898 6 1.602 0 3.102-0.699 4.199-1.699l7.699 6.403c-1.597 2.5-2.5 5.398-2.5 8.597 0 4.102 1.602 7.903 4.204 10.699l-5.5 4.5c-0.903-0.796-2.102-1.398-3.403-1.398-2.699 0-4.898 2.199-4.898 4.898 0 2.704 2.199 4.903 4.898 4.903s4.903-2.199 4.903-4.903c0-1-0.301-2-0.903-2.796l5.5-4.602c2.801 2.699 6.602 4.301 10.801 4.301 2.301 0 4.398-0.5 6.301-1.301l4.301 11.398c-3.102 1.204-5.301 4.301-5.301 7.801 0 4.602 3.801 8.403 8.398 8.403 4.602 0 8.403-3.801 8.403-8.403 0-4.597-3.801-8.398-8.403-8.398-0.801 0-1.5 0.097-2.199 0.301l-4.301-11.5c4.301-2.301 7.5-6.5 8.301-11.403l9.801 2.801c-0.102 0.301-0.102 0.699-0.102 1.102 0 3.296 2.699 6 6 6s6-2.704 6-6c0.403-3.403-2.301-6.102-5.597-6.102zm-15.704-29c1.704 0 3.102 1.398 3.102 3.102 0 1.699-1.398 3.097-3.102 3.097-1.699 0-3.097-1.398-3.097-3.097 0-1.801 1.398-3.102 3.097-3.102zm-40.597 13.801c-2.5 0-4.403-2-4.403-4.5s2-4.403 4.403-4.403c2.5 0 4.5 2 4.5 4.403 0 2.5-2 4.5-4.5 4.5zm45.699 48.301c0 3.796-3.102 6.898-6.898 6.898-3.801 0-6.903-3.102-6.903-6.898 0-3.801 3.102-6.903 6.903-6.903 3.796 0 6.898 3.102 6.898 6.903zm-40.898-11.403c-1.903 0-3.403-1.5-3.403-3.398 0-1.903 1.5-3.403 3.403-3.403 1.898 0 3.398 1.5 3.398 3.403-0.102 1.898-1.602 3.398-3.398 3.398zm20.296-8.398c-7.597 0-13.699-6.199-13.699-13.699 0-7.602 6.199-13.704 13.699-13.704 7.602 0 13.704 6.204 13.704 13.704s-6.102 13.699-13.704 13.699zm31.204-2.801c-2.5 0-4.5-2-4.5-4.5s2-4.5 4.5-4.5 4.5 2 4.5 4.5-2 4.5-4.5 4.5z"></path>
 </g>
</svg>
