<?xml version="1.0"?>

<svg width="89.778" xmlns="http://www.w3.org/2000/svg" viewBox="0 0 89.77834 87.758316" height="87.758">
 <path d="m81.75 42.5a1.038 1.038 0 0 0 -0.469 -0.652l-21.285-13.25-18.11-20.336a0.777 0.777 0 0 0 -1.093 -0.07l-5.742 5.007-4.813-2.98a1.044 1.044 0 0 0 -1.437 0.332l-11.411 18.031-6.47 5.629a0.777 0.777 0 0 0 -0.07 1.102l1.36 1.53-4.05 6.423a1.054 1.054 0 0 0 -0.134 0.797c0.063 0.269 0.23 0.507 0.47 0.652l23.792 14.675 17.902 20.105a0.765 0.765 0 0 0 0.582 0.262c0.18 0 0.364-0.063 0.508-0.192l5.594-4.87 2.664 1.652a1.053 1.053 0 0 0 1.441 -0.332l6.922-10.926 13.254-11.547a0.778 0.778 0 0 0 0.266 -0.535 0.792 0.792 0 0 0 -0.195 -0.567l-3.149-3.535 3.54-5.61c0.148-0.233 0.198-0.523 0.132-0.796zm-51.73-29.95l3.375 2.09-10.418 9.075zm-19.516 30.943l3.16-5.02 13.856 15.563zm49.258 30.524l-1.23-0.762 3.796-3.305zm-8.918 3.875l-18.637-20.932-0.012-0.027-0.03-0.02-19.63-22.047 28.7-24.996 19.073 21.42 0.015 0.04 0.043 0.026 19.176 21.536zm25.781-30.618l-11.61-13.039 14.262 8.836z"></path>
 <path d="m44.086 27.055a0.776 0.776 0 0 0 -1.09 -0.07l-13.16 11.46a0.803 0.803 0 0 0 -0.266 0.535 0.796 0.796 0 0 0 0.196 0.57l12.604 14.16c0.281 0.321 0.77 0.349 1.09 0.071l3.07-2.676 5.418 6.086a0.776 0.776 0 0 0 1.09 0.07l9.512-8.284a0.812 0.812 0 0 0 0.265 -0.54 0.792 0.792 0 0 0 -0.195 -0.566zm8.516 28.527l-5.418-6.082a0.765 0.765 0 0 0 -0.582 -0.262 0.763 0.763 0 0 0 -0.508 0.192l-3.07 2.672-11.57-13 11.983-10.438 17.5 19.652zm15.363-0.676a0.39 0.39 0 0 0 0.55 0.028 0.385 0.385 0 0 0 0.032 -0.547l-4.23-4.75a0.385 0.385 0 0 0 -0.547 -0.032 0.385 0.385 0 0 0 -0.032 0.547zm-3.665-7.41c0.09 0 0.184-0.031 0.259-0.098l2.98-2.597c0.16-0.14 0.18-0.387 0.035-0.547a0.389 0.389 0 0 0 -0.547 -0.04l-2.984 2.599a0.393 0.393 0 0 0 -0.035 0.55 0.395 0.395 0 0 0 0.293 0.133zm-22.163-21.617a0.387 0.387 0 0 0 0.547 0.031 0.39 0.39 0 0 0 0.03 -0.55l-4.23-4.75a0.39 0.39 0 0 0 -0.582 0.515zm-12.953 11.269l-4.23-4.753a0.39 0.39 0 1 0 -0.583 0.52l4.234 4.753a0.397 0.397 0 0 0 0.55 0.031 0.393 0.393 0 0 0 0.029 -0.55zm16.234-10.855a0.38 0.38 0 0 0 0.258 -0.098l2.984-2.597a0.389 0.389 0 1 0 -0.512 -0.586l-2.984 2.597a0.393 0.393 0 0 0 -0.039 0.551 0.402 0.402 0 0 0 0.293 0.133zm8.641 32.281a0.39 0.39 0 0 0 -0.582 0.516l4.23 4.754a0.39 0.39 0 0 0 0.29 0.129 0.39 0.39 0 0 0 0.292 -0.649zm-2.856-0.566l-2.984 2.597a0.382 0.382 0 0 0 -0.04 0.547 0.38 0.38 0 0 0 0.548 0.04l2.984-2.598a0.382 0.382 0 0 0 0.039 -0.547 0.385 0.385 0 0 0 -0.547 -0.04zm-9.906-3.887l-2.984 2.598a0.393 0.393 0 0 0 -0.04 0.55 0.402 0.402 0 0 0 0.293 0.133 0.38 0.38 0 0 0 0.258 -0.097l2.985-2.598c0.16-0.14 0.18-0.387 0.035-0.547a0.385 0.385 0 0 0 -0.547 -0.039zm-12.613-14.161l-2.98 2.599a0.39 0.39 0 0 0 0.257 0.683c0.09 0 0.184-0.027 0.258-0.097l2.976-2.598c0.16-0.14 0.18-0.387 0.04-0.55a0.393 0.393 0 0 0 -0.551 -0.036z"></path>
</svg>
