<?xml version="1.0"?>

<svg width="95.756" xmlns="http://www.w3.org/2000/svg" viewBox="0 0 95.755678 95.75" height="95.75">
 <path d="m11.5 8a3.491 3.491 0 0 0 -3.5 3.5v54.754c0 1.996 1.625 3.492 3.5 3.492h13.246v13.879c0 2.25 1.879 4.125 4.129 4.125h54.75c2.25 0 4.125-1.875 4.125-4.125v-54.75c0.121-2.25-1.754-4.129-4.125-4.129h-13.879v-13.246c0-2.004-1.617-3.5-3.492-3.5zm0 1.25h54.754c1.25 0 2.242 1 2.242 2.25v13.246h-39.621c-2.25 0-4.129 1.879-4.129 4.129v39.621h-13.246c-1.25 0-2.25-0.992-2.25-2.242v-54.754c0-1.25 1-2.25 2.25-2.25zm-0.313 0.969a0.97 0.97 0 0 0 -0.687 0.281 0.986 0.986 0 0 0 0 1.379l0.875 0.871c0.129 0.121 0.375 0.25 0.625 0.25s0.504-0.129 0.625-0.25a0.98 0.98 0 0 0 0 -1.375l-0.746-0.875a0.992 0.992 0 0 0 -0.691 -0.281zm60 1.125c-0.25 0-0.5 0.094-0.687 0.277a0.986 0.986 0 0 0 0 1.379l1.875 1.746a0.948 0.948 0 0 0 0.625 0.258c0.25 0 0.496-0.129 0.625-0.258a0.976 0.976 0 0 0 0 -1.371l-1.746-1.754a0.995 0.995 0 0 0 -0.692 -0.277zm-56.374 2.5c-0.25 0-0.5 0.094-0.692 0.277a1 1 0 0 0 0 1.379l1.875 1.875c0.129 0.129 0.379 0.25 0.625 0.25a0.922 0.922 0 0 0 0.625 -0.25 0.978 0.978 0 0 0 0 -1.379l-1.746-1.875a0.979 0.979 0 0 0 -0.688 -0.277zm60.75 2a0.97 0.97 0 0 0 -0.688 0.281 0.986 0.986 0 0 0 0 1.379l1.875 1.746c0.129 0.129 0.375 0.25 0.625 0.25s0.496-0.121 0.625-0.25a0.986 0.986 0 0 0 0 -1.379l-1.746-1.746a0.992 0.992 0 0 0 -0.692 -0.281zm-56.13 2.629a0.93 0.93 0 0 0 -0.68 0.28 0.969 0.969 0 0 0 0 1.372l1.877 1.875c0.168 0.156 0.39 0.246 0.625 0.246a0.952 0.952 0 0 0 0.625 -0.246 0.991 0.991 0 0 0 0 -1.371l-1.754-1.875a0.959 0.959 0 0 0 -0.691 -0.281zm60.626 1.746a0.945 0.945 0 0 0 -0.68 0.281 0.978 0.978 0 0 0 0 1.379l1.875 1.746c0.121 0.129 0.367 0.25 0.625 0.25a0.952 0.952 0 0 0 0.625 -0.25 1 1 0 0 0 0 -1.379l-1.754-1.746a0.992 0.992 0 0 0 -0.691 -0.281zm-55.871 3c-0.25 0-0.5 0.093-0.692 0.277a1 1 0 0 0 0 1.379l0.883 0.875c0.168 0.156 0.39 0.246 0.625 0.246 0.246 0 0.496-0.121 0.746-0.367a0.986 0.986 0 0 0 0 -1.379l-0.875-0.754a0.979 0.979 0 0 0 -0.688 -0.277zm4.687 4.027h54.75c0.875 0 1.625 0.754 1.625 1.629v54.75h0.121c0 0.875-0.746 1.625-1.617 1.625h-54.879c-0.875 0-1.629-0.75-1.629-1.625v-54.75c0-0.875 0.754-1.629 1.629-1.629zm26 15.754l-7.996 23.125h2.621l2-5.875h9.496l2.004 5.875h2.75l-8-23.125zm1.5 2.875c0.25 0.875 0.871 3 1.375 4.496l2.621 7.629h-7.996l2.5-7.5c0.625-1.625 1.25-3.75 1.5-4.625zm-43.938 24.59a0.97 0.97 0 1 0 -0.688 1.66l1.747 1.75a0.952 0.952 0 0 0 0.625 0.246c0.234 0 0.457-0.09 0.625-0.246a0.969 0.969 0 0 0 0 -1.371l-1.616-1.754a0.979 0.979 0 0 0 -0.691 -0.285zm4.376 4.504a0.97 0.97 0 0 0 -0.688 0.281 0.976 0.976 0 0 0 0 1.371l1.746 1.754c0.129 0.121 0.379 0.25 0.625 0.25a0.94 0.94 0 0 0 0.625 -0.25 0.974 0.974 0 0 0 0 -1.375l-1.617-1.75a0.992 0.992 0 0 0 -0.692 -0.281zm4.496 4.375a0.969 0.969 0 0 0 -0.68 1.652l1.746 1.754c0.129 0.121 0.375 0.25 0.625 0.25s0.496-0.129 0.625-0.25a0.98 0.98 0 0 0 0 -1.375l-1.625-1.75a0.992 0.992 0 0 0 -0.691 -0.281z"></path>
</svg>
