<?xml version="1.0"?>
<!--?xml version="1.0" encoding="utf-8"?-->
<!-- Generator: Adobe Illustrator 19.0.1, SVG Export Plug-In . SVG Version: 6.00 Build 0)  -->
<svg version="1.1" id="Layer_1" xmlns="http://www.w3.org/2000/svg" xmlns:xlink="http://www.w3.org/1999/xlink" x="0px" y="0px" width="435px" height="105px" viewBox="-1427 1212.4 435 105" style="enable-background:new -1427 1212.4 435 105;" xml:space="preserve">
<g>
	<path d="M-1404.8,1245l-2.7-5.7h-1.9v5.7h-4.6v-16.8h7.5c1,0,1.9,0.1,2.7,0.3c0.8,0.2,1.5,0.5,2.1,0.9c0.6,0.4,1,1,1.3,1.7
		c0.3,0.7,0.5,1.5,0.5,2.5c0,1.3-0.3,2.3-0.8,3.1c-0.5,0.8-1.3,1.4-2.2,1.8l3.4,6.4H-1404.8z M-1405,1232.5
		c-0.3-0.3-0.8-0.5-1.6-0.5h-2.8v3.7h2.8c0.8,0,1.3-0.2,1.6-0.5c0.3-0.3,0.5-0.8,0.5-1.4C-1404.6,1233.2-1404.7,1232.8-1405,1232.5z
		"></path>
	<path d="M-1396.1,1245v-16.8h12.9v3.9h-8.3v2.3h5v3.8h-5v2.9h8.4v3.9H-1396.1z"></path>
	<path d="M-1365.4,1240.5c-0.4,1.1-1,2-1.7,2.6c-0.8,0.7-1.7,1.1-2.8,1.4c-1.1,0.3-2.4,0.4-3.9,0.4h-5.4v-16.8h5.9
		c1.3,0,2.5,0.1,3.6,0.4c1.1,0.3,2,0.7,2.7,1.4c0.7,0.6,1.3,1.5,1.7,2.6c0.4,1.1,0.6,2.4,0.6,4S-1365,1239.4-1365.4,1240.5z
		 M-1369.8,1234.6c-0.1-0.6-0.4-1-0.7-1.4s-0.7-0.6-1.2-0.8c-0.5-0.2-1.1-0.3-1.8-0.3h-1.2v8.8h1c0.7,0,1.3-0.1,1.8-0.2
		c0.5-0.2,0.9-0.4,1.3-0.7s0.6-0.8,0.7-1.4c0.1-0.6,0.2-1.3,0.2-2.1C-1369.6,1235.8-1369.7,1235.1-1369.8,1234.6z"></path>
	<path d="M-1342.7,1245v-6.6h-5.2v6.6h-4.8v-16.8h4.8v6.1h5.2v-6.1h4.8v16.8H-1342.7z"></path>
	<path d="M-1323,1245l-0.9-3h-5l-0.9,3h-5l6.1-16.8h4.7l6.1,16.8H-1323z M-1325.3,1237.2c-0.1-0.5-0.3-1-0.4-1.4
		c-0.1-0.4-0.2-0.8-0.3-1.1s-0.2-0.6-0.2-0.9c-0.1-0.3-0.1-0.5-0.2-0.8c0,0.3-0.1,0.6-0.2,0.8c-0.1,0.3-0.1,0.6-0.2,0.9
		c-0.1,0.3-0.2,0.7-0.3,1.1c-0.1,0.4-0.2,0.9-0.4,1.4l-0.3,1.1h2.8L-1325.3,1237.2z"></path>
	<path d="M-1308.4,1232.2v12.7h-4.7v-12.7h-4.7v-4.1h14.1v4.1H-1308.4z"></path>
	<path d="M-1297.5,1231.1c-0.1,0.3-0.3,0.5-0.5,0.7c-0.2,0.2-0.4,0.3-0.7,0.5c-0.3,0.1-0.6,0.2-0.9,0.2s-0.6-0.1-0.9-0.2
		c-0.3-0.1-0.5-0.3-0.7-0.5c-0.2-0.2-0.3-0.4-0.5-0.7c-0.1-0.3-0.2-0.5-0.2-0.9c0-0.3,0.1-0.6,0.2-0.9s0.3-0.5,0.5-0.7
		c0.2-0.2,0.4-0.3,0.7-0.5c0.3-0.1,0.6-0.2,0.9-0.2c0.3,0,0.6,0.1,0.9,0.2c0.3,0.1,0.5,0.3,0.7,0.5c0.2,0.2,0.3,0.4,0.5,0.7
		c0.1,0.3,0.2,0.5,0.2,0.9C-1297.3,1230.5-1297.4,1230.8-1297.5,1231.1z M-1297.8,1229.5c-0.1-0.2-0.2-0.4-0.4-0.6
		c-0.2-0.2-0.4-0.3-0.6-0.4c-0.2-0.1-0.5-0.1-0.7-0.1c-0.3,0-0.5,0-0.7,0.1c-0.2,0.1-0.4,0.2-0.6,0.4c-0.2,0.2-0.3,0.4-0.4,0.6
		c-0.1,0.2-0.1,0.5-0.1,0.7c0,0.3,0,0.5,0.1,0.7c0.1,0.2,0.2,0.4,0.4,0.6c0.2,0.2,0.4,0.3,0.6,0.4c0.2,0.1,0.5,0.1,0.7,0.1
		c0.3,0,0.5,0,0.7-0.1c0.2-0.1,0.4-0.2,0.6-0.4c0.2-0.2,0.3-0.4,0.4-0.6c0.1-0.2,0.1-0.5,0.1-0.7
		C-1297.7,1230-1297.7,1229.7-1297.8,1229.5z M-1298.6,1230.2c-0.1,0.1-0.2,0.2-0.4,0.2l0.5,1h-0.5l-0.5-0.9h-0.5v0.9h-0.4v-2.4h1
		c0.1,0,0.2,0,0.3,0s0.2,0.1,0.2,0.1c0.1,0.1,0.1,0.1,0.2,0.2c0,0.1,0.1,0.2,0.1,0.3C-1298.5,1229.9-1298.5,1230.1-1298.6,1230.2z
		 M-1299,1229.5c-0.1-0.1-0.2-0.1-0.3-0.1h-0.6v0.7h0.6c0.1,0,0.2,0,0.3-0.1c0.1-0.1,0.1-0.1,0.1-0.3
		C-1298.9,1229.6-1298.9,1229.5-1299,1229.5z"></path>
	<path d="M-1277.5,1241.1c-0.3,0.9-0.7,1.6-1.3,2.2c-0.6,0.6-1.3,1.1-2.2,1.4c-0.9,0.3-1.9,0.5-3.1,0.5c-1.1,0-2.1-0.1-2.9-0.4
		c-0.8-0.3-1.5-0.7-2.1-1.2c-0.6-0.5-1.1-1.1-1.4-1.8c-0.4-0.7-0.7-1.5-0.9-2.4l4.6-1.2c0.3,1,0.6,1.7,1,2.2c0.4,0.5,1,0.7,1.8,0.7
		c0.8,0,1.3-0.2,1.7-0.7c0.4-0.5,0.6-1.1,0.6-1.9v-10.3h4.8v10C-1277.1,1239.2-1277.2,1240.2-1277.5,1241.1z"></path>
	<path d="M-1260.2,1243.6c-1,0.9-2.6,1.4-4.8,1.4h-8.1v-16.8h8.1c2.1,0,3.6,0.4,4.5,1.1c0.9,0.8,1.4,1.8,1.4,3.2
		c0,0.9-0.2,1.6-0.6,2.1c-0.4,0.5-0.9,0.9-1.4,1.2c0.8,0.3,1.4,0.8,1.8,1.4c0.4,0.6,0.6,1.4,0.6,2.3
		C-1258.6,1241.3-1259.2,1242.6-1260.2,1243.6z M-1263.9,1232.2c-0.2-0.3-0.6-0.4-1.2-0.4h-3.5v2.7h3.5c0.5,0,0.9-0.1,1.1-0.4
		c0.2-0.2,0.3-0.6,0.3-1C-1263.6,1232.8-1263.7,1232.5-1263.9,1232.2z M-1263.6,1238.5c-0.3-0.3-0.7-0.4-1.2-0.4h-3.7v3.3h3.7
		c0.6,0,1-0.2,1.3-0.5c0.3-0.3,0.4-0.7,0.4-1.2C-1263.2,1239.2-1263.3,1238.8-1263.6,1238.5z"></path>
	<path d="M-1241,1240.3c-0.4,1.1-0.9,2-1.6,2.7c-0.7,0.7-1.5,1.3-2.5,1.7c-1,0.4-2,0.6-3.1,0.6s-2.2-0.2-3.1-0.6
		c-1-0.4-1.8-0.9-2.5-1.7s-1.2-1.6-1.6-2.7c-0.4-1.1-0.6-2.3-0.6-3.7c0-1.4,0.2-2.6,0.6-3.7c0.4-1.1,0.9-2,1.6-2.7
		c0.7-0.7,1.5-1.3,2.5-1.7c1-0.4,2-0.6,3.1-0.6c1.1,0,2.2,0.2,3.1,0.6c1,0.4,1.8,0.9,2.4,1.7c0.7,0.7,1.2,1.6,1.6,2.7
		c0.4,1.1,0.6,2.3,0.6,3.7C-1240.4,1237.9-1240.6,1239.2-1241,1240.3z M-1246,1233.1c-0.5-0.8-1.3-1.2-2.2-1.2s-1.7,0.4-2.2,1.2
		c-0.5,0.8-0.8,1.9-0.8,3.4s0.3,2.7,0.8,3.5c0.5,0.8,1.3,1.2,2.2,1.2s1.7-0.4,2.2-1.2c0.5-0.8,0.8-1.9,0.8-3.4
		C-1245.2,1235.1-1245.5,1233.9-1246,1233.1z"></path>
	<path d="M-1224.5,1242.3c-0.3,0.7-0.8,1.2-1.4,1.7c-0.6,0.4-1.3,0.8-2.2,1c-0.8,0.2-1.8,0.3-2.8,0.3c-1.4,0-2.7-0.2-3.9-0.6
		c-1.2-0.4-2.3-0.9-3.2-1.5l2.3-3.6c0.3,0.2,0.7,0.4,1.1,0.6c0.4,0.2,0.8,0.4,1.3,0.5c0.4,0.2,0.9,0.3,1.3,0.4
		c0.4,0.1,0.9,0.1,1.2,0.1c0.8,0,1.4-0.1,1.7-0.2c0.3-0.2,0.5-0.4,0.5-0.8c0-0.2,0-0.3-0.1-0.4c-0.1-0.1-0.2-0.3-0.5-0.4
		c-0.2-0.1-0.5-0.2-0.9-0.4c-0.4-0.1-0.8-0.2-1.4-0.4c-1-0.2-1.9-0.5-2.6-0.8s-1.4-0.6-1.9-1c-0.5-0.4-0.9-0.9-1.1-1.5
		c-0.2-0.6-0.4-1.3-0.4-2.1c0-0.8,0.2-1.5,0.5-2.2c0.3-0.7,0.8-1.2,1.3-1.7c0.6-0.5,1.3-0.8,2.1-1.1c0.8-0.3,1.7-0.4,2.7-0.4
		c1.4,0,2.7,0.2,3.8,0.5c1.1,0.3,2,0.8,2.9,1.4l-2.3,3.6c-0.8-0.5-1.5-0.9-2.3-1.2c-0.8-0.3-1.6-0.4-2.4-0.4c-0.7,0-1.2,0.1-1.4,0.3
		s-0.3,0.4-0.3,0.7c0,0.2,0,0.3,0.1,0.4c0.1,0.1,0.2,0.2,0.4,0.3s0.5,0.2,0.8,0.3c0.4,0.1,0.8,0.2,1.3,0.3c1.1,0.3,2,0.5,2.7,0.8
		c0.8,0.3,1.4,0.7,1.9,1.1c0.5,0.4,0.9,0.9,1.1,1.5c0.2,0.6,0.4,1.3,0.4,2C-1224,1240.8-1224.1,1241.6-1224.5,1242.3z"></path>
	<path d="M-1207.8,1242.3c-0.3,0.7-0.8,1.2-1.4,1.7c-0.6,0.4-1.3,0.8-2.2,1c-0.8,0.2-1.8,0.3-2.8,0.3c-1.4,0-2.7-0.2-3.9-0.6
		c-1.2-0.4-2.3-0.9-3.2-1.5l2.3-3.6c0.3,0.2,0.7,0.4,1.1,0.6c0.4,0.2,0.8,0.4,1.3,0.5c0.4,0.2,0.9,0.3,1.3,0.4
		c0.4,0.1,0.9,0.1,1.2,0.1c0.8,0,1.4-0.1,1.7-0.2c0.3-0.2,0.5-0.4,0.5-0.8c0-0.2,0-0.3-0.1-0.4c-0.1-0.1-0.2-0.3-0.5-0.4
		c-0.2-0.1-0.5-0.2-0.9-0.4c-0.4-0.1-0.8-0.2-1.4-0.4c-1-0.2-1.9-0.5-2.6-0.8s-1.4-0.6-1.9-1c-0.5-0.4-0.9-0.9-1.1-1.5
		c-0.2-0.6-0.4-1.3-0.4-2.1c0-0.8,0.2-1.5,0.5-2.2c0.3-0.7,0.8-1.2,1.3-1.7c0.6-0.5,1.3-0.8,2.1-1.1c0.8-0.3,1.7-0.4,2.7-0.4
		c1.4,0,2.7,0.2,3.8,0.5c1.1,0.3,2,0.8,2.9,1.4l-2.3,3.6c-0.8-0.5-1.5-0.9-2.3-1.2c-0.8-0.3-1.6-0.4-2.4-0.4c-0.7,0-1.2,0.1-1.4,0.3
		s-0.3,0.4-0.3,0.7c0,0.2,0,0.3,0.1,0.4c0.1,0.1,0.2,0.2,0.4,0.3s0.5,0.2,0.8,0.3c0.4,0.1,0.8,0.2,1.3,0.3c1.1,0.3,2,0.5,2.7,0.8
		c0.8,0.3,1.4,0.7,1.9,1.1c0.5,0.4,0.9,0.9,1.1,1.5c0.2,0.6,0.4,1.3,0.4,2C-1207.3,1240.8-1207.5,1241.6-1207.8,1242.3z"></path>
	<path d="M-1200.8,1231.1c-0.1,0.3-0.3,0.5-0.5,0.7c-0.2,0.2-0.4,0.3-0.7,0.5c-0.3,0.1-0.5,0.2-0.9,0.2s-0.6-0.1-0.9-0.2
		c-0.3-0.1-0.5-0.3-0.7-0.5c-0.2-0.2-0.3-0.4-0.5-0.7c-0.1-0.3-0.2-0.5-0.2-0.9c0-0.3,0.1-0.6,0.2-0.9c0.1-0.3,0.3-0.5,0.5-0.7
		s0.4-0.3,0.7-0.5c0.3-0.1,0.6-0.2,0.9-0.2c0.3,0,0.6,0.1,0.9,0.2c0.3,0.1,0.5,0.3,0.7,0.5s0.3,0.4,0.5,0.7c0.1,0.3,0.2,0.5,0.2,0.9
		C-1200.7,1230.5-1200.7,1230.8-1200.8,1231.1z M-1201.2,1229.5c-0.1-0.2-0.2-0.4-0.4-0.6c-0.2-0.2-0.4-0.3-0.6-0.4
		c-0.2-0.1-0.5-0.1-0.7-0.1c-0.3,0-0.5,0-0.7,0.1c-0.2,0.1-0.4,0.2-0.6,0.4c-0.2,0.2-0.3,0.4-0.4,0.6s-0.1,0.5-0.1,0.7
		c0,0.3,0,0.5,0.1,0.7s0.2,0.4,0.4,0.6c0.2,0.2,0.4,0.3,0.6,0.4c0.2,0.1,0.5,0.1,0.7,0.1c0.3,0,0.5,0,0.7-0.1
		c0.2-0.1,0.4-0.2,0.6-0.4c0.2-0.2,0.3-0.4,0.4-0.6c0.1-0.2,0.1-0.5,0.1-0.7C-1201,1230-1201.1,1229.7-1201.2,1229.5z M-1202,1230.2
		c-0.1,0.1-0.2,0.2-0.4,0.2l0.5,1h-0.5l-0.5-0.9h-0.5v0.9h-0.4v-2.4h1c0.1,0,0.2,0,0.3,0s0.2,0.1,0.2,0.1c0.1,0.1,0.1,0.1,0.2,0.2
		c0,0.1,0.1,0.2,0.1,0.3C-1201.9,1229.9-1201.9,1230.1-1202,1230.2z M-1202.4,1229.5c-0.1-0.1-0.2-0.1-0.3-0.1h-0.6v0.7h0.6
		c0.1,0,0.2,0,0.3-0.1c0.1-0.1,0.1-0.1,0.1-0.3C-1202.3,1229.6-1202.3,1229.5-1202.4,1229.5z"></path>
	<path d="M-1414,1275v-25.2h15.2v2.6h-12.4v7.9h7.2v2.6h-7.2v9.6h13v2.6H-1414z"></path>
	<path d="M-1377.4,1275l-11-17.2c-0.1-0.2-0.3-0.5-0.5-0.8c-0.2-0.3-0.3-0.6-0.5-0.9c-0.2-0.3-0.3-0.6-0.5-0.8
		c-0.2-0.3-0.3-0.5-0.3-0.6v1.7v18.7h-2.7v-25.2h2.7l10.9,17.6c0.1,0.2,0.3,0.5,0.5,0.8c0.2,0.3,0.3,0.6,0.5,0.9
		c0.2,0.3,0.3,0.6,0.5,0.8s0.3,0.5,0.3,0.6v-1.7v-19h2.7v25.2H-1377.4z"></path>
	<path d="M-1359.4,1252.3v22.6h-2.8v-22.6h-7.4v-2.6h17.6v2.6H-1359.4z"></path>
	<path d="M-1346.9,1275v-25.2h15.2v2.6h-12.4v7.9h7.2v2.6h-7.2v9.6h13v2.6H-1346.9z"></path>
	<path d="M-1309.6,1261.7c-1.1,1.2-2.5,2-4.3,2.4l5.5,10.9h-3.2l-5.4-10.7h-6v10.7h-2.8v-25.2h10c1.1,0,2.1,0.1,3.1,0.4
		c1,0.3,1.8,0.7,2.5,1.3c0.7,0.6,1.2,1.3,1.7,2.2c0.4,0.9,0.6,1.9,0.6,3.2C-1308,1258.9-1308.5,1260.5-1309.6,1261.7z
		 M-1312.1,1253.5c-0.9-0.8-2.2-1.2-3.8-1.2h-7.1v9.4h6.7c1.9,0,3.3-0.4,4.2-1.2c0.9-0.8,1.4-2,1.4-3.5
		C-1310.8,1255.4-1311.2,1254.3-1312.1,1253.5z"></path>
	<path d="M-1285.6,1260.6c-0.4,1-1,1.8-1.7,2.4c-0.7,0.7-1.6,1.2-2.7,1.5c-1.1,0.3-2.2,0.5-3.5,0.5h-6.1v9.9h-2.8v-25.2h9.4
		c1.2,0,2.2,0.2,3.2,0.5c1,0.3,1.8,0.8,2.5,1.4c0.7,0.6,1.3,1.4,1.7,2.4c0.4,0.9,0.6,2.1,0.6,3.3
		C-1284.9,1258.6-1285.2,1259.7-1285.6,1260.6z M-1289.1,1253.7c-0.9-0.9-2.2-1.3-4-1.3h-6.5v10.2h6.2c3.8,0,5.7-1.7,5.7-5.1
		C-1287.8,1255.8-1288.2,1254.5-1289.1,1253.7z"></path>
	<path d="M-1264,1261.7c-1.1,1.2-2.5,2-4.3,2.4l5.5,10.9h-3.2l-5.4-10.7h-6v10.7h-2.8v-25.2h10c1.1,0,2.1,0.1,3.1,0.4
		c1,0.3,1.8,0.7,2.5,1.3c0.7,0.6,1.2,1.3,1.7,2.2c0.4,0.9,0.6,1.9,0.6,3.2C-1262.3,1258.9-1262.9,1260.5-1264,1261.7z
		 M-1266.5,1253.5c-0.9-0.8-2.2-1.2-3.8-1.2h-7.1v9.4h6.7c1.9,0,3.3-0.4,4.2-1.2c0.9-0.8,1.4-2,1.4-3.5
		C-1265.1,1255.4-1265.6,1254.3-1266.5,1253.5z"></path>
	<path d="M-1256.6,1275v-25.2h2.8v25.2H-1256.6z"></path>
	<path d="M-1232,1271.1c-0.4,0.9-0.9,1.6-1.6,2.2c-0.7,0.6-1.6,1.1-2.6,1.5s-2.2,0.5-3.5,0.5c-1.7,0-3.3-0.3-4.8-1
		c-1.5-0.7-2.7-1.5-3.7-2.5l1.9-2.1c1,0.9,2,1.6,3.1,2.2c1.1,0.6,2.3,0.8,3.6,0.8c1.7,0,3-0.4,4-1.2c1-0.8,1.5-1.8,1.5-3.2
		c0-0.6-0.1-1.1-0.3-1.6c-0.2-0.5-0.5-0.9-1-1.3c-0.5-0.4-1.1-0.8-1.9-1.2c-0.8-0.4-1.7-0.8-2.9-1.2c-1.4-0.5-2.5-1-3.4-1.5
		c-0.9-0.5-1.7-1-2.2-1.6c-0.6-0.6-1-1.2-1.2-1.9c-0.3-0.7-0.4-1.5-0.4-2.4c0-1,0.2-1.9,0.6-2.7c0.4-0.8,0.9-1.5,1.6-2
		c0.7-0.6,1.5-1,2.5-1.3s2-0.4,3.2-0.4c1.7,0,3.1,0.2,4.3,0.7c1.2,0.5,2.3,1.1,3.4,2l-1.8,2.2c-0.9-0.8-1.8-1.3-2.8-1.7
		c-0.9-0.4-2-0.6-3.3-0.6c-0.9,0-1.6,0.1-2.2,0.3c-0.6,0.2-1.1,0.5-1.5,0.8c-0.4,0.3-0.7,0.7-0.9,1.2c-0.2,0.4-0.3,0.9-0.3,1.4
		c0,0.5,0.1,1,0.2,1.4c0.1,0.4,0.4,0.8,0.9,1.2c0.4,0.4,1,0.8,1.8,1.2c0.8,0.4,1.8,0.8,3.1,1.3c1.4,0.5,2.6,1,3.5,1.5
		c0.9,0.5,1.7,1.1,2.2,1.7c0.6,0.6,1,1.3,1.2,2s0.4,1.5,0.4,2.5C-1231.5,1269.3-1231.7,1270.3-1232,1271.1z"></path>
	<path d="M-1225.7,1275v-25.2h15.2v2.6h-12.4v7.9h7.2v2.6h-7.2v9.6h13v2.6H-1225.7z"></path>
	<path d="M-1397.8,1305l-2.2-6.4h-10.4l-2.2,6.4h-2.9l8.7-25.2h3.1l8.7,25.2C-1394.8,1305-1397.8,1305-1397.8,1305z M-1403.6,1287.7
		c-0.1-0.4-0.3-0.9-0.4-1.3c-0.2-0.5-0.3-0.9-0.4-1.4c-0.1-0.4-0.3-0.9-0.4-1.3c-0.1-0.4-0.2-0.7-0.3-1c-0.1,0.3-0.2,0.6-0.3,1
		c-0.1,0.4-0.2,0.8-0.4,1.3c-0.1,0.5-0.3,0.9-0.5,1.4c-0.2,0.5-0.3,1-0.5,1.4l-2.8,8.2h8.7L-1403.6,1287.7z"></path>
	<path d="M-1372.8,1290.6c-0.4,1-1,1.8-1.7,2.4c-0.7,0.7-1.6,1.2-2.7,1.5c-1.1,0.3-2.2,0.5-3.5,0.5h-6.1v9.9h-2.8v-25.2h9.4
		c1.2,0,2.2,0.2,3.2,0.5c1,0.3,1.8,0.8,2.5,1.4c0.7,0.6,1.3,1.4,1.7,2.4c0.4,0.9,0.6,2.1,0.6,3.3
		C-1372.1,1288.6-1372.3,1289.7-1372.8,1290.6z M-1376.3,1283.7c-0.9-0.9-2.2-1.3-4-1.3h-6.5v10.2h6.2c3.8,0,5.7-1.7,5.7-5.1
		C-1374.9,1285.8-1375.4,1284.5-1376.3,1283.7z"></path>
	<path d="M-1350.5,1290.6c-0.4,1-1,1.8-1.7,2.4c-0.7,0.7-1.6,1.2-2.7,1.5c-1.1,0.3-2.2,0.5-3.5,0.5h-6.1v9.9h-2.8v-25.2h9.4
		c1.2,0,2.2,0.2,3.2,0.5c1,0.3,1.8,0.8,2.5,1.4s1.3,1.4,1.7,2.4c0.4,0.9,0.6,2.1,0.6,3.3
		C-1349.9,1288.6-1350.1,1289.7-1350.5,1290.6z M-1354.1,1283.7c-0.9-0.9-2.2-1.3-4-1.3h-6.5v10.2h6.2c3.8,0,5.7-1.7,5.7-5.1
		C-1352.7,1285.8-1353.1,1284.5-1354.1,1283.7z"></path>
	<path d="M-1345.1,1305v-25.2h2.8v22.6h12.5v2.6L-1345.1,1305L-1345.1,1305z"></path>
	<path d="M-1324.2,1305v-25.2h2.8v25.2C-1321.4,1305-1324.2,1305-1324.2,1305z"></path>
	<path d="M-1300.7,1304.2c-1.4,0.8-3,1.2-4.8,1.2c-1.5,0-2.9-0.3-4.2-1c-1.3-0.7-2.3-1.6-3.2-2.7c-0.9-1.2-1.6-2.5-2.1-4.1
		c-0.5-1.6-0.7-3.3-0.7-5.1c0-1.9,0.3-3.6,0.8-5.2c0.5-1.6,1.2-3,2.1-4.1c0.9-1.2,2-2.1,3.3-2.7c1.3-0.7,2.7-1,4.2-1
		c3.4,0,6.1,1.3,8,4l-2.2,1.7c-0.8-1.1-1.7-1.9-2.5-2.4c-0.9-0.5-2-0.8-3.3-0.8c-1.1,0-2.1,0.3-3,0.8c-0.9,0.5-1.7,1.2-2.3,2.1
		c-0.6,0.9-1.2,2-1.5,3.3c-0.4,1.3-0.6,2.7-0.6,4.2c0,1.5,0.2,2.9,0.6,4.2c0.4,1.3,0.9,2.4,1.6,3.3c0.7,0.9,1.5,1.6,2.4,2.2
		s1.9,0.8,3,0.8c1.4,0,2.5-0.3,3.5-0.9c1-0.6,1.9-1.4,2.7-2.4l1.9,1.7C-1298.2,1302.4-1299.3,1303.5-1300.7,1304.2z"></path>
	<path d="M-1276.3,1305l-2.2-6.4h-10.4l-2.2,6.4h-2.9l8.7-25.2h3.1l8.7,25.2C-1273.3,1305-1276.3,1305-1276.3,1305z M-1282.1,1287.7
		c-0.1-0.4-0.3-0.9-0.4-1.3c-0.2-0.5-0.3-0.9-0.4-1.4c-0.1-0.4-0.3-0.9-0.4-1.3c-0.1-0.4-0.2-0.7-0.3-1c-0.1,0.3-0.2,0.6-0.3,1
		c-0.1,0.4-0.2,0.8-0.4,1.3c-0.1,0.5-0.3,0.9-0.5,1.4c-0.2,0.5-0.3,1-0.5,1.4l-2.8,8.2h8.7L-1282.1,1287.7z"></path>
	<path d="M-1262.2,1282.3v22.6h-2.8v-22.6h-7.4v-2.6h17.6v2.6H-1262.2z"></path>
	<path d="M-1249.5,1305v-25.2h2.8v25.2C-1246.7,1305-1249.5,1305-1249.5,1305z"></path>
	<path d="M-1220.8,1297.6c-0.5,1.6-1.2,3-2.1,4.1c-0.9,1.2-2,2.1-3.3,2.7c-1.3,0.6-2.7,1-4.3,1c-1.6,0-3-0.3-4.3-1
		c-1.3-0.6-2.4-1.5-3.3-2.7c-0.9-1.2-1.6-2.5-2.1-4.1c-0.5-1.6-0.7-3.3-0.7-5.2c0-1.9,0.3-3.6,0.8-5.2c0.5-1.6,1.2-3,2.1-4.1
		c0.9-1.2,2-2.1,3.3-2.7c1.3-0.6,2.7-1,4.3-1c1.6,0,3,0.3,4.3,1c1.3,0.6,2.4,1.5,3.3,2.7c0.9,1.2,1.6,2.5,2.1,4.1
		c0.5,1.6,0.8,3.3,0.8,5.2C-1220.1,1294.2-1220.3,1296-1220.8,1297.6z M-1223.5,1288.1c-0.4-1.3-0.9-2.4-1.6-3.3
		c-0.7-0.9-1.5-1.6-2.4-2.1c-0.9-0.5-2-0.7-3.1-0.7c-1.1,0-2.1,0.2-3,0.7c-0.9,0.5-1.7,1.2-2.4,2.1c-0.7,0.9-1.2,2-1.6,3.3
		c-0.4,1.3-0.6,2.7-0.6,4.3c0,1.6,0.2,3,0.6,4.3c0.4,1.3,0.9,2.4,1.6,3.3c0.7,0.9,1.5,1.6,2.4,2.1c0.9,0.5,2,0.7,3.1,0.7
		c1.1,0,2.1-0.2,3-0.7c0.9-0.5,1.7-1.2,2.4-2.1c0.7-0.9,1.2-2,1.6-3.3c0.4-1.3,0.6-2.7,0.6-4.3S-1223.1,1289.4-1223.5,1288.1z"></path>
	<path d="M-1199,1305l-11-17.2c-0.1-0.2-0.3-0.5-0.5-0.8c-0.2-0.3-0.3-0.6-0.5-0.9c-0.2-0.3-0.3-0.6-0.5-0.8
		c-0.2-0.3-0.3-0.5-0.3-0.6v1.7v18.7h-2.7v-25.2h2.7l10.9,17.6c0.1,0.2,0.3,0.5,0.5,0.8c0.2,0.3,0.3,0.6,0.5,0.9
		c0.2,0.3,0.3,0.6,0.5,0.8c0.2,0.3,0.3,0.5,0.3,0.6v-1.7v-19h2.7v25.2C-1196.3,1305-1199,1305-1199,1305z"></path>
	<path d="M-1163.6,1290.6c-0.4,1-1,1.8-1.7,2.4c-0.7,0.7-1.6,1.2-2.7,1.5c-1.1,0.3-2.2,0.5-3.5,0.5h-6.1v9.9h-2.8v-25.2h9.4
		c1.2,0,2.2,0.2,3.2,0.5c1,0.3,1.8,0.8,2.5,1.4c0.7,0.6,1.3,1.4,1.7,2.4c0.4,0.9,0.6,2.1,0.6,3.3
		C-1162.9,1288.6-1163.1,1289.7-1163.6,1290.6z M-1167.1,1283.7c-0.9-0.9-2.2-1.3-4-1.3h-6.5v10.2h6.2c3.8,0,5.7-1.7,5.7-5.1
		C-1165.7,1285.8-1166.2,1284.5-1167.1,1283.7z"></path>
	<path d="M-1158.1,1305v-25.2h2.8v22.6h12.5v2.6L-1158.1,1305L-1158.1,1305z"></path>
	<path d="M-1121.2,1305l-2.2-6.4h-10.4l-2.2,6.4h-2.9l8.7-25.2h3.1l8.7,25.2C-1118.3,1305-1121.2,1305-1121.2,1305z M-1127,1287.7
		c-0.1-0.4-0.3-0.9-0.4-1.3c-0.2-0.5-0.3-0.9-0.5-1.4c-0.1-0.4-0.3-0.9-0.4-1.3c-0.1-0.4-0.2-0.7-0.3-1c-0.1,0.3-0.2,0.6-0.3,1
		c-0.1,0.4-0.2,0.8-0.4,1.3c-0.1,0.5-0.3,0.9-0.5,1.4c-0.2,0.5-0.3,1-0.5,1.4l-2.8,8.2h8.7L-1127,1287.7z"></path>
	<path d="M-1107.1,1282.3v22.6h-2.8v-22.6h-7.4v-2.6h17.6v2.6H-1107.1z"></path>
	<path d="M-1091.8,1282.3v8.4h6.9v2.6h-6.9v11.7h-2.8v-25.2h14.8v2.6L-1091.8,1282.3L-1091.8,1282.3z"></path>
	<path d="M-1056.8,1297.6c-0.5,1.6-1.2,3-2.1,4.1c-0.9,1.2-2,2.1-3.3,2.7c-1.3,0.6-2.7,1-4.3,1c-1.6,0-3-0.3-4.3-1
		c-1.3-0.6-2.4-1.5-3.3-2.7c-0.9-1.2-1.6-2.5-2.1-4.1c-0.5-1.6-0.7-3.3-0.7-5.2c0-1.9,0.3-3.6,0.8-5.2c0.5-1.6,1.2-3,2.1-4.1
		c0.9-1.2,2-2.1,3.3-2.7c1.3-0.6,2.7-1,4.3-1c1.6,0,3,0.3,4.3,1c1.3,0.6,2.4,1.5,3.3,2.7c0.9,1.2,1.6,2.5,2.1,4.1
		c0.5,1.6,0.8,3.3,0.8,5.2C-1056.1,1294.2-1056.3,1296-1056.8,1297.6z M-1059.5,1288.1c-0.4-1.3-0.9-2.4-1.6-3.3
		c-0.7-0.9-1.5-1.6-2.4-2.1c-0.9-0.5-2-0.7-3.1-0.7c-1.1,0-2.1,0.2-3,0.7c-0.9,0.5-1.7,1.2-2.4,2.1c-0.7,0.9-1.2,2-1.6,3.3
		c-0.4,1.3-0.6,2.7-0.6,4.3c0,1.6,0.2,3,0.6,4.3c0.4,1.3,0.9,2.4,1.6,3.3c0.7,0.9,1.5,1.6,2.4,2.1c0.9,0.5,2,0.7,3.1,0.7
		c1.1,0,2.1-0.2,3-0.7c0.9-0.5,1.7-1.2,2.4-2.1c0.7-0.9,1.2-2,1.6-3.3c0.4-1.3,0.6-2.7,0.6-4.3S-1059.1,1289.4-1059.5,1288.1z"></path>
	<path d="M-1034.3,1291.7c-1.1,1.2-2.5,2-4.3,2.4l5.5,10.9h-3.2l-5.4-10.7h-6v10.7h-2.8v-25.2h10c1.1,0,2.1,0.1,3.1,0.4
		c1,0.3,1.8,0.7,2.5,1.3c0.7,0.6,1.2,1.3,1.7,2.2c0.4,0.9,0.6,1.9,0.6,3.2C-1032.7,1288.9-1033.2,1290.5-1034.3,1291.7z
		 M-1036.8,1283.5c-0.9-0.8-2.2-1.2-3.8-1.2h-7.1v9.4h6.7c1.9,0,3.3-0.4,4.2-1.2c0.9-0.8,1.4-2,1.4-3.5
		C-1035.5,1285.4-1035.9,1284.3-1036.8,1283.5z"></path>
	<path d="M-1008.1,1305v-17.1v-2.7c-0.1,0.2-0.2,0.5-0.3,0.9c-0.1,0.3-0.2,0.7-0.4,1.1c-0.1,0.4-0.3,0.8-0.4,1.1
		c-0.1,0.4-0.3,0.7-0.4,1.1l-6.7,16.2l-6.6-16.2c-0.1-0.3-0.3-0.7-0.4-1.1c-0.1-0.4-0.3-0.8-0.4-1.2c-0.1-0.4-0.3-0.7-0.4-1.1
		c-0.1-0.3-0.2-0.6-0.3-0.9v2.7v17.1h-2.7v-25.2h3.1l6,15.1c0.1,0.4,0.3,0.8,0.5,1.3c0.2,0.5,0.4,0.9,0.5,1.4
		c0.2,0.5,0.3,0.9,0.5,1.3s0.3,0.7,0.3,1c0.1-0.3,0.2-0.6,0.3-1c0.1-0.4,0.3-0.8,0.5-1.3c0.2-0.5,0.3-0.9,0.5-1.4
		c0.2-0.5,0.3-0.9,0.5-1.2l6-15.1h3.1v25.2L-1008.1,1305L-1008.1,1305z"></path>
</g>
</svg>
