<?xml version="1.0"?>

<svg width="90.91" xmlns="http://www.w3.org/2000/svg" viewBox="0 0 90.91 81.14" height="81.14">
 <path d="m16.488 30.082v-0.48l-0.281 0.48z"></path>
 <path d="m64.55 8.5c-0.179-0.309-0.507-0.5-0.866-0.5h-36.457c-0.356 0-0.688 0.191-0.868 0.5l-18.226 31.57a1.014 1.014 0 0 0 0 1l18.226 31.57c0.18 0.31 0.512 0.5 0.868 0.5h36.457c0.355 0 0.687-0.19 0.867-0.5l18.226-31.57a1.014 1.014 0 0 0 0 -1l-18.23-31.57zm14.552 34.93v-2.078c0-0.536-0.32-0.856-0.856-0.856-0.535 0-0.851 0.32-0.851 0.856v2.191h-0.672v-8.195h-3.239c-0.515 0-0.851 0.336-0.851 0.855 0 0.52 0.332 0.856 0.851 0.856h1.528v6.484h-1.528c-0.515 0-0.851 0.336-0.851 0.852 0 0.52 0.332 0.855 0.851 0.855h4.567l-5.227 9.055v-5.496h-3.234c-0.52 0-0.856 0.336-0.856 0.851 0 0.52 0.336 0.856 0.856 0.856h1.523v6.484h-1.523c-0.52 0-0.856 0.336-0.856 0.855 0 0.516 0.336 0.852 0.856 0.852h0.691l-5.094 8.82a0.927 0.927 0 0 0 -0.445 -0.113c-0.535 0-0.855 0.32-0.855 0.856v1.511l-0.39 0.68h-0.282v-8.195h-3.238c-0.508 0-0.852 0.343-0.852 0.855s0.344 0.856 0.852 0.856h1.527v6.484h-1.527c-0.446 0-0.75 0.27-0.82 0.68h-2.634c0.04-0.137 0.067-0.278 0.067-0.43v-6.984a1.46 1.46 0 0 0 -1.457 -1.461h-3.555a1.46 1.46 0 0 0 -1.457 1.46v6.985c0 0.148 0.027 0.293 0.066 0.43h-2.671c0.043-0.137 0.07-0.278 0.07-0.43v-6.984a1.46 1.46 0 0 0 -1.457 -1.461h-3.555a1.46 1.46 0 0 0 -1.457 1.46v6.985c0 0.148 0.024 0.293 0.067 0.43h-2.672c0.039-0.137 0.07-0.278 0.07-0.43v-6.984c0-0.805-0.656-1.461-1.46-1.461h-3.572a1.46 1.46 0 0 0 -1.457 1.46v6.985c0 0.148 0.027 0.293 0.066 0.43h-2.672c0.043-0.137 0.07-0.278 0.07-0.43v-6.984c0-0.805-0.652-1.461-1.46-1.461h-3.551c-0.617 0-1.14 0.386-1.356 0.925l-2.789-4.828a1.45 1.45 0 0 0 0.516 -1.11v-6.987a1.46 1.46 0 0 0 -1.461 -1.457h-3.55c-0.321 0-0.614 0.105-0.856 0.28l-2.215-3.839h1.758c0.82 0 1.46-0.64 1.46-1.457v-6.984c0-0.805-0.656-1.461-1.46-1.461h-1.45l2.055-3.559h4.5c0.52 0 0.856-0.332 0.856-0.852v-3.046c0-0.536-0.32-0.852-0.856-0.852-0.535 0-0.851 0.316-0.851 0.852v2.191h-0.672v-3.441l5.16-8.942c0.262 0.387 0.7 0.633 1.21 0.633h3.556c0.816 0 1.457-0.64 1.457-1.457v-6.875h4.914v6.625h-1.528c-0.511 0-0.851 0.344-0.851 0.852 0 0.52 0.332 0.855 0.851 0.855h4.762c0.52 0 0.855-0.336 0.855-0.855v-3.043c0-0.536-0.32-0.856-0.855-0.856s-0.852 0.32-0.852 0.856v2.187h-0.671v-6.621h7.293v6.621h-1.528c-0.508 0-0.851 0.344-0.851 0.856 0 0.52 0.332 0.855 0.851 0.855h4.762c0.523 0 0.855-0.336 0.855-0.855v-3.043c0-0.536-0.32-0.856-0.855-0.856s-0.852 0.32-0.852 0.856v2.187h-0.672v-6.625h4.915v6.875c0 0.82 0.64 1.461 1.457 1.461h3.554c0.817 0 1.457-0.64 1.457-1.46v-6.877h2.535v6.875c0 0.82 0.641 1.461 1.458 1.461h3.554c0.817 0 1.457-0.64 1.457-1.46v-2.556l4.371 7.57h-0.379a1.46 1.46 0 0 0 -1.457 1.462v6.984c0 0.816 0.641 1.457 1.457 1.457h3.555c0.817 0 1.457-0.64 1.457-1.457v-0.422l6.152 10.66-1.64 2.89zm-54.282 20.55h3.051v6.485h-0.46l-2.59-4.492zm9.004 6.48v-6.483h3.051v6.484zm9 0v-6.483h3.051v6.484zm9.008 0v-6.483h3.055v6.484zm-35.344-40.377h-0.281l0.281-0.48zm-4.308 6.977h2.187v6.484h-2.496l-0.559-0.965v-4.016l0.868-1.5zm3.996 13.46h3.054v5.774l-3.054-5.29v-0.487zm47.707-33.894h-3.055v-6.484h2.352l0.703 1.214zm-12.051-6.484h3.055v6.484h-3.055zm-23.96 0v6.484h-3.052v-1.457l2.899-5.027zm45.018 16.811v3.129h-3.05v-6.484h1.113l1.942 3.355z"></path>
 <path d="m24.57 31.793h3.551c0.82 0 1.461-0.64 1.461-1.461v-6.984a1.46 1.46 0 0 0 -1.46 -1.457h-3.552c-0.808 0-1.46 0.652-1.46 1.457v6.984c0 0.82 0.64 1.461 1.46 1.461zm0.25-1.711v-6.484h3.051v6.484zm8.754 1.711h3.551c0.82 0 1.46-0.64 1.46-1.461v-6.984a1.46 1.46 0 0 0 -1.46 -1.457h-3.55c-0.805 0-1.458 0.652-1.458 1.457v6.984c0 0.82 0.64 1.461 1.457 1.461zm0.25-1.711v-6.484h3.051v6.484zm8.75 1.711h3.551c0.82 0 1.46-0.64 1.46-1.461v-6.984a1.46 1.46 0 0 0 -1.46 -1.457h-3.55c-0.81 0-1.462 0.652-1.462 1.457v6.984c0 0.82 0.649 1.461 1.461 1.461zm0.25-1.711v-6.484h3.051v6.484zm8.149 0c-0.512 0-0.856 0.344-0.856 0.855 0 0.52 0.336 0.852 0.856 0.852h4.761c0.52 0 0.856-0.332 0.856-0.852v-3.046c0-0.536-0.32-0.852-0.856-0.852-0.535 0-0.855 0.316-0.855 0.852v2.191h-0.672v-8.191h-3.234c-0.512 0-0.856 0.34-0.856 0.851 0 0.512 0.344 0.856 0.856 0.856h1.527v6.484h-1.531zm9.011 0c-0.511 0-0.855 0.344-0.855 0.855 0 0.52 0.336 0.852 0.855 0.852h4.762c0.52 0 0.852-0.332 0.852-0.852v-3.046c0-0.536-0.317-0.852-0.852-0.852s-0.855 0.316-0.855 0.852v2.191h-0.672v-8.191h-3.235c-0.511 0-0.855 0.34-0.855 0.851 0 0.512 0.344 0.856 0.855 0.856h1.524v6.484zm-34.906 13.718v-6.987c0-0.805-0.652-1.458-1.457-1.458h-3.555c-0.804 0-1.457 0.653-1.457 1.458v6.987c0 0.816 0.641 1.457 1.457 1.457h3.555a1.458 1.458 0 0 0 1.457 -1.461zm-1.707-6.741v6.484h-3.055v-6.48h3.055zm10.711 6.741v-6.987c0-0.805-0.652-1.458-1.457-1.458h-3.555c-0.804 0-1.457 0.653-1.457 1.458v6.987c0 0.816 0.64 1.457 1.457 1.457h3.555a1.458 1.458 0 0 0 1.457 -1.461zm-1.707-6.741v6.484h-3.055v-6.48h3.055zm10.707 7.339v-3.043c0-0.535-0.32-0.855-0.855-0.855-0.536 0-0.852 0.32-0.852 0.855v2.192h-0.672v-8.195h-3.238c-0.52 0-0.852 0.336-0.852 0.851 0 0.52 0.332 0.856 0.852 0.856h1.527v6.484h-1.527c-0.52 0-0.852 0.336-0.852 0.855 0 0.52 0.332 0.856 0.852 0.856h4.762c0.52 0.008 0.851-0.32 0.851-0.844zm9.012-0.598v-6.987a1.46 1.46 0 0 0 -1.461 -1.458h-3.551a1.46 1.46 0 0 0 -1.46 1.458v6.987c0 0.816 0.64 1.457 1.46 1.457h3.55a1.459 1.459 0 0 0 1.462 -1.461zm-1.711-6.741v6.484h-3.055v-6.48h3.05zm10.711 7.339v-3.043c0-0.535-0.32-0.855-0.856-0.855-0.535 0-0.855 0.32-0.855 0.855v2.192h-0.672v-8.195h-3.234c-0.52 0-0.856 0.336-0.856 0.851 0 0.52 0.336 0.856 0.856 0.856h1.527v6.484h-1.527c-0.52 0-0.856 0.336-0.856 0.855 0 0.52 0.336 0.856 0.856 0.856h4.761c0.52 0.008 0.86-0.32 0.86-0.844zm8.148-3.898c-0.535 0-0.855 0.316-0.855 0.852v2.191h-0.672v-8.191h-3.235c-0.52 0-0.855 0.336-0.855 0.851 0 0.52 0.336 0.856 0.855 0.856h1.528v6.484h-1.528c-0.52 0-0.855 0.336-0.855 0.855 0 0.516 0.336 0.852 0.855 0.852h4.762c0.52 0 0.856-0.336 0.856-0.852v-3.046c0-0.52-0.32-0.84-0.852-0.84zm-40.152 13.46c-0.535 0-0.856 0.317-0.856 0.852v2.192h-0.672v-8.195h-3.234c-0.52 0-0.855 0.336-0.855 0.855 0 0.52 0.336 0.856 0.855 0.856h1.524v6.484h-1.524c-0.52 0-0.855 0.336-0.855 0.851 0 0.52 0.336 0.856 0.855 0.856h4.762c0.52 0 0.855-0.336 0.855-0.856v-3.042c-0.004-0.52-0.32-0.84-0.855-0.84zm8.398-5.151h-3.554c-0.805 0-1.461 0.656-1.461 1.46v6.985c0 0.816 0.644 1.457 1.46 1.457h3.555c0.817 0 1.457-0.64 1.457-1.457v-6.984c0-0.82-0.648-1.473-1.457-1.473zm-0.25 1.71v6.485h-3.054v-6.484zm9.254-1.71h-3.55c-0.81 0-1.462 0.656-1.462 1.46v6.985c0 0.816 0.641 1.457 1.461 1.457h3.551c0.817 0 1.461-0.64 1.461-1.457v-6.984c0-0.82-0.66-1.473-1.46-1.473zm-0.25 1.71v6.485h-3.05v-6.484zm9.25-1.71h-3.55c-0.81 0-1.462 0.656-1.462 1.46v6.985c0 0.816 0.641 1.457 1.461 1.457h3.551c0.817 0 1.461-0.64 1.461-1.457v-6.984c0-0.82-0.652-1.473-1.46-1.473zm-0.25 1.71v6.485h-3.05v-6.484zm10.102 3.441c-0.535 0-0.856 0.317-0.856 0.852v2.192h-0.672v-8.195h-3.234c-0.52 0-0.855 0.336-0.855 0.855 0 0.52 0.336 0.856 0.855 0.856h1.523v6.484h-1.523c-0.52 0-0.855 0.336-0.855 0.851 0 0.52 0.336 0.856 0.855 0.856h4.762c0.52 0 0.855-0.336 0.855-0.856v-3.042c0-0.52-0.32-0.84-0.863-0.84z"></path>
</svg>
